<mxfile host="app.diagrams.net" modified="2024-01-17T14:46:39.627Z" agent="Mozilla/5.0 (Windows NT 10.0; Win64; x64) AppleWebKit/537.36 (KHTML, like Gecko) Chrome/120.0.0.0 Safari/537.36 Edg/120.0.0.0" etag="ZNmctL6Wjxg-MeuC2yOr" version="22.1.18" type="github">
  <diagram name="第 1 页" id="evCJ3KeuCLlKJmsIkt1N">
    <mxGraphModel dx="625" dy="417" grid="0" gridSize="10" guides="1" tooltips="1" connect="1" arrows="1" fold="1" page="1" pageScale="1" pageWidth="1169" pageHeight="827" math="0" shadow="0">
      <root>
        <mxCell id="0" />
        <mxCell id="1" parent="0" />
        <mxCell id="7gXZhZWd5zdu9qHWoEP5-6" value="" style="rounded=1;whiteSpace=wrap;html=1;fillColor=#E1EDF5;strokeColor=#E1EDF5;" vertex="1" parent="1">
          <mxGeometry x="360.5" y="472" width="415.5" height="323" as="geometry" />
        </mxCell>
        <mxCell id="M2BAR0wibj0y26F96If3-35" value="Recognition Module" style="swimlane;whiteSpace=wrap;html=1;fontFamily=Times New Roman;labelBackgroundColor=none;fillColor=#FAE5C7;strokeColor=#0F8B8D;fontColor=#143642;movable=1;resizable=1;rotatable=1;deletable=1;editable=1;locked=0;connectable=1;aspect=fixed;" parent="1" vertex="1">
          <mxGeometry x="295" y="214.5" width="241.71" height="187" as="geometry">
            <mxRectangle x="307" y="214.5" width="139" height="26" as="alternateBounds" />
          </mxGeometry>
        </mxCell>
        <mxCell id="M2BAR0wibj0y26F96If3-26" value="" style="swimlane;startSize=0;dashed=1;fontFamily=Times New Roman;labelBackgroundColor=none;fillColor=#FAE5C7;strokeColor=#0F8B8D;fontColor=#143642;movable=1;resizable=1;rotatable=1;deletable=1;editable=1;locked=0;connectable=1;" parent="M2BAR0wibj0y26F96If3-35" vertex="1">
          <mxGeometry x="12" y="30" width="159" height="76" as="geometry">
            <mxRectangle x="12" y="30" width="50" height="44" as="alternateBounds" />
          </mxGeometry>
        </mxCell>
        <mxCell id="M2BAR0wibj0y26F96If3-29" value="" style="shape=image;verticalLabelPosition=bottom;verticalAlign=top;imageAspect=0;aspect=fixed;image=data:image/png,iVBORw0KGgoAAAANSUhEUgAAAMgAAADICAYAAACtWK6eAAAAAXNSR0IArs4c6QAAC41JREFUeF7tnUtzFccVgLvnggRKiY3whsfCsq0iK1ilim1UUF7Ef4hyYtlx8YecRQpK3lKVFaxCybGyMPbG0gYqSCBmOjWDrrgSuo/u6cfp6U9LaXrm9HfOd0/33HtHWvEDAQhMJaBhAwEITCeAIFQHBGYQQBDKAwIIQg1AwI0AHcSNG6MKIYAghSSaaboRQBA3bowqhACCFJJopulGAEHcuDGqEAIIUkiimaYbAQRx48aoQgggSCGJZppuBBDEjRujCiGAIIUkmmm6EUAQN26MKoQAghSSaKbpRgBB3LgxqhACCFJIopmmGwEEcePGqEIIIEghiWaabgQQxI0bowohgCCFJJppuhFAEDdujCqEAIIUkmim6UYgO0E++/7+zeqdWWuna6rR5cbUK6rSl92mz6ikBBpzUOnR6zYG3dQHzQW9f/Buef+3rR+630n4yUKQVgrdVDca3XRi8DNsApWp9psLR/tLSu0/f7C9n3K2ogX5YuvenXqkb6QExLXTEmhluXDhaCeVKCIFQYy0RSnx6q0or5uLz2Ivv0QJcuvh5trbenRXYoKISQiBUb1z+HblRSxRxAiy/nBzQ9WjDSFpIAzBBGJ2ExGCfP7dl3fZgAuuSImhNebg0Fx6ErqTJBcEOSRWXz4xHdbLP4aUJKkgbMbzKUSxkQbuJMkEYc8htuSyC2xUmxf/U5d2QnSSJIJwtyq7GpQf8Kje2X2wveM70OiCXNv6auXS6M2ffU+E80FAa/Xs568f/eKTRHRBWFr5TB/nOkUgwH4kqiB0Dwo6NAHfXSSqIHSP0OXB+ZXnLhJNELoHxRuNgMcNezRB6B7RyqP4C7UfRfnP3/75xAeIaILwjrmPdHGORQn4eoc9iiAsrxZNK8f5IuBrsx5FEN4Y9JV2zrMogfbd9Z+2Hj9d9Phpx0URhP1H3zQx3ppAYw52v3m8bT3uzIAogvChxL5pYrwLgd2/PvqHy7jJMVEEYYPeN02MdyHgY6MeRZD1b+9t8mgelxQzpg+BfAT5+/2/9JkoYyHgQmBpVD/p+zSUOB0EQVzyy5ieBHzc6kWQnklguFwCCCI3N0QmgACCCEgCIcglgCByc0NkAgggiIAkEIJcAggiNzdEJoAAgghIAiHIJYAgcnNDZAIIIIiAJBCCXAIIIjc3RCaAAIIISAIhyCWAIHJzQ2QCCCCIgCQQglwCCCI3N0QmgACCCEgCIcglgCByc0NkAgggiIAkEIJcAggiNzdEJoAAgghIAiHIJYAgcnNDZAIIIIiAJBCCXAIIIjc3RCaAAIIISAIhyCWAIHJzQ2QCCCCITRJ0tapNfUUZvdoYc6UdWlX6zfEpXipjXhmt92xO6f3YRi/rqrmqlF5SSl1pGrN8EqNRb5RuYxy9VKZ55f3aNiccx2n0qtJq+VScSr1naapXqjJjvjZn93YsgiyAUitzvWnU9QUOPRbG7Bmlf13keG/HHBecTZxGV7vRRWnj1ObT8QvMrPm/F9vsmabaSyUKgszKkEUyz56mTa5p9PMoidXVqqnrP7rIVlXq11gy27zQTM7lRJTYLzpKKQSZVlU9im58yk6SwK/S2pirjVHrLnKcilOpZ33OMW+sNurWIl1j2nlSSYIg52Wk0ctGNbfnJX2RvwftJB4knpDkd6PUfxeZk+0xfeU43U3idbz2ughyTrZ9JrQ9fSeJ71doj3J8kMR/8bkuq2Z1ktBdefLaCHImEz6WLOclt9Jq1+cdLt8Sn4jsed9kGvMn244z7/hK65dGq+fzjvPxdwQ5K4hSt9tbjj7gnt1oeusiAbpHiKWWVurTpjGf+GbZLX1Go3/HuAOHIBPZC9U9xpfwldSQhedzORiie5yIHKmLIMikIAFf8Y6XMF42wjpQl/MpcugXG58iz+pwCHJakCDLq4nlS//Nusc7bNM3wv0367435+fFqlX1LPT7TAiSmyAB9x8+72aFXAb67HTz9kcIMkEo5Jr5JKmV/te8pMz8exRBdO+lIIJ8yOJg/oln6LV9d/elGEEW//ya6wuGr5se7EEWzECI9xZO3er1ceeFPcgJUvYgE9W1HuH/pIfeWFZV/6VL14UyuIulIiwFe3fjBV442YNMQgqcVF/vpofudF4KL3Cn8/ViM88RBJkk1H2nwtwK8U66l/3Hh52+88fb5xWEz8ILuVGPsf/ocqbVs5+/fvTLPG4z9zF9Bi86NsYSqwPi4ePj583JV/c4caTnx8encfe6rg/URfgs1jnZiyWI6vElqWlFFyShAYovxJenQuzrYnUPOsi0iva41Ar5fRCf3S6IxMd8fS61YsqBILPWdx4kifKNQovvy0ftcB/v7a71/WSv72XqIst79iCBJIn1Ybou/B5333xuymcWnOVDJc6eK3bnONnrsUmf8zrS7UmaVaX19UXubqX67nS3d6qaq0N6qkmbmRD7okU6B4LYUGqP/SDKqjJq+eNnOZk9Mc+bei/06vi5WO8Lbfz8rrSP0TnBPuu5WOPndyV4islHnYsOYmsKx5dEgD1ISdlmrtYEEMQaGQNKIoAgJWWbuVoTQBBrZAwoiQCClJRt5mpNAEGskTGgJAIIUlK2mas1AQSxRsaAkgggSEnZZq7WBBDEGhkDSiKAICVlm7laE0AQa2QMKIkAgpSUbeZqTQBBrJExoCQCCFJStpmrNQEEsUbGgJIIIEhJ2Wau1gQQxBoZA0oigCAlZZu5WhNAEGtkDCiJAIKUlG3mak0AQayRMaAkAghSUraZqzUBBLFGxoCSCOQjyLf3NlWlL5eUHOYqgMCo3tl9sL3TJ5I4/+UWQfrkiLGuBHIR5PPvvrzb6GbNdZ6Mg4ATgVwE+WLr3p16pG84TZJBEHAlgCCu5BhXBIFcBPns+/s3jVG3i0gKk5RDIBdBWmLrbNTlFE4pkeQkCBv1UqpS0DxzEmT94eaGqkcbgvARytAJ5CTIta2vVi7pw7u8YTj0qhQ0v5wE6fYhdBFB1VNAKLkJQhcpoCglTTE3QegikqqngFhyFIRbvgUUppQp5ipI98ZhbTbYsEuppIHGkasgLLUGWpDSppWzIEgirZoGGE/ugrAfGWBRSprSEARpefJxeElVNaBYhiLIyXLrqLrJxn1ABZp6KkMSpGV56+Hm2tuj6g6SpK6sgVx/aIKM09ItubRaQ5SBFGqqaQxVkJZn+7GUP6jDDURJVV0DuO6QBRmnp/v81tLrG9W7i2uNqVfoKgMo3FhTKEGQsyy7fYpSa60w7d86adofnrsVq+zyuU6JguSTnbIj7b7akPquJIKUXYTSZ59cEgSRXiLEl1QSBKEAcyCQTBIEyaE8iDHZJyUQhOLLiUD0ToIgOZUHsUbvJAhC0eVIIFonQZAcy4OYo3USBKHYciYQvJMgSM7lQezBOwmCUGRDIBCskyDIEMqDOQTrJAhCcQ2JgPdOgiBDKg/m4ruTZPN/0kk9BGwI+Ookh/Xyj79t/fDa5tpnj43yf9L7BMjYMgn0lqQxB7vfPN7uSw9B+hJkfDACfSRZGtVPnj/Y3u8bHIL0Jcj4oARcJBnV5sVPW4+f+ggMQXxQ5BxBCVg9L83DnavJySBI0NRycl8E2qfbrFRHt6c+2aYxB0sXm6c+llUI4itrnCcJgfGTbdqL62Z0cPBueb/v3appE6GDJEkxF82FAILkkiniTEIAQZJg56K5EECQXDJFnEkIIEgS7Fw0FwIIkkumiDMJAQRJgp2L5kIAQXLJFHEmIYAgSbBz0VwIIEgumSLOJAQQJAl2LpoLAQTJJVPEmYQAgiTBzkVzIYAguWSKOJMQQJAk2LloLgQQJJdMEWcSAgiSBDsXzYUAguSSKeJMQgBBkmDnorkQQJBcMkWcSQggSBLsXDQXAgiSS6aIMwkBBEmCnYvmQgBBcskUcSYhgCBJsHPRXAggSC6ZIs4kBBAkCXYumgsBBMklU8SZhMD/AdUL/hQOusBYAAAAAElFTkSuQmCC;fontFamily=Times New Roman;labelBackgroundColor=none;fillColor=#FAE5C7;strokeColor=#0F8B8D;fontColor=#143642;" parent="M2BAR0wibj0y26F96If3-26" vertex="1">
          <mxGeometry x="102.75" y="13.5" width="43" height="43" as="geometry" />
        </mxCell>
        <mxCell id="M2BAR0wibj0y26F96If3-6" value="" style="shape=image;verticalLabelPosition=bottom;verticalAlign=top;imageAspect=0;aspect=fixed;image=data:image/png,iVBORw0KGgoAAAANSUhEUgAAAMgAAADICAYAAACtWK6eAAAAAXNSR0IArs4c6QAADxFJREFUeF7tnT92HLkRh8FDrDPvo84gR3aw4g3WkZVRipw58sYS4818AVHZOrJvICrwRqsziLaz9SHoV6MB1dPTjfrTPc0B8PV7ehLFRgP4qn5AFRqDuUiH16uU0nVK6cXo//kRAq0TuE8p3aWUPqaUbnNnLwa9/oAwWvcB+mckIAK5SSndZ4EgDiM5buuGgIjktQhEwqp33XSbjkLATmAnEBGHiIQLAhA4JHAnAvmcUrqEDAQgcERgl4M8AAYCEJgmgEDwDAgUCCAQ3AMCCAQfgECMADNIjBulOiGAQDoxNN2MEUAgMW6U6oQAAunE0HQzRgCBxLhRqhMCCKQTQ9PNGAEEEuNGqU4IIJBODE03YwQQSIwbpTohgEA6MTTdjBFAIDFulOqEAALpxNB0M0YAgcS4UaoTAgikE0PTzRgBBBLjRqlOCCCQTgxNN2MEOLQhxo1SnRAQgXBoXCfGpptuArccHOdmRoGOCFzlo0c5PK4jq9NVEwE5yPpRIHJwnJyu+MZUlJsg0DaBnTiki8PT3eVnEcl3+1PeOW2xbSegd4cE5OsP5I98/cHb/KuxQIAGAQgMCCAQ3AECBQIIBPeAAALBByAQI8AMEuNGqU4IIJBODE03YwQQSIwbpTohgEA6MTTdjBHwCiS/cZeXifJvXibGuFNqOwLy8k+u/CLw/f770E0tsAiEbSgmlNxUEQERiwhFvuo5C2iy+ZpA5JU7+7MqsjxNdRHIQnncWjIuPScQmTVkh+8LV3XcDIE6CYhQZHPi0WwyJRARh3yIivyiTmPT6hiBSZGMBYI4YnAp1QaBI5GMBcLHb9swNL2IExCRPMvFhwIhIY9DpWRbBGR167V0aSiQh7b6SG8gECbwGGrxmfQwQwo2TmA3i2SBMHs0bm265yawy0U49sfNjQIdEdidarL0yJ/8NlJOgpA/XBB4SgLyqkJecMvf1wvf590sPVnxZngCxFNSoW4ITBBYuo/wbsnZvPJqnhkDv6yBgMwo8o7Pe91HT3d/XCf21sj9EHgiApH3fCGBHLxpfKLOUi0EvARC26giMwh5h9c03H8uBNyzSEQg8gpeQiwuCNRGwJ2LRAQiG7mKn8KqjRrt7YaAhFmfPb2NCET7FKKnfu6FwNYEXLtGTiKQh1/TL1v3mvogkC7Sny++SZ8UEmcjkOeYDAKbErhIv0MgmxKnsqoIIJCqzEVjtyaAQLYmTn1VEUAgVZmLxm5NAIFsTZz6qiKAQKoyF43dmgAC2Zo49VVFAIFUZS4auzUBBLI1ceqrigACqcpcNHZrAghka+LUVxUBBFKVuWjs1gQQyNbEqa8qAgikKnPR2K0JIJCtiVNfVQQQSFXmorFbE0AgWxOnvqoIIJCqzEVjtyaAQLYmTn1VEUAgVZmLxm5NAIFsTZz6qiKAQKoyF43dmgAC2Zo49VVFAIFUZS4auzUBBLI1ceqrigACqcpcNHZrAghka+LUVxUBBFKVuWjs1gQQyNbEqa8qAgikKnPR2K0JIJCtiVNfVQQQSFXmorFbE6hdIHf/Sun+v/PULn+b0os/rENVq+vVy23qkf5Iv4aXMJD2PdU11aZhWzR2nnbnvq9l12LdtQvk9V9Suv1pvosC8cM/PPjn7332vCxGqWcNo139sezsnz8dC0QYCIunurS+a32KtlvEcvntFx7Xf1qH/0FbahfI2x9TuvmxPIOIQ61xXfym/JQ3P6T09oflNWlCfPj1uI5eBTImkSOG1cRSu0Bk6pbRqXRpo5vFpS0OuNZsVRKiOMCU4C3ts/Qzeo/G+FQzSKm9EvLKoDUOR119rF0gEnvLiHtqgWihnNQ/57weg2iOLkZ/9zdmECtTsYmIJJwf1i4QAaWNTmuEPlrYkw2mjaSaYTWBiDimjK2V0+pd+nut35qNltZfKr/LT14Gw98WBKKN7muEPlr+kQ20VIxaXxBITEoikg//DIRbLQjk1Im6Z3ReKkZtpppawRKXsbRxjRW2OfcU4ZZifW0GkbZJYl26JJz+935JX/59/5/yquJUAu9esGlBIJZEfWrlxzoWaaP68DlL8xBtpprrh0UgSxhYWc3dpwlkLrfSBCO2//hzeal/+AwtFDyqrwWBnDpR14w7huo2wuABJYGUnKhHgQy5iw9cfa/PKO4ZvgWBnDpR10b1sUCieYjm5KXnamWlja3NIGPuloHSPcO3IhAtDHKPHHv6FscbG+pUdc0l6NYcpHWBCAdLuD2Xx02Gc60I5FSJ+txzRQRze5/co9TeMprIS4a1CLkHgVhmEVcI3IpAtJFjbaeV0fz93+dF4jLCXiDaClbJwRHI1/Ff41iaiZtM0qVTq48ce1Jz+YeM5uKUc/vAIgKJJuiEWIdurS2qdCkQS6LuddrSqCyjeWnW8uYhmsC1xJ8Z5KtIloSqzc4g0jEtD9GcbAxnzunycmvJqb0hnebg2qinle9hFSvbTwuxXLlYKzmIZQXDO6rPjUTD9xGlsMizWqKJW3sWAvk6vGnL8t0KRAtTvKP63Eg0HM1L8a4npNPCAs2oCOSLQDQO3igitTSDaAIRgNpInMehUn4xfEZp5PdsnyiFBZbnaI7RQ4ilrWR67P84H7UkkDUTdS1BtwjJM2MtWcGyjJytC8QyOFoGmqaT9DUT9bmQZ5zHaIbRQiNL7qQl6D0LRPiXltuzw3sGqwORtDaDaNOsNVGfC3nGo5AmEEseooVHlrBQe4YYfeqTiEcjpvE/vKfFaO8mtNE9n1yTt7jnre+lAzuGXbHYYbLrrQlEc1jrSDIX8kyN5iXjW5JCbQXLMgtZBGL0fdNtmkOPH6IJxFRp8KawOKS+3gRiicVLzjY1mpdWoCyCLJW3OiICOVaPRAvaB7lUzbUmkDUS9ZLDTo3mWlinzQBLV7CsOYjqDI4brMLNj9x6BrHM3KbutigQLWTR4FnzjwxYC+u0Kb60gmVJ0BHIsauvdj5WiwLRRnRNIHMOWypXmgVK5bS2WhJ0BFKeC7o/1WSMRxvRSytZpVi+NBOUQohofZZ8KfedHEQPmKwrmE0v80rnNIGUEmdv/mFx0Gh9HoNaBLLmqSbf/d53zpSWg+QzdjU3l2XebGPt3qnfu4//aTHEsiTqc6GLN/9YmoessYJlDbG0xYKIw1nLaALxJv35vUg+1cRzerxlZfGxX60KREvU58KlufzDYsBSsj2Xh5RyF2uC3qNApoQps2jpU57DMhZ77u5vVSBa8jvlsKUyFmeN5CFrbZe3hFgtzSBzM5dn64nppMVWBaLlIVMjiHWD4pxxSrPW1LSuidjj0Ajk0CpaBCF3m3K8VgWymx0L3+cxBcfyAalSzK2JcuzwJac2GW/QGARyaBmxhdiz9K1bplykZYGUQp4pONEEfWiakijHec9aCTo5yPSwZRk01PdMLQtEm2bHcDwbFOdmEs/GxZJALDnPsA0WZ/CEbNbVKet9a69iWerVZnR5hrbLodkkXTqvxfhDON4NipE8ZBw2lVaw1JFt1AAEMm0R7QAHbVdF0wLRRpAhnDkH8+YCJVGOw7pSOOYd7REIAvklpaR82doxJOu7iaUJeq5ZE2WeGTxCsoQTCASBhARifTdhOcHE4qhyj+Wkk5JDm19isYqlmkQ7AkjN9VpO0oWe9d1E6YhR77eklurMYV3pHtVoE27BDHIMxcJEZd26QLREXWL9pS8Ix6axHEm65goWy7zTE4m2cial1MWQ1gWi5QSyknX38/Qh1JFQR6BbjiRdcwULgRwLRBsYpYTJvq0LREBon9ib+447dfotRMBaHiK/n7u8K1gI5JCkRRxSwmTfHgRSclYZRea2SqvTb0EgWh4y97UJplGNHGSWvPZyeFjQZN8eBOKBNgQYGclzeesoNra0+uJqxjUsCemS/qjLRcoNWj4QHRhySLvb6v6T/iWeuZnqG/R8Yw8CiTjrEoNpeUjJl0zTfnAGWerkWvmSADWByAvZN3/Vavjy+913pO+/L13C49KGxKknul7+9iAQLVGfghh11OGzNKeYqtc07TcoEJs0lt/lEodU14NAdv0sbH1f01GHz4qEdtEwyBJiLXev8hOWzCCnbps83y2OngTiHc2jjjo0tDe0WxLWIZCyxKK5XTcziGc0X+KoQzN5Q7uwEQ1fHLPFCH2OM8ji40d7CbE8o/ka+Ud2SM/MtaReZpCvQ0A+KE4GOu82oaOBpBeBeEbzaKI8NUp7Zq4l9fYqkCyA65df6K8iiqEhexGI9Nm6HLjmAWu7Jcn9YWdamLOkXk89Wjuivy+138reUvfltyvMDJaKekrSrTy4DwIHBHqaQTA9BNwEEIgbGQV6IoBAerI2fXUTQCBuZBToiQAC6cna9NVNAIG4kVGgJwIIpCdr01c3AQTiRkaBngggkJ6sTV/dBBCIGxkFeiKAQHqyNn11E0AgbmQU6IkAAunJ2vTVTQCBuJFRoCcCCKQna9NXNwEE4kZGgZ4IIJCerE1f3QQQiBsZBXoigEB6sjZ9dRNAIG5kFOiJAALpydr01U0AgbiRUaAnAgikJ2vTVzcBBOJGRoGeCCCQnqxNX90EEIgbGQV6IoBAerI2fXUTQCBuZBToiUA1Avlfet6TXejr+RC4+CZ9Ulrz4GntRUrJVSCl9Ey+vNRTCfdC4IwIuPw9IpAr+fqOM+owTYGAlcCrlNI7681yX0QgNymlt55KuBcCZ0JA/PaNpy0RgUh4JWEWFwRqI/A5pXTpaXREIPL825TSa09F3AuBJyYgoZWEWK5LBOJW1b4GEYgIhQsC507gRUrpQ6CR9yIQKSgPiFzkIxFqlNmSgDvvGDTuTgSy5AHyLMlJZFXr4/5vloC3ND91jQlIjiF/ZNC/9uYco4fdikCi0w+mgUDrBK5EIKI2yUO4IACBQwIXIhC5Qhk+NCHQMIHdSm0WCLNIw5amayECuy1VWSDyBPdr+FC1FILA+RN4XJ0dCkRmEQm1oku+599tWggBnYCsyMp+w901FIj8LCKR9yKu1/F6ndwBgSoIHG2jGgsEkVRhRxp5AgIiDtkdcrBTfUogWSSEWyewAo88SwIHYdWwhXMCySKRxN21Pfgsu0+jIDBNQGaN96WPb5QEkh8p+QhCwcVaIqAKYy5JL0HIe1zy/pb8c0vg6Et7BPLeQPk77xc0fyL2/7wImUJ3aZ30AAAAAElFTkSuQmCC;fontFamily=Times New Roman;labelBackgroundColor=none;fillColor=#FAE5C7;strokeColor=#0F8B8D;fontColor=#143642;" parent="M2BAR0wibj0y26F96If3-26" vertex="1">
          <mxGeometry x="14" y="13.5" width="37" height="37" as="geometry" />
        </mxCell>
        <mxCell id="M2BAR0wibj0y26F96If3-44" value="&lt;font style=&quot;font-size: 10px;&quot;&gt;Front-end snippet&lt;/font&gt;" style="text;html=1;strokeColor=none;fillColor=none;align=center;verticalAlign=middle;whiteSpace=wrap;rounded=0;fontFamily=Times New Roman;labelBackgroundColor=none;fontColor=#143642;" parent="M2BAR0wibj0y26F96If3-26" vertex="1">
          <mxGeometry x="7" y="44.5" width="90" height="25" as="geometry" />
        </mxCell>
        <mxCell id="M2BAR0wibj0y26F96If3-45" value="&lt;font style=&quot;font-size: 10px;&quot;&gt;Interaction Prompt&lt;/font&gt;" style="text;html=1;strokeColor=none;fillColor=none;align=center;verticalAlign=middle;whiteSpace=wrap;rounded=0;fontFamily=Times New Roman;labelBackgroundColor=none;fontColor=#143642;" parent="M2BAR0wibj0y26F96If3-26" vertex="1">
          <mxGeometry x="102.75" y="47" width="41.5" height="24.5" as="geometry" />
        </mxCell>
        <mxCell id="M2BAR0wibj0y26F96If3-71" value="+" style="text;html=1;strokeColor=none;fillColor=none;align=center;verticalAlign=middle;whiteSpace=wrap;rounded=0;fontColor=#143642;fontStyle=1" parent="M2BAR0wibj0y26F96If3-26" vertex="1">
          <mxGeometry x="77" y="23" width="40" height="24" as="geometry" />
        </mxCell>
        <mxCell id="7gXZhZWd5zdu9qHWoEP5-112" value="" style="shape=image;verticalLabelPosition=bottom;verticalAlign=top;imageAspect=0;aspect=fixed;image=data:image/svg+xml,PHN2ZyB4bWxuczp4bGluaz0iaHR0cDovL3d3dy53My5vcmcvMTk5OS94bGluayIgeG1sbnM9Imh0dHA6Ly93d3cudzMub3JnLzIwMDAvc3ZnIiBoZWlnaHQ9IjIwMCIgd2lkdGg9IjIwMCIgdmVyc2lvbj0iMS4xIiB2aWV3Qm94PSIwIDAgMTAyNCAxMDI0IiBjbGFzcz0iaWNvbiI+PHBhdGggZmlsbD0iI2Q4MWUwNiIgZD0iTTk3Ny4xIDIzOC45Qzk0Ni45IDIwOC42IDkwNi43IDE5MiA4NjQgMTkycy04Mi45IDE2LjYtMTEzLjEgNDYuOUM3MjAuNiAyNjkuMSA3MDQgMzA5LjMgNzA0IDM1MmMwIDMuNSAwLjEgNi45IDAuMyAxMC40TDMwMi45IDQ3MS45Yy03LTEzLjktMTYuMS0yNi44LTI3LjItMzguNGwxMjguNi0xODUuMWMxMy44IDUgMjguNiA3LjYgNDMuNyA3LjYgNzAuNiAwIDEyOC01Ny40IDEyOC0xMjggMC0zNC4yLTEzLjMtNjYuMy0zNy41LTkwLjVDNTE0LjMgMTMuMyA0ODIuMiAwIDQ0OCAwcy02Ni4zIDEzLjMtOTAuNSAzNy41UzMyMCA5My44IDMyMCAxMjhjMCAzMS4zIDExLjEgNjAuOCAzMS41IDg0LjFMMjIzLjIgMzk2LjljLTE5LjctOC41LTQxLjEtMTIuOS02My4yLTEyLjktNDIuNyAwLTgyLjkgMTYuNi0xMTMuMSA0Ni45QzE2LjYgNDYxLjEgMCA1MDEuMyAwIDU0NGMwIDQyLjcgMTYuNiA4Mi45IDQ2LjkgMTEzLjFDNzcuMSA2ODcuNCAxMTcuMyA3MDQgMTYwIDcwNGM0Ni42IDAgODguNi0yMCAxMTcuOS01MS45TDQ2MS4xIDc2MmMtOC42IDIyLTEzLjEgNDUuNy0xMy4xIDcwIDAgNTEuMyAyMCA5OS41IDU2LjIgMTM1LjggMzYuMyAzNi4zIDg0LjUgNTYuMiAxMzUuOCA1Ni4yIDEwNS45IDAgMTkyLTg2LjEgMTkyLTE5MiAwLTUxLjMtMjAtOTkuNS01Ni4yLTEzNS44QzczOS41IDY2MCA2OTEuMyA2NDAgNjQwIDY0MHMtOTkuNSAyMC0xMzUuOCA1Ni4yYy0zLjUgMy41LTYuOSA3LjItMTAuMSAxMC45TDMxMC45IDU5Ny4yYzUuOS0xNi43IDkuMS0zNC42IDkuMS01My4yIDAtMy41LTAuMS02LjktMC4zLTEwLjRsNDAxLjQtMTA5LjVjNy42IDE1IDE3LjYgMjguOCAyOS44IDQxQzc4MS4xIDQ5NS40IDgyMS4zIDUxMiA4NjQgNTEyYzg4LjIgMCAxNjAtNzEuOCAxNjAtMTYwIDAtNDIuNy0xNi42LTgyLjktNDYuOS0xMTMuMXpNNjQwIDcwNGMzNC4yIDAgNjYuMyAxMy4zIDkwLjUgMzcuNSAyNC4yIDI0LjIgMzcuNSA1Ni4zIDM3LjUgOTAuNSAwIDcwLjYtNTcuNCAxMjgtMTI4IDEyOC0zNC4yIDAtNjYuMy0xMy4zLTkwLjUtMzcuNS0yNC4yLTI0LjItMzcuNS01Ni4zLTM3LjUtOTAuNXMxMy4zLTY2LjMgMzcuNS05MC41YzI0LjItMjQuMiA1Ni4zLTM3LjUgOTAuNS0zNy41ek00MDIuNyA4Mi43QzQxNC44IDcwLjcgNDMwLjkgNjQgNDQ4IDY0czMzLjIgNi43IDQ1LjMgMTguN2MxMiAxMi4xIDE4LjcgMjguMiAxOC43IDQ1LjMgMCAzNS4zLTI4LjcgNjQtNjQgNjQtMTcuMSAwLTMzLjItNi43LTQ1LjMtMTguN1MzODQgMTQ1LjEgMzg0IDEyOHM2LjctMzMuMiAxOC43LTQ1LjN6TTE2MCA2NDBjLTI1LjYgMC00OS44LTEwLTY3LjktMjguMUM3NCA1OTMuOCA2NCA1NjkuNiA2NCA1NDRzMTAtNDkuOCAyOC4xLTY3LjlDMTEwLjIgNDU4IDEzNC40IDQ0OCAxNjAgNDQ4czQ5LjggMTAgNjcuOSAyOC4xQzI0NiA0OTQuMiAyNTYgNTE4LjQgMjU2IDU0NGMwIDUyLjktNDMuMSA5Ni05NiA5NnogbTcwNC0xOTJjLTI1LjYgMC00OS44LTEwLTY3LjktMjguMUM3NzggNDAxLjggNzY4IDM3Ny42IDc2OCAzNTJzMTAtNDkuOCAyOC4xLTY3LjlDODE0LjIgMjY2IDgzOC40IDI1NiA4NjQgMjU2czQ5LjggMTAgNjcuOSAyOC4xQzk1MCAzMDIuMiA5NjAgMzI2LjQgOTYwIDM1MmMwIDUyLjktNDMuMSA5Ni05NiA5NnoiLz48L3N2Zz4=" vertex="1" parent="M2BAR0wibj0y26F96If3-26">
          <mxGeometry x="58" y="19.75" width="31.25" height="31.25" as="geometry" />
        </mxCell>
        <mxCell id="M2BAR0wibj0y26F96If3-27" value="" style="swimlane;startSize=0;dashed=1;fontFamily=Times New Roman;labelBackgroundColor=none;fillColor=#FAE5C7;strokeColor=#0F8B8D;fontColor=#143642;" parent="M2BAR0wibj0y26F96If3-35" vertex="1">
          <mxGeometry x="12" y="111" width="159" height="67" as="geometry" />
        </mxCell>
        <mxCell id="M2BAR0wibj0y26F96If3-28" value="" style="shape=image;verticalLabelPosition=bottom;verticalAlign=top;imageAspect=0;aspect=fixed;image=data:image/png,iVBORw0KGgoAAAANSUhEUgAAAMgAAADICAYAAACtWK6eAAAAAXNSR0IArs4c6QAAC41JREFUeF7tnUtzFccVgLvnggRKiY3whsfCsq0iK1ilim1UUF7Ef4hyYtlx8YecRQpK3lKVFaxCybGyMPbG0gYqSCBmOjWDrrgSuo/u6cfp6U9LaXrm9HfOd0/33HtHWvEDAQhMJaBhAwEITCeAIFQHBGYQQBDKAwIIQg1AwI0AHcSNG6MKIYAghSSaaboRQBA3bowqhACCFJJopulGAEHcuDGqEAIIUkiimaYbAQRx48aoQgggSCGJZppuBBDEjRujCiGAIIUkmmm6EUAQN26MKoQAghSSaKbpRgBB3LgxqhACCFJIopmmGwEEcePGqEIIIEghiWaabgQQxI0bowohgCCFJJppuhFAEDdujCqEAIIUkmim6UYgO0E++/7+zeqdWWuna6rR5cbUK6rSl92mz6ikBBpzUOnR6zYG3dQHzQW9f/Buef+3rR+630n4yUKQVgrdVDca3XRi8DNsApWp9psLR/tLSu0/f7C9n3K2ogX5YuvenXqkb6QExLXTEmhluXDhaCeVKCIFQYy0RSnx6q0or5uLz2Ivv0QJcuvh5trbenRXYoKISQiBUb1z+HblRSxRxAiy/nBzQ9WjDSFpIAzBBGJ2ExGCfP7dl3fZgAuuSImhNebg0Fx6ErqTJBcEOSRWXz4xHdbLP4aUJKkgbMbzKUSxkQbuJMkEYc8htuSyC2xUmxf/U5d2QnSSJIJwtyq7GpQf8Kje2X2wveM70OiCXNv6auXS6M2ffU+E80FAa/Xs568f/eKTRHRBWFr5TB/nOkUgwH4kqiB0Dwo6NAHfXSSqIHSP0OXB+ZXnLhJNELoHxRuNgMcNezRB6B7RyqP4C7UfRfnP3/75xAeIaILwjrmPdHGORQn4eoc9iiAsrxZNK8f5IuBrsx5FEN4Y9JV2zrMogfbd9Z+2Hj9d9Phpx0URhP1H3zQx3ppAYw52v3m8bT3uzIAogvChxL5pYrwLgd2/PvqHy7jJMVEEYYPeN02MdyHgY6MeRZD1b+9t8mgelxQzpg+BfAT5+/2/9JkoYyHgQmBpVD/p+zSUOB0EQVzyy5ieBHzc6kWQnklguFwCCCI3N0QmgACCCEgCIcglgCByc0NkAgggiIAkEIJcAggiNzdEJoAAgghIAiHIJYAgcnNDZAIIIIiAJBCCXAIIIjc3RCaAAIIISAIhyCWAIHJzQ2QCCCCIgCQQglwCCCI3N0QmgACCCEgCIcglgCByc0NkAgggiIAkEIJcAggiNzdEJoAAgghIAiHIJYAgcnNDZAIIIIiAJBCCXAIIIjc3RCaAAIIISAIhyCWAIHJzQ2QCCCCITRJ0tapNfUUZvdoYc6UdWlX6zfEpXipjXhmt92xO6f3YRi/rqrmqlF5SSl1pGrN8EqNRb5RuYxy9VKZ55f3aNiccx2n0qtJq+VScSr1naapXqjJjvjZn93YsgiyAUitzvWnU9QUOPRbG7Bmlf13keG/HHBecTZxGV7vRRWnj1ObT8QvMrPm/F9vsmabaSyUKgszKkEUyz56mTa5p9PMoidXVqqnrP7rIVlXq11gy27zQTM7lRJTYLzpKKQSZVlU9im58yk6SwK/S2pirjVHrLnKcilOpZ33OMW+sNurWIl1j2nlSSYIg52Wk0ctGNbfnJX2RvwftJB4knpDkd6PUfxeZk+0xfeU43U3idbz2ughyTrZ9JrQ9fSeJ71doj3J8kMR/8bkuq2Z1ktBdefLaCHImEz6WLOclt9Jq1+cdLt8Sn4jsed9kGvMn244z7/hK65dGq+fzjvPxdwQ5K4hSt9tbjj7gnt1oeusiAbpHiKWWVurTpjGf+GbZLX1Go3/HuAOHIBPZC9U9xpfwldSQhedzORiie5yIHKmLIMikIAFf8Y6XMF42wjpQl/MpcugXG58iz+pwCHJakCDLq4nlS//Nusc7bNM3wv0367435+fFqlX1LPT7TAiSmyAB9x8+72aFXAb67HTz9kcIMkEo5Jr5JKmV/te8pMz8exRBdO+lIIJ8yOJg/oln6LV9d/elGEEW//ya6wuGr5se7EEWzECI9xZO3er1ceeFPcgJUvYgE9W1HuH/pIfeWFZV/6VL14UyuIulIiwFe3fjBV442YNMQgqcVF/vpofudF4KL3Cn8/ViM88RBJkk1H2nwtwK8U66l/3Hh52+88fb5xWEz8ILuVGPsf/ocqbVs5+/fvTLPG4z9zF9Bi86NsYSqwPi4ePj583JV/c4caTnx8encfe6rg/URfgs1jnZiyWI6vElqWlFFyShAYovxJenQuzrYnUPOsi0iva41Ar5fRCf3S6IxMd8fS61YsqBILPWdx4kifKNQovvy0ftcB/v7a71/WSv72XqIst79iCBJIn1Ybou/B5333xuymcWnOVDJc6eK3bnONnrsUmf8zrS7UmaVaX19UXubqX67nS3d6qaq0N6qkmbmRD7okU6B4LYUGqP/SDKqjJq+eNnOZk9Mc+bei/06vi5WO8Lbfz8rrSP0TnBPuu5WOPndyV4islHnYsOYmsKx5dEgD1ISdlmrtYEEMQaGQNKIoAgJWWbuVoTQBBrZAwoiQCClJRt5mpNAEGskTGgJAIIUlK2mas1AQSxRsaAkgggSEnZZq7WBBDEGhkDSiKAICVlm7laE0AQa2QMKIkAgpSUbeZqTQBBrJExoCQCCFJStpmrNQEEsUbGgJIIIEhJ2Wau1gQQxBoZA0oigCAlZZu5WhNAEGtkDCiJAIKUlG3mak0AQayRMaAkAghSUraZqzUBBLFGxoCSCOQjyLf3NlWlL5eUHOYqgMCo3tl9sL3TJ5I4/+UWQfrkiLGuBHIR5PPvvrzb6GbNdZ6Mg4ATgVwE+WLr3p16pG84TZJBEHAlgCCu5BhXBIFcBPns+/s3jVG3i0gKk5RDIBdBWmLrbNTlFE4pkeQkCBv1UqpS0DxzEmT94eaGqkcbgvARytAJ5CTIta2vVi7pw7u8YTj0qhQ0v5wE6fYhdBFB1VNAKLkJQhcpoCglTTE3QegikqqngFhyFIRbvgUUppQp5ipI98ZhbTbYsEuppIHGkasgLLUGWpDSppWzIEgirZoGGE/ugrAfGWBRSprSEARpefJxeElVNaBYhiLIyXLrqLrJxn1ABZp6KkMSpGV56+Hm2tuj6g6SpK6sgVx/aIKM09ItubRaQ5SBFGqqaQxVkJZn+7GUP6jDDURJVV0DuO6QBRmnp/v81tLrG9W7i2uNqVfoKgMo3FhTKEGQsyy7fYpSa60w7d86adofnrsVq+zyuU6JguSTnbIj7b7akPquJIKUXYTSZ59cEgSRXiLEl1QSBKEAcyCQTBIEyaE8iDHZJyUQhOLLiUD0ToIgOZUHsUbvJAhC0eVIIFonQZAcy4OYo3USBKHYciYQvJMgSM7lQezBOwmCUGRDIBCskyDIEMqDOQTrJAhCcQ2JgPdOgiBDKg/m4ruTZPN/0kk9BGwI+Ookh/Xyj79t/fDa5tpnj43yf9L7BMjYMgn0lqQxB7vfPN7uSw9B+hJkfDACfSRZGtVPnj/Y3u8bHIL0Jcj4oARcJBnV5sVPW4+f+ggMQXxQ5BxBCVg9L83DnavJySBI0NRycl8E2qfbrFRHt6c+2aYxB0sXm6c+llUI4itrnCcJgfGTbdqL62Z0cPBueb/v3appE6GDJEkxF82FAILkkiniTEIAQZJg56K5EECQXDJFnEkIIEgS7Fw0FwIIkkumiDMJAQRJgp2L5kIAQXLJFHEmIYAgSbBz0VwIIEgumSLOJAQQJAl2LpoLAQTJJVPEmYQAgiTBzkVzIYAguWSKOJMQQJAk2LloLgQQJJdMEWcSAgiSBDsXzYUAguSSKeJMQgBBkmDnorkQQJBcMkWcSQggSBLsXDQXAgiSS6aIMwkBBEmCnYvmQgBBcskUcSYhgCBJsHPRXAggSC6ZIs4kBBAkCXYumgsBBMklU8SZhMD/AdUL/hQOusBYAAAAAElFTkSuQmCC;fontFamily=Times New Roman;labelBackgroundColor=none;fillColor=#FAE5C7;strokeColor=#0F8B8D;fontColor=#143642;" parent="M2BAR0wibj0y26F96If3-27" vertex="1">
          <mxGeometry x="102" y="7" width="43" height="43" as="geometry" />
        </mxCell>
        <mxCell id="M2BAR0wibj0y26F96If3-7" value="" style="shape=image;verticalLabelPosition=bottom;verticalAlign=top;imageAspect=0;aspect=fixed;image=data:image/png,iVBORw0KGgoAAAANSUhEUgAAAMgAAADICAYAAACtWK6eAAAAAXNSR0IArs4c6QAAEdRJREFUeF7tnYGV5KgRhvsisTeS80ZiXwbKwHcZKAPvRuJzJHcbyfn9GmqG1oCogoJG0t/v7ZvZaVHAX3wCJCh+evBDBahAVoGfqA0VoAJ5BQgIWwcVOFCAgLB5UAECwjZABeoUYA9SpxtT3UQBAnITR7OadQoQkDrdmOomChCQmzia1axTgIDU6cZUBwosy/Kvx+PxzwaR/vd4PL6t6/pngw2XpATERUYaEQWWZfn18Xj820ERwPH11ZAQEAdP0sSbAsuy/P3xePzhrMcv67p+c7apNkdA1FLxwpICnQBBtr+t64qeafiHgAyX/LoZdgQEoqEX+b6u6+8jFSQgI9W+eF6dAfFUD5Bh6FZ8CEBAPGW/ua0TAQJP/b6u69eSywhISSF+r1bgZICgXl9KvQgBUbufF5YUOCEgeIx8OKchICWv83u1AgRELRUvvKMCBOSOXmed1QoQELVUvPCOCgRA/nOiuhcf9XIOciJvsqjjFbgUIOEOllIRa4Twyb4YKj3uG+8a5jiDAlMBsizLP4Io0qDx82+RUPi/fCd/3v/fQ1cBKQZKfv8RwfZ0HSHzkH4uG8MACY1fGvPPQYY9EHOpU1caQCP/ANP7/68OUOjBxad16o1Nhbfph8tN3AGJRIoh6HGXHyulX27yYgqbgvD7nyUn+WXd1xKfYiX0DbvHAAPuHKNB2NNfXHyWaSKpco+si0DzPawRqq2HmYDgP8+6emyWMtejMkGfN+kRFNha6fGJhyWwJ0OTeGL93mhG3nGjiX/ciOK5EOZI8f89GhuA6b7tdFkWPJL18qFHOxhtww+Q0FBwd6gVdBtORI1/u2uObOyj1A9aCTT4iR42fvBgKQp0wj4I1111JxwOWTTTXusDiHGfsYCwjbGvCIBW/dR1ETwYkgo4ml4HumJnncuGIQKyeacdkGVZ/hvmF7l2gTsbYWigJoIGkUBKczmXPdoJQNC7/9ZQDSQF6PeZgxyMUTcovLv9RudcJnl4JA5QAEyqdyne+UpiJABRbSA6snvCXqmoY/Yxb6ay6q2KJQfxe50CARZMpmNQEDPqF52F9FUEpHGIFZ5UxQvP0GtgDDzsEWRLA7hS2oQv8O7kS0sdCYg/ILC4TRSv9HKrpZGNSJuAA9kSEB/xm4ZYeJybW7qMXmR7qUVYfDwVWwnDqqMJOwHxkb0bIPviyYstAlPhuGidmnZFAgGp0DmRZBggKWDkpSChCepEIMgq5dIj3VwzICAnByRX/Hih3tPykrNP/hNvz2WZfo8VywTkooCUqiXQbBPRsCxF0sTfyffbd61w7TZapZaEHO1L0bwFL9Xb+j0BsSqWvv5lQyyf4vtYST2WfkWj9qnNmxUC4qMmAfHRcTorBMTHJQTER8fprBAQH5cQEB8dp7NCQHxcQkB8dJzOCgHxcQkB8dFxOisExMclBMRHx+msTAkIVFqWBWcUnuIp4bquxaAlR8vdj9ZiTddiblagmQHxOuW2t0tVWwYISG839LE/LSChFwEkEvapjwJtVqGfaj8NAWkT+lWppwbkVaL0yJeA9FC1v00C0l/jLQcCMkho52wIiLOgOXMEpCw01nJ5PJXZ4lvFoZCijVHWWGMEpOw3lysISFrGp/330VL2ffAErROwlx8T1+QnE5jhyDYB0SrfeB0BeRYQvQXiTmWDs4UgerlwPCl3HMIhCQKEiEGm6a0ISGPD1yYnIM9KFc/NxuWGSJOmhtzLbqox9Ihqom10Z7qOgHx4S3Wnj+74mjfGJpsBPo1dE3gEpB5JAvKmnbnBhXkDhkTZj2Ypwz6xItRrVXkT+WAoBxjl0xxZsb4ZzpuSgFQCEu72fx241gxdsKk5kqDKdlxWDrF0UBKQN51U63ISd+HScEg1p9k1XAKia7tDriIgbzJXDS+WZTnqQWC3uJyaQ6wh7bw6EwISpLPOF5SRzE2TdKVNzkGqm7s9IQH50Mw0HDI8klXbVU7QCYi9nVenICAf0uElIYZExej1hjv91pg1do3nBXKSXt3kbQkJyLNeiFyPCXsWEuMb79g69h98OpIuPC7GqUyW88UJiK2dV19NQD5Llz0LMHMUgUV8iQ6JI+sQmvRSsXktQpzlWgKS91QcO7hHfN2WNsIepEU9Q1oCYhBroksJyCBnEJBBQjtnQ0CcBc2ZIyCDhHbOhoA4C0pABgk6KBsCMkho9iCDhHbOhoA4C8oeZJCgg7IhIIOEZg8ySGjnbAiIs6DsQQYJOigbAjJIaPYgg4R2zoaAOAvq0YNgnRLeLmPdkCbyxqAqXD4bhCBCPK14ey8BGeR2Sw/yvrchLLDD8gtL+JtBVbpENoAC67XeFzfuNmdND0hYt1bjjG2Jj2ZVdY1xa5oqQOJMAiz4k/Qs7F2sXng8AMSP0DDw+6fPWQBxWNApdS+urLbLbE9hAUS1rwFFiHoYrFgFMPLPXsJrpYCGWC28wZBa/p6BA731KYZYzgfoQCsE8ivu0enVTCyAoAwoKMj+tK9BU8Cot5HVsXKGhPQ6Z+99BADIIRBUDxnC3Rga7WP3TjnEMm4k0zQZaXOqjWxag5brrIDEtrd9E97jxSgOLvLa9zzSI0k59kC1ABbfpeT3+G9o8OIw+bl973mHi6A42ityJ0DE1+YAGBYQcte2ALKHZZtUegPjUckAnWtD9ihXGI5K75DqKXLZ3BEQaIH2hXbW+sEIKBt/OTbuBUiqwFKZ941HnnfaVoVGpw+QxkPL2t2EW++1ruuXljr0CBzXaYjVUs2jtKqIMz0ByRVOyJU7gfzffbjSS9mU3TC/iudSPR9QEBAf5xYjzrwCEE3VpNeJx/ypOUBs6/BJh/ReMtxKFOJoPoPv0ODlE8+NWuY9Gi1S1xCQWuWe0xXnNbMC4lP961ohID6+JSA+Ok5nhYD4uISA+Og4nRUC4uMSAuKj43RWCIiPSwiIj47TWZkSEKh08BBkOhE1rx04SZ/ObaoCTQuIqvQnuoiAnMhZUVEJyCC/EZBBQjtnQ0CcBc2ZIyCDhHbOZkpATrbUBC7hJN25Yc5ijoD4eIKA+Og4pRXVatRCyeMzSeLlPS0Vtpxz0pKPR1oC4qEibVxWAQIykWs/7cYMK4AR+GK/Y3CiYl+6KASk0r0InIDdktsmq2iXI84wr1m9e7j3IIBSa7uyikzGSbq9DeAujyAB2fF9ON3WEu5ItTHHePbhFkDDXr2nFAA9DgSxBUhwttlornty9iBGiYsbaGDPcAS06WlTL7spDbijcFOFgBgAUd3pxZ4yvI3JZoDvD8UwzgQeAcm2AgKiBMTc4MK8IR6ipLJS9UhxwmVZYLP0qNRc3n3h2IOwB1GysV1W1eB20Q73+dXaxGS99FSryvYORMxB0FvJB5E+muY1fJNuaXLnuvbbuq7mCapimFXTg/wawrgeKUhAfNoXh1hKHavunoUeRDUJTAx9OMRSOs3hMgKiFNF8R1YOJ0yTdKXN6iEhh1ifWgMBUQKCy0zDIcMjWbVd5QSdgBicWriUgBi0tESv309wD+cL4Xn7YdyuZVk0k3PJx9zj8SlW0kUExAAILi2eSRGGQWjMpUex+6zxhv7T2R/hcTHOVrHYIyBGx2YuJyAVOmbPpHA4HEaWlCPsKiI11sbnJSAVjk0kISANOj7FDG5ozA1FyCYlID6qEhAfHaezQkB8XEJAfHSczgoB8XEJAfHRcTorUwIClRQvT6cRc13XbNASKSSjmkzjLlNBZgZEsxrZVNlOF6s0JCCd1O9sVuXcozL0WM0behDZiFWz87KzbE/mi8MrXE1ARrrEL69pAZEqzhyjVxOTl0Msv8b6CkvTA/IKUXrkyR6kh6r9bRKQ/hpvORCQQUI7Z0NAnAXNmbMAgnVKeLtsXTc0qCqXzWZbH7bb/UdABrnbBMi6rtjthmfdsoZIwt/M/sRikJxu2QCI73H4od37BQLiJvWxoSpA9iYDMIDm5xCRg8DoHYgFjOiZsYAROxuTy+IJiF5QzystgFj3SwASgQZljs8W96zDmWzJcvdDGBI3oP0+dfYgg7xuAUSKtIXltDxLloRRCE/8SfY/oNcRgOKfgyRwywa9gNz9f4Tft+XtNVqFoSyim2AYu98rQkDc3OY3xNpbiocFHqH43+3vQEr1PthLkYIpN7Tb/z01jIn/Fv+Oxo6P/O3pZ23jz7kl7DnBTeMo9A8BOQEgWWBa7pqD6j1FNtHDDgBh2TxFQAZ5sGaIpS2a9CrbeFvuwt53XG1hXnld6BHjIaUFhlTRCcggh/YEJFcF2XaKnzJ8edq9dzaIop5Ahn0yBGwFIavhuq5fWtpIr8WKLWWaMe0rANHqsD8SLJ4Ax3OC/e97+6n5hnauItft5zzy91c9zmYPom1FjdfNDEhj1S6dnIAMci8BGSS0czYExFnQnDkCMkho52wIiLOgBGSQoIOyISCDhGYPMkho52wIiLOg7EEGCTooGwIySGj2IIOEds6GgDgLyh5kkKCDsiEgg4RmDzJIaOdsCIizoOxBBgk6KBsCMkho9iCDhHbOhoA4C8oeZJCgg7IhIIOEZg8ySOiw4WqLDIPVytGmMOwYLJ2Lvi8lARnkNwKSFhrbit/3jYfl7LgSR6/VrOA9PO022LfYJiAEZJACz9lgaTzOEsxuIQ6n20q4I00hVUdBhx4FZ6RrACQgGuUdrmEP8iyi6shmwxHQpobcy26qnfTaMBXstgYXxA2qKjCIAxNPJgjIhxyqO71cviyL5hwMk03YVto1gTcYEMtx1qX2nDwZuJTI83sC8qamucGFeQOGREcfVY8UG1iWBTZLR0Kby7svZI8eJGHTo62abzIemYoNAlIJSLjb/3XgjKpGvCyL5g5cZXsHIuY66AXlg6drX1saVydAUKTi+fUt5T5KS0De1Pm2rusvVpEVw6GaHmQfRTFVrLsBAg0wL/keRcixuuv9ektQEALSBshRDwLLqmO+OMSqbuu1CTfY1nWVULBZOwSkcoilHE6Yxs9KmyjxHXuQWhhy6VQaEpAP+UzDIcMjWbVd5QSdgPihUuzhCciH2Nbo9fEE98hlKrvKybnko7r7HRXqRE+x/HD4bImAGNUtPi0JDQtPmkqPYvdZJ5/pV9ojIEbHZi4nIBU6YgKHxvwpImOIvA44aj8SLRLrvBCtsTY0KQGp9cBzOgLSoGMcfLulMTcUIZuUgPioSkB8dJzOypSAQKUwl5pOsEyBiuu9OEk/iyufyzktIOeUM19qAnJOjxKQQX4jIIOEds6GgDgLmjN3BAiesJRWqw4qJrPZKTAlIOGRtXX78CudizV4yWO3pVBZQMKES7Pn4ZUVvGvepiUsKZH4onBTpf4pVgBEs7L0ro30VfVu7j2Cb8+03L2X1m2ABCHRZWILpWavdK+K0O6bAs17NkRIw8LIK2vfDkiABPOR1n3GVxa6d90wTsawqrg8W1sQAuIwxNqLHbaZIqJH7RIJrf943ZsCW/ghTzBiYRUbvq7uB58eJDPJAySExb8JPcXk8jf/YTGsLcPIwPNzpqF4P0B2dyJZ2YqfP4f5ypmE8mwgFltY74Xh03uQOkvi2a494bBtDCAHPQy+AjRY7Adg5N9svu1dHgHhRwBiCz/aO9PR9gmIk+JRXFoBCD8BET7S8+x/OuXebEYa9v6nNH5ksC1rvyIER+oRkOa2VW8giC8GUsO31iHd/o7+/v+7NfRaLxGQWuWY7hYKEJBbuJmVrFWAgNQqx3S3UICA3MLNrGStAgSkVjmmu4UCBOQWbmYlaxUgILXKMd0tFCAgt3AzK1mrAAGpVY7pbqEAAbmFm1nJWgUISK1yTHcLBW4HyG790+NoTdL+2lu0CFYypYA26v0M6n2RQuTadjKqSbSRJl4AKEfzPp0hHsDQnu89gygsAxVIKZCMvp8DJHe02KegAcZzLegaKjCtAuu6fuIhB0guHtaneEyGk5amFYYFowK5Y+1ygMh+83iIhQ1An06CDUMshgViGzuzAtj7g0M9n6YPqNBhZMUz15hlpwIeChAQDxVp47IKEJDLupYV81CAgHioSBuXVYCAXNa1rJiHAgTEQ0XauKwCBOSyrmXFPBQgIB4q0sZlFSAgl3UtK+ahwP8BVT4EbrCDey0AAAAASUVORK5CYII=;fontFamily=Times New Roman;labelBackgroundColor=none;fillColor=#FAE5C7;strokeColor=#0F8B8D;fontColor=#143642;" parent="M2BAR0wibj0y26F96If3-27" vertex="1">
          <mxGeometry x="13" y="7" width="40" height="40" as="geometry" />
        </mxCell>
        <mxCell id="M2BAR0wibj0y26F96If3-46" value="&lt;font style=&quot;font-size: 10px;&quot;&gt;Interaction Prompt&lt;/font&gt;" style="text;html=1;strokeColor=none;fillColor=none;align=center;verticalAlign=middle;whiteSpace=wrap;rounded=0;fontFamily=Times New Roman;labelBackgroundColor=none;fontColor=#143642;" parent="M2BAR0wibj0y26F96If3-27" vertex="1">
          <mxGeometry x="90" y="37" width="60" height="30" as="geometry" />
        </mxCell>
        <mxCell id="M2BAR0wibj0y26F96If3-5" value="" style="shape=image;verticalLabelPosition=bottom;verticalAlign=top;imageAspect=0;aspect=fixed;image=data:image/png,iVBORw0KGgoAAAANSUhEUgAAAMgAAADICAYAAACtWK6eAAAAAXNSR0IArs4c6QAAElhJREFUeF7tnU9sF8cVx+dnUHoLRhVRQLVs3yqMwHa41Ads51ARqVBSxTQnBI0KUitVitpDFGgxFZZ6SBUpUiNBlNDk1GKUULhwwj/nAKpE/CfCudqWqyDBAYPUG/CrnvHQ/e1vZuf/7uzudy/8+e3Mvnn7PvvezLyZaTBc0AA0INVAA7qBBqABuQYACKwDGsjQAACBeUADAAQ2AA3YaQAexE5vKFUTDQCQmrxoNNNOA94B2f/WmTE7UVDKtwaebH2ysvCPv6z4rrdO9XkBZHji/eOMNc4yxvrqpLzY2/psy9N+AOL2lpwBGZo4PdNgDF7D7T0EKQ1A3NXqBAiFU88arRl3MVBDCA0AEHetOgEC7+H+AkLWAEDctesEyPDE6VZahBZjTXexUIMPDcxPT437qKfOdXgHZG56yqnOOr8MtD0+DTgZs8iDAJD4XjIkstcAALHXHUrWQAMApAYvGU201wAAsdcdStZAAwCkBi8ZTbTXQFSADL79Xl/X0y7Mytu/T68lu1pdK3eunK/1sH0UgBAYjadbLiFlxat9O1dGc1p1n0spHJDnXmPLsvPbRAXeNQBAGCsckOGJ05cYY8e9v11U6KwBAFIwIPAezjYctAIAEicgtMCn1h3DoFZvUnmjsTp3+fykSZGq3VtoiCVKl8dXq2omVu72AJByvz9IH1gDACSwglF9uTUAQMr9/iB9YA0AkMAKRvXl1gAAKff7g/SBNQBAAisY1ZdbAwCk3O8P0gfWAAAJrGBUX24NAJByvz9IH1gDACSwglF9uTVQKUCGj56ZZK1Wbwt7BJfbKh2lbzC28mzL03M+9iWuBCBYcOVoUdUsvsIajc9dky0rAQi2QK2mhXtoFXmScRdPUnpANo9eoEVXuKCBDg24ZodXABCsSAQXmRpYmZue6rfVUekBEYVXI6NjrKfXWie2ukS5CDTwzy86gwmX7XArCcgvj51gPX047CoCe81dhA/+TAedtV8AJHXCFQDJ3S6jeSAASb0KUYgFQKKx19wFASAAJHej8/FAUd9g5MD4i1A46/dbszNsbbX9sN6e3j42Mtp5PhAAASA+7DX3OkSGyz39o/V19slHH3bIxH+/ce0qu7sw3/b7nsEhdvDwkY4yAASA5G7cPh4IQDa1aDJi4GPbH/RBfJhv+DoACAAJb2UlfgIAASAlNt/woq+ttHey6Yl8ror6II/X1zuEyPr95e5utq27G30Q1atDiKXSUL1+RycdnfR6WbxhawGIBiDjP32DvfLqq4aqxe1V0ABysTQAqcKLRhv8acBkZDX91EomK/pTLWqqggYASCpZsQovFW3wpwEAAkD8WVMFawIgKUCG9v6YvfTSDyr4qtEklQb+fWex4xYAkgLkg8l32fjuH6p0id8rpoH7/22xN078EYAkNSCaKAQgFbN8zeYAEIGiAIim9dTgNgACQGpg5vZNBCAAxN56alASgACQGpi5fRMBCACxt54alAQgAKQGZm7fRAACQOytpwYlAQgAqYGZ2zcRgAAQe+upQUkAAkBqYOb2TQQgAMTeempQEoAAkBqYuX0TAQgAsbeeGpQEIACkBmZu30QAAkDsracGJQEIAKmBmds3EYAAkA4NfP/gIbvebD8aQMfEdu3oZq8N9LNdO7br3F6KewAIAGnTwDdLy+zkuU+tjZfgmPzNLzZAqcIFQABImwYO/favjDyIy7V/oJ9dOPuOSxXRlAUgAKRNA68dPeNsnAAkW4WV3FmxLps2AJB244YHgQdRepCR0THW0yvvU6Q3d4YHgQdxDkNirUDkQVRHYKePBwAgACRW+3aWC4AgxFIaUZ33xQIgAKQygNCcxcUrN9nOHdvZyYlx6wk6qufOd8vs4vRNoW5MQyyaC6F5kEOjQ07zIXzCkiYgD40NK99biBvQSS9pJ/16c45NfvzlC+lNJui44d17sM6oHtVlCkiyPltY0hOWVM+FyV9ZfwRUbZT9DkBKCEgaDt4EFSQcDJmnkBnJr3/3rvD0V34/jWKJTpxN18dhUXk72Wx+EZAAkJIBIoMjCxJbMKhOGuIdGR3P/ADTkcs3rn2lBQlVRIb+s7EhdmhsqMMjqFJd8oYEgJQIEBUcIkguTN+U9i1kVk9nhQ/sG2QD+4YyPUe6PIGytrrM/rO6ytZWlhn9O+tKg6KCI9m+vMItAFISQHThSBqRbk4VB4ImA3v6+mzD9Y5yBMjS4jxbWlzIhIWHXjr9obwhASAlACQLDjJuulRfa5HV8xlyn1DI6KI+ytK3C+zuglkaPcnW09vHbs02O6rOI9wCIJEDooLj4OE32cvd3UZ9AJ1+hTc3kqqIQL79dVMLFIKDRtDoujU7UwgkACRiQHTg4F9/nY5ykWCI+iuXv7gk9XxJOHjZIiABIJECYgIHbwJBIjI6CsPI0+QRSpl4Ht5HSYdPIjiKggSARAhI1miOytiTIQzvfKuGaU2MOsS9yc48jZ6p5M3yJNf/9nuvIgKQCAGhGXLRiI4KjmRTyOh4B96rxURS2Y1rV4X9mItn33FKb0k3D4BECIgsvDIBJBI7DiIGjYil16DwB9F6eJ95WwAkQkBo/uLcx1+yO0vLHdLVHZIsOEKsQwEgEQJCIgGSzheTBQfNifjuf5AEACRSQABJ+4spAg4AIomQY1owpfIklGkb4qJO/uPN3Kq11ZWNRyQzdvkAAE1Sbuvezn7U28v27BsKIcpGnZ989KFwziREWJVsBDxIxB6Ei5YFiWqthonF8uFWAkInfT1dN0FDwFBqiGqo1kQumfcIDQc8SAk8CBfx1LlPhZ121VoNXUOUzS3olhfBojOnoVM/gUseJH35HtIVyQIPUgIPIps4pC+2a4jlG4xQoIjmPeBBNrU9Nz2lvRnd/rfOjD1rtGaSL6rFWHN+eip71U+iQEx9EBJL5j1cwiud3C2dr7vuPQTz0WMnrCcvi/Ii8CCRexCZ98jKV1IZrSxnK12OL2jav/v5pnHJDan5WpN799fZ9dl5du/BQ2EImKzTFZK7i/Psxr+utokZ2osAkMgB8e09soZLuSpOTrwuXA6rAk9naa9LfpjM64XsiwCQiAGReY89g0Ps4OEjKnvt+F0Fhy0Y6QepQHHJBsjbiwCQiAGRJS3ajFzJYnhqvmo3FGMSNwsQKKcmPxMep2AbbuXtRQBIxICIzuqw9R6yrXlCpWhwtaogsRmFE3kR8n6nJl63ZVlaDoBECogso9fGe8jgCN3BTUJycXpGmMJvA7zIG4ZqCwCJFBDRdj02xiT62vKwKkRyn+xT7DsbIA19KE8IQCIFRBRe2awpl3mPkCM/WZBQu9KXzYSnaMAhRJsASKSAiHZZNw2vZN4jhCHpBv+ykTnTSc+8wiwAUhAgFHLQJJvoku20/oc/ndO1w437RN4jVKxuIphobsfGi+QRZgGQAgAx3SWRRDTtf8ToPbiqfXkRkzwyfna76ZalACRnQMhziOJw1Rf44M+PGK23KCq5T9UO/rvIi5j2sVQTnyJZTDvzACRnQGy8B4lo2v8QLTDyvaGBLgyi+0RexDTMypr8zJLNpA8GQEoAiGl4RU1KH6xJ/0fDujzUcDFuH2VlntS0sy7b/geASDQQe7q7yIPwlXiiJtmszhP1P2grHPIgMV2iMMsUkOQqSFnb0qsj4UEiXg8iAsQ09lYZuajzGioVQyVL1u+iyVDfunCdL0GIFUGI5dsoRGFHTP0PrnIAYvF5GZ443UoXq9KKwjw8SFkAEenCpr+VZWbwICntlLEP4tuDiCYITeJui++aVRHRSJbLSkmREAAEgHTYRVkAgQex+K4gxLJQWqoIQqz/KwQeBB6kgyiMYgEQ6We2jH0QflBlulEb23pu2258MlTe67ZtfZ5oSbFpSg09m8+FiOR4/OhRxzkiJv0xDPNGMMyrMjDTTrworDDNQVLJ5ON3Hyn9NvlYAKRkE4UqYzPNUaL6RKkmJoahksn1d1lOmmlKv2xT6yz5TPQAD5KzB8k6fzDrpZqmYIhGsmJKNxGFV6ZzILKUfhW8JjlpACRnQLLWZme9WNP5AVmYZboeQmVstr+LwivT/odNoqLpgjEAkjMg9DiChDzJ9w/EKwrvPVjv2AHENMySpYLH4EV87fclCq+or7XrlW4ht8O7+423BgIgBQCi89X1kekqGu4lAyrai4i8h+lAhKyf9c3l8zrq1b4HgEQKiI9tf2RexDTM0LYmjRtlew2bds7zSukHIJEC4mPFHTVN1pEtIv1dBD3JaOM9RIMQITKWAUikgJBYPsKsrKMO8oTE9yFAea2YBCARA+IjzKLmyUItfv5HiD1tk2rNWodvOnxN9Yr6VqEGHwBIxIDIwqyDh9/0kn7Cmx7Sk8hGrOjZpsO6XF6R9wgRXtHzAEjEgMjCLNM5Ed7ErH2kfB+BoJrvsW2DbO7DZPJPYyzhxS0AJHJAfG2yxkOtpcV5dmu2KbURClUOjQ61HbdmYlAEhmwnd16PLRyyvKuQHhCARA6IzIuYThzyZvLM1yxI6F4aCqaJNTqfMHk2oQgWfqLU3HfLynMKbUas+DNlG3H7nvtIthGAlAAQ2R5StjG8rKMr8xR8dnrnju0bt+zc0c0IBrruLD3/U+ey6ZDzeovwHuiDSN5qbMdA+/YiSW9y49pXLL1vlI6xm9zjciYhf44sazek9wAgJQIkhBfhzafJxNuzzY3hYJ+Xy4m2STlkk52hRq4QYimsIEYP4vvE27QKCI611WW2tLjg7FF8gcFllI2+mazrsAUffZAS9EGy1pC4xPUyo7GBhS8bHtg3xAgQn5es/+F7aFokMwCJHJAsOGyHS02Ml4ddj9fX2aNHDzeK0t97evs3/r6xbt4zECL5ZF4kNCQAJGJAiobDBKQ87i0CEgASKSCAQ4xc3pAAkAgByTqFKo+wKg9v4PKMPCEBIBECIst+tZ09dzHGvMpSX8ekLyPLyfK9GAyARAhI1tqJgX2DbGR0PNNuadSHJgB5J3rkwLhx9m+eYCQnK3VSUbKOXvOd9g5AIgSEQqxTk59tbO6QvlRzDLIhUR+z2T6hISO//XWzY9dDekYWJKpzCX3PjQCQCAEhkWwg0dllkPae+smBMaNwxjcYqoxiGSR5w0FyAJBIATGFRAcO3lTyJj19/bmDYnKuOcma3EiuCDiiBITSPNI2Oz89lR10JwrEvnm16ddYx5PQpB2lgttcHJaBvYPe+ynJAzZtEyK5x6NkRdnlO6xKPic6D2LzkpNlqgaIjieRJRnSLLOoHyPTMT9tl07WJehoSNn04lBQTpdu8iPJSWtOaPTO9AoJR5QexFRB6furCIgKEpHO+G7ufDHTxembxqolYI4eO6HVXzENn0iY9KYRsm2BZO2jbF7VYi7jRqcKwINE3AdJi5YVbiXvFR11YAuKztyL6SbSWbup6EASOv8KIZbisxJjujsXWQWJ6hwQG1BUGcO6RxDobjOUBUmecCDEkoASMyBZ4ZYKDpFHut6c31g+m7V01gUQvrbddO8tESRF7CuMEKtEIVZS1LQnMYVDBAvN4NOOJOmOvQ0gPlb7JSFxbZ9tXwSAlBQQ7knu3X++TNZXZ1W03alqcwhRiOVrnyoOKwFSxAVASgxICIOJDZAQbTSpE4AAkDYNAJB2gwAgAASAZLgUAAJAlICo1mmIZsx99UFMwqEQ91YOkMG33+vrerrlbJuyGo3VucvnJ3UVGPswr247bO6TnQBlWhcAkWusYarM2O4HIPrbicreHQABILFx7UUenVQP1YOKmrNQyWXze+VCLBslpMvU2YOozvVQ6TfvVBCVPK6/AxB00oU2ZJImn6ygqAk9VxBk5QEIAAllW5WoF4AAkEoYcqhGABAAEsq2KlEvAAEglTDkUI0AIAAklG1Vol4AAkAqYcihGgFAAEgo26pEvQAEgFTCkEM1AoAAkFC2VYl6AQgAqYQhh2oEAAEgoWyrEvUCEABSCUMO1QgAognIvr27Q70D1Bu5Bha//a5DwrnpKet1T9YFY9HT8NEzk6zVal+VGItwkCMGDfx9bnrqhK0gpQdkc9mu+7I6Ww2iXNQa6Go1xu9cOd+0FbL0gFDDhyfeP85Yw+7QDVvNoVz0Gmgx1jQ5r0bUoEoAQg0jT9J4uuVSg7Gx6N8cBAytgRXWaHxusvmHTKDKAMIbSKBsfbLV/DSZ0K8M9eeiAZdwqtIeJBft4yG100DlPEjt3iAaHFQDACSoelF52TUAQMr+BiF/UA0AkKDqReVl1wAAKfsbhPxBNQBAgqoXlZddA/8Dr0lzBEMgmGoAAAAASUVORK5CYII=;fontFamily=Times New Roman;labelBackgroundColor=none;fillColor=#FAE5C7;strokeColor=#0F8B8D;fontColor=#143642;" parent="M2BAR0wibj0y26F96If3-27" vertex="1">
          <mxGeometry x="53" y="4" width="46" height="46" as="geometry" />
        </mxCell>
        <mxCell id="M2BAR0wibj0y26F96If3-47" value="&lt;font style=&quot;font-size: 10px;&quot;&gt;Back-end snippet&lt;/font&gt;" style="text;html=1;strokeColor=none;fillColor=none;align=center;verticalAlign=middle;whiteSpace=wrap;rounded=0;fontFamily=Times New Roman;labelBackgroundColor=none;fontColor=#143642;" parent="M2BAR0wibj0y26F96If3-27" vertex="1">
          <mxGeometry x="9" y="39.5" width="90" height="25" as="geometry" />
        </mxCell>
        <mxCell id="M2BAR0wibj0y26F96If3-72" value="+" style="text;html=1;strokeColor=none;fillColor=none;align=center;verticalAlign=middle;whiteSpace=wrap;rounded=0;fontColor=#143642;fontStyle=1" parent="M2BAR0wibj0y26F96If3-27" vertex="1">
          <mxGeometry x="72" y="12" width="60" height="30" as="geometry" />
        </mxCell>
        <mxCell id="M2BAR0wibj0y26F96If3-2" value="" style="shape=image;verticalLabelPosition=bottom;verticalAlign=top;imageAspect=0;aspect=fixed;image=data:image/png,iVBORw0KGgoAAAANSUhEUgAAANUAAADICAYAAAB/CKTGAAAAAXNSR0IArs4c6QAAF9NJREFUeF7tXemV3DYSbr6ZPDwbiaVIvIrEUiSWIrEUieU8mo/7igJ6OWySqOMrHCT6jw6CIFBVX10oAMOt/zoFOgWgFBigvfXOOgU6BW4dVF0IOgXAFOigAhO0d9cp0EHVZaBTAEyBDiowQXt3nQIdVDgZeHt5eflA3Q3D8DZN02+h67fVnz9vt9vPYRj+naaJ/qR/3+73+/z/uOH0nkpRoINKSfmXl5f/LsBDYIrgUfb4eO377Xb7No4j/dlBZqVmgfc7qPhEJ0v05+12QwIo9fXvwzD8uN/vXzvAUqSq53kHVYIXZJFut9sfAUwlOdcBVpL6gm93UG0Q6/X19cM0TQQkAlSNv6/jOH7p1qtG1tz64u+KLeTi/VWBVWJJyzAMX7pryCJV1kbdUgVyBzDVaplSQvGpJzZSJMr3/PKgCjETWafWf5Qp/DKOIyU1+q8gBS4LqhA3xWxeQRbAP/19HMdPPd6C05Xd4SVBFQD1N5tK7TX8OY7jxw6sMoy7HKheX18/T9NEFursvw6sQhy+EqiayuwB5YGSGD3OAhI01dUlQBXcPUpGoEqJjug6lxfF2r6thqG86ffFeFzH1VPvKRhgn18BVGSh/sGS7V1vZAV+WFLaBHpaGwsLzl4A6wkMRyFYdn12UHkBKha9wt0qZ4CRBf10v99p/P3nRIEzg4oARRk+pOb/OgzDt1xC6Zj2X7qocYsKidh6m8ry/2YgUoFvkMXvfbvKNirPCip0UqJorZ0juFC6Olq+vmWFFA+KqjX1EyzUvGHQ+KPKcKqvq8JdypxwsZAu0u2SGy9PByrQOlTVscei6Bfp2lpAdJgNDYrpMgA7FahAlRKUJaNqhKp/DVmtBx2vkto/E6jMmb7A9M9Vo+n94MxzLjDX0xf+ngZUxq0bVbt7W4Ifquup3KoFF3BrClXFq0jlcgpQGd2+pgDVQCZQKp9FM6vSwXLanwFUFheoKUAZrTFHHkq2Oc1Gy+ZBZcj2NQOoE22kTIH2FKVUrYNKbaWGYfhYy/rTnqSd0NVLgYqeNw+spkGltVINZPnQFSEcYa6pTdN7wVoGldZKVb0OpVUUBkRQPeN8BHWotKeuNk/GDZbzbbV1xS37OI7jf1rcvdwsqJTCR4JDjKrulzFFToChdDakMHjhohK4PADW3CbLZkH18vIySZFRo9uXMW5yT117VXnUyLcj2WsSVCexUlniphKlQR6KooXEUgRai6DSxlLVuBFKpSA1zMXni7ZcrcRYzYFKuQBaRSyVKW4iN4/O/avmB6yqbyIr2ASorBcGlPbJPdyhDcS4x0wWlKKsVmlecmhQLaiCVqcTh8z3QY3jWGyewA2Te/xsqjAV4frWDqxiwrYnIUBXIX6iyLoUQngSWrHZLRSBNnRVkToFX3N8VQuo4i2FHrduZA3Yc8RNtWtqjosEcAerja+KgsoaK3GYl8v163EThxtPbUwnXtWqXIqBKkOsMZfb5KigUGYkJVLYVNwkmRi5gJaj5Gp0A7ODCmD22Tzz1mQ54qYrHH5pkQlvHrOFbdEwK6gyWafH9LwIbhECAZOyxoKCcbk0tSQvarNWWUBl3O6uZiK6tCVH3OSlCNREzPii1vLXRjN3UGkJheAlMkmRYR7Nb85D8CxcJiFOtddkrVxBlSGAP+IjKknhXfjazLZ+BGgYfagSFzVZKzdQ5Y6fNpgFAZXzPC4VNzEANTfRegW1WCsXUDkLIpc35koKLXMZAyxe9LrcxUubFmu7wUPjBtZireCgcgQUleVIfG2z4GoYmwBU8fWmhKIoPr5IP6VCMytShkJMNoGCygFQj8prRd9WUGn3bW0RvXjcJBTSKpImGqVWgwsIAxU4KfGkMVsFVWmXxFKLWGLX8FIjCRVBfLV4nAoBlXLyIo2eG1SAtbWi2h64pla0Gl5hraweStK9SzUwgwogfPMYUxq9IVAVd/XAXkOUoSJKQjMX5PpkCkBbz82gUmiS9ThYQtgIqIq6HpmOh866w1gzp9JxlQlUALePna2pHFRZBW2tlYCunkQxZ7tQQKG4iyo3NagAbh8bUMTpSkHFsrISSRW29a72SA0nSwpewXuRbKUmKX2uBZU13SwOJhWEFX9jlXn6ME3T30cETcWBUmZI2gO8BMnnUm1d4y1lXFXsyGgVqIwMVQm7FFRWgWda4uxuhiVFnkIG4LmLG9xaXKUBlcVKqc3y1UFVKG7S4gwabzEV3Luxorf9SAghBpXBSpkKXC8MKlTc9LAiOc4GCZcgfEHdAaY4Oz+7FxGBJwWV1kqZAKVJVJzB/TMosKVi3U0mZLJ+kHhLkQFUhRkSi7TXVgQqTcAYFnbNtxZeyVKB4iZ2ZhL0vUN5tJY8nRVUWisF0RhXABXKcmittOWcCKaGV5c8nRJUSlfE7PZFZp0dVFovYCXMiOyb58Gmcbhil1DK/3B38Ecm2KHN2O6fQlMk6/kkM5ESVaut45iYGSdzMKxJF2/QDb4Ii7KaCR6zlYCU/y2ASuP6wazUGRMVIKFlx00SBbZsmyPeut1uyRT86UClcf2slmItBFKiWr/vaKkgKXLr/KQgyxFvHR0cKuV/9ZZKsUZwQ5ffS4lqFToPUGmU05arFy5127xBXgoWYfti8ZYi/IAkyIT0mZtzYiqx62cV6K2JtAwqBxeKHYtohCL1TqYTet/NUarYPWQwRRf24q9Gu3qUiLQIKlDctMfLmJ7+ThcxcBmObOegLNbDm+c4DMPPVHHz+sWqQSUVZq+bNqTjsBLV6P5B4iYmAOCZP+Z3H80cLuqTDuGpvYdi5w4q6f5Jza5XgNgKqDSWncusRDvx2g/ou3M3zlZZPNSaQVVFPEUUrR1UGVwhlmBZy4FYHzlolCneSg4TnShLfnDR4NBSaRYmvc4HqBVUwd//M1z4LaH9su0jPnp9fX2bpgnV31ftgKzvZUjBHw0RukYqpcUhqDSujJeGqBRU0lNzt3x/2h7xef0ApPGLuoThlkRSEB53Oe/KujWeloLoKUly1IECVG4aolJQWejPSouDND7rW5bJJOSIjib4S3hst3o4JeMpGnTK/aMzGj4IZqfe2Zv6xolApcnWoRZdk+VAKT5YnueKO728Je7cU6CauB3NCB2GTVdG0sde25OAylSAC8qwqbdfIPhIfTin4N28Je78O6h2KMVcp+LSGVoyA9L4ReMtkILYov+5QBWqjV0yTo1aKlfBBWn8ovEWSEG8A5dXBpqrQaGWqoPqQXb3LRkLBp8l3qJEBsXvkjvINuXcMwzhAKuDCu/+meImDtO22qBS8EEgqZ4w+w80h3ncJa0VFFSeqcwG3D9o3KSVaJA75eq2puYGOlqAYivaTp+92LglUP0jcQ2sLoAgUZHT1UvJ4+M5SDCLxVsIq2WVATaxVw1ToBIJsnNMJRqLlaBMUBXPNB0xXrF4v5lNo+0X4ziW2GJC8SKtlarjLKscaIDVQWWIqUowTMpkxS6DvU9oFq2lw91sr9j1WzQbmAKVtKLCLa6QEtYq8ExLVSQpIZFUKd0YfReJt4zurFulzxa9UqCiNKekGLKDiiGVOZs4gGoefoktJhZ3Nmc2EA0qN40gFY5uqX5BV0o3IeCzlzwZ5uMmm2uapUBFVoqsFfvnpRGkxOygYoMqppzVyQD0DR8JYbMkL7K466n9VMnbBJ9QOgzmywi2iNpBxdZr7xoyEhWzy95YyZMWWFnWrjhnVGRNZe+JTgeVL6hC76gDa9y3mBjiK3drxQGVNAPo4rtKKyput5spaXKi7F9q+84TnRALr6GSgda3XAqsDfGii3wuVV4SVBqN4BFXaVKqlnGcCFQpT2NX+dRe8sTk0ZOJt8gFx1/ggEoTV8E3K2oOoQlnEKrqv5gMc3clOEw8asNwm5MWHRRvudBKo2ytSawUT5KgUppZl4CQISB78xXXsHVQvSclYlOhkzBrkhYu8hkpxgWVdBGYFgfhWUCNK7pCGTuA7qDa1k/WeMvD9dJYK886VRaomAK25oJLQAgAFquGjTlnF5cm5V5InjOse9L92/qe9pQnD2ulDA1U8+bQngUqpQtIr7kIXY4AuoOKIz43jesFv2ZJKZ8uSp/GwgaV0kJ4+q6obeSb8VYHFQtU8Qx1WnZh/zxcQI18eoxDCipxFnD+gOOxZdS/1cdfSMK7eOtEoEqtM1rdIPF5+x7CzOTXGvgunhTbUgUTK05Y0HseRFxTB+USxjMamExyYQpb5TMaMoL47KDySGIpXUDr3Dc5IAJVOBtbsxPT0w18NzHQmko8+CR1Om8H1W2Oq2iBmf1zBFXKKmdJpklBFU8XleyxihMRrxWxufTcEBVvpYZQPagYsYZVW1cDKsZcn/jpcUS0GFQGa+UeX60pBoy39sBVPagu5v5VsVVJAypKDnwOdyilNPnTc+/ExdaAQPHWVtdnAJU1tVyTpRIn0zzifRWolEHhQyhLbMVeJFogp6CGydQOKo7AZweVhyAHfnDm+045esR3alBZrBXNqhSwEDVsC65Y4xGxpZe8wOTRmUBFMX9qq8uahHDFqAYVjYzJtCM5KHIyTxg75CKyEu4sE1hcrX02UKW2uqwtFXxHhQlUVjdwMTu4tmAKHmk2Cm7pCk3TGQ20Jb3EEcNb82SuscVXO6g2roflys9WOzOoLNnA1YByptyfaIFY3yrl0i4no/AeOqgqBBXCDYxykf3Iq5VAkkuIuhk+6zHJBovbQVUjqIBu4NIlKeZOgda3WFtMLG5GoLvVfT0bqESJCo+YGOH+zXKhcDuS8lTandLuGVpNzCUZY7BMa7p3UNVqqTxAFbhf1CUMMWN0CS3JDPau4yNtA14SoE+dCVTcjOeSxPAkWdWWKofGT5rL0AAkzCar5aS4rKASrw31xV+m1CnO5WP2/NSsdJbQGsPQhETaEQToPXqfBlSabfUeAIdZKsVKthZU9F5plzDGkH8Y1rdYVotREGuhI8L9q8ZSaSx5LVXqW0zU+LJWYYgCUSxLuIi3NFth4vy/DsPw7X6/k6KYLwsgy0Q3tWuLlmMsOgzDp2maaGPpUSx4Jksl3UTrchMmxFJpNAQCUYs+irqEoBR8tMCWZEgkycO9ZJymdCZQiUqUAEmaTTGGgCpjPJXCIiTDlvrI3nNgmls7hKcC3wuBSuwteaxREePOBqoaXMK4Oxq5xSQFst2F5quASuMteWz7QIJKtIpNZjdICbk6CHdnS+iKuoSgeCsFpp8UN93v90jPp/aZQCVyuzwybhpvySNJgQKV2OzGlDIwFjkSvqIuodccua7LhUAlVewuSYpioFqb3QyxSC0peKrMsP5EFvgKoFK6fvB9VJGx5phKuHdn/u6eL4vYfpGQWNbakFXq1++DlIaqQPcKoGLM8YmlXvEUxFJpVrGPJuRcPRCJK9L2WpCB5pKMm47GxxA4REq9ZEylCT/cXL9ioOIEql6xyEoAveItyN253LjpyqDSVJwg6HpEc7P7p7FUHFDFQYO2XxzRABpvafz7jcHBLGkmSyVKEkj4f8Q4TehB/Xll/WAxlTeoYur95eUFsf3iiEemeKtk3FSBpSoCKobC2CKNq+tXzP3TBomgGCUVIomsBHBMosr11CTic4bgIWKq7KAyeAQudF7yw+z+aUywFlQLQUFsv0jJZTLe0vjzO64eFQW7/E4KKk1ygujrbqUglipUDohufZDuJ9qTtlLxlsbl3ZiDyd3kIvCEoFLd3hjo5W6lUKCiWjdRShWcfclxw8e8RjRNE5VU0R6q1BU7h4mRVGkRFzCcdgzeNOX+acqRAp2yWKlioLrdbvDjkjOl4DlyvNsGrExYYzkTqAyA2i04YBFR2MgcU9H3FJN10xqgLJyQjMnmouRHsjdBA8aO7CYslTF+Nc9RQHLM1g9NJga1VrE32QwlTxw6q0qLOB0z23ACerPAMYD7brhS3iuUtul7TNrueyTWDuj9EhlAzriB6W7O5961sWY4xR9cvSBQdFZQcYCrFnIroEq43BD3L7iAomSFR1y1J4g5460STFzOW+H+1goqRKmXdW4q3YYElfTQjSy31hsFTkLULCnyhOLQnANvEjyNl5Jy/wRW9og/bnF7SiiQoBLft1rIRYopeNR2d1MVeYpBnOclg3gwqBDWaSZZIdn69W0O07htpAFrThdwPQdQvJVlMXGP/qBFaNPyhmYMW5YKZJ0iqYryBQ0qaVyV3QXcAVfqbLz1ayZB5CopB1fvqUtrDKgBw9KKaECZoF9R3nhYKnFcZWWqVUDj+8wAPx58uXvQCmo8O/3A3KPYv5X+WlCF6hTrDZZrMpniQxTvoJZK41/TRFKBK2qynH4CuOJxzlSWNF/eNo7jl5LXj2qElzNf694ir3Fxxr5qUwWg4JaKOmSUxcBdEAUDmnnFeTnA7CoZkyQoPlQDKBdQaTVXTdYKxWljP3BXbzUeSMrZujhrpBFl+dxORdKODer+LeITccIiuFgfS7pYWiKi38ug/c0WasHrv41V+xbyFc3y7Q3cBVRaa1Wj1rFwXPouM1ki7XbZHr6mplhGsYz/8W7JdajUBFxApY2taktapIiHeg5aM0sNx0Ori+v+UoNkPC9aucIYH3bxd/lBrbW6GLC84yYiJ8zV2xCo3KDyUAwcnIjauFkqi7W6QnyVIW5y33ZiUZwiKf112XfJy/1Ew3UFlZHolJ06XeLCoYJgzXB43LQnUUb+cgTVXTFwBiFt4woqo7Wi108DrAxJCKJXVvdIsybJFNAmwRTn5g6qcNoSpV2191Bl07xMhouaZUpCeMZNe/P1iKeaBlNOUMWb3K3XyGTVwiLkbDfOkYQoJoRA14/KwL6N4ziXgwHoXryLHJZqniSCCWEd62vtxEfMNSEZxa230fU7HZCW/MoGKkB8FcddXKD2BD5H3FTJArnW9StmWXOar6ygAsRXS9oUO/ZrzaCMcVPRSvk4b+VyAKTWMCc4tN/KDSqIG7iabPLMcy1xUu8ttolYTqxNfaY27a6yUjWXFaUYIH2eHVSo+GpjotksVyYwZU+Rc4RHY6UqcVk504O0KQIqR2BR13F3LmWSYNmkAKTfQ0W2dnmAxbRahfAMm1BZDDA2KgaqBbDiLlvjVDZfj66TCmA5gRRGX3U5jjLjd5lYKkpgUVAFYH2Ypkl68IoWgPPZEsMw/NjqYJqm33JYoo1v1xY3PQ3RsEzQ2vqiVrYe7xUHVQFgmYkG7qB6odO6fbkuWQPzw9xdFaAKs7Bc5mUmRIEOSpQWiadpAFSVW93FBFC8UBOo5uGXPvNAQUPpK9W7eosJqdLni/iQdhlc7lcdqE7sDlZbCbIj9RZAVXXsXG5UVwmqSIQMd/pmoXetKfK9yVuPRWttvmghqBpUi1iLKtzpAoTWftkWpFGEscRQYQyXS6Gvad8CqOYxW7UnSugE/dDa2JeWtjQY0uYPslypHGlPFpoB1cIlpHWteAa3a2WDAEBHTauPpVAFwVd3+6IQNAeqpfQuhIHAVTvAqnQFEdbp6tm+Zt2/lNVoBGDVuITgvV+Xj6OW8tm0pUpkr96GYXibpomKYKMVq8WaFdv5CgYTsaADaiWIpwTVgVV7e319JaBFwD2q2IdhmP9+v9+Xle2PvzsII30uC7iCFafCZXgGtScmnqXtaqBKeZGp556lVKaK+vXAF0BC3W28/kT1CZgUM72ed1ApKKvcAiH5EgGMKum/Lyzn0d4wAvuH4O7mqLTvgDrgZgeVRNQXbTU7YJWferIQi/8oESOe5oBTED+euumgMlAWmI42jCLrq1XdWJh15oKPdVAJiLXV9Cz1iSky9IXdFIX+/7yDik+r3ZYNllBJZt3jJwm1aGe5sH1vfkCBE1qt7u4pJL6DSkG0o1dOYrW6dTLIRQeVgXhHrzotFjuN9l231Z+ZkYMIlm90UFmox3i3FXD1RASDmcwmHVRMQlmbVQquWCZFN6n0H4gCHVQgQnK7oZiLzhacpsnzENHUcKrchpIadCvPO6gKcmoBsFhJ71UhQZboR0u7kAuyxfzpDiozCXEdbICMOpcCbb6RcBiGf6dpopKi7trhWMTqqYOKRabijeYtKzSKsG3lXXEts+i2+CSuMoAOqqtwus8zGwU6qLKRun/oKhTooLoKp/s8s1GggyobqfuHrkKBDqqrcLrPMxsF/gc013bXnk867wAAAABJRU5ErkJggg==;fontFamily=Times New Roman;labelBackgroundColor=none;fillColor=#FAE5C7;strokeColor=#0F8B8D;fontColor=#143642;" parent="M2BAR0wibj0y26F96If3-35" vertex="1">
          <mxGeometry x="197.15999999999994" y="88.31686046511628" width="39.70779069767442" height="37.281976744186046" as="geometry" />
        </mxCell>
        <mxCell id="M2BAR0wibj0y26F96If3-51" value="&lt;span style=&quot;font-size: 10px;&quot;&gt;LLM&lt;/span&gt;" style="text;html=1;strokeColor=none;fillColor=none;align=center;verticalAlign=middle;whiteSpace=wrap;rounded=0;fontFamily=Times New Roman;labelBackgroundColor=none;fontColor=#143642;" parent="M2BAR0wibj0y26F96If3-35" vertex="1">
          <mxGeometry x="189.75" y="116.505" width="47.12" height="21.375" as="geometry" />
        </mxCell>
        <mxCell id="7gXZhZWd5zdu9qHWoEP5-137" value="" style="html=1;shadow=0;dashed=0;align=center;verticalAlign=middle;shape=mxgraph.arrows2.bendArrow;dy=3.08;dx=14.76;notch=0;arrowHead=19.9;rounded=0;strokeColor=#0F8B8D;fontColor=#143642;fillColor=#FAE5C7;direction=south;flipV=1;" vertex="1" parent="M2BAR0wibj0y26F96If3-35">
          <mxGeometry x="185.76" y="132.5" width="38" height="30.5" as="geometry" />
        </mxCell>
        <mxCell id="7gXZhZWd5zdu9qHWoEP5-145" value="&lt;font style=&quot;font-size: 10px;&quot;&gt;Few-shot Learning&lt;/font&gt;" style="text;html=1;strokeColor=none;fillColor=none;align=center;verticalAlign=middle;whiteSpace=wrap;rounded=0;fontFamily=Times New Roman;labelBackgroundColor=none;fontColor=#143642;" vertex="1" parent="M2BAR0wibj0y26F96If3-35">
          <mxGeometry x="168.51" y="153.5" width="66.49" height="40.5" as="geometry" />
        </mxCell>
        <mxCell id="7gXZhZWd5zdu9qHWoEP5-146" value="" style="html=1;shadow=0;dashed=0;align=center;verticalAlign=middle;shape=mxgraph.arrows2.bendArrow;dy=3.08;dx=14.76;notch=0;arrowHead=19.9;rounded=0;strokeColor=#0F8B8D;fontColor=#143642;fillColor=#FAE5C7;direction=south;flipV=0;" vertex="1" parent="M2BAR0wibj0y26F96If3-35">
          <mxGeometry x="189" y="55.5" width="38" height="30.5" as="geometry" />
        </mxCell>
        <mxCell id="7gXZhZWd5zdu9qHWoEP5-150" value="&lt;font style=&quot;font-size: 10px;&quot;&gt;Few-shot Learning&lt;/font&gt;" style="text;html=1;strokeColor=none;fillColor=none;align=center;verticalAlign=middle;whiteSpace=wrap;rounded=0;fontFamily=Times New Roman;labelBackgroundColor=none;fontColor=#143642;" vertex="1" parent="M2BAR0wibj0y26F96If3-35">
          <mxGeometry x="174.51" y="25.5" width="60.49" height="32.5" as="geometry" />
        </mxCell>
        <mxCell id="M2BAR0wibj0y26F96If3-76" value="&lt;font face=&quot;Times New Roman&quot;&gt;Extraction Module&lt;/font&gt;" style="swimlane;whiteSpace=wrap;html=1;strokeColor=#0F8B8D;fontColor=#143642;fillColor=#FAE5C7;movable=1;resizable=1;rotatable=1;deletable=1;editable=1;locked=0;connectable=1;container=0;startSize=23;" parent="1" vertex="1">
          <mxGeometry x="95" y="214.5" width="197" height="187" as="geometry" />
        </mxCell>
        <mxCell id="M2BAR0wibj0y26F96If3-108" value="" style="shape=image;verticalLabelPosition=bottom;verticalAlign=top;imageAspect=0;aspect=fixed;image=data:image/png,iVBORw0KGgoAAAANSUhEUgAAAMgAAADICAYAAACtWK6eAAAAAXNSR0IArs4c6QAAEuJJREFUeF7tXT2spkUVnoslFSCuHQtRSSSBgijRZtlk1RCCHTYQWArtpFDMYrW7FWxEC+y02AWhkU5DNsomu1uoQUMhhgI1cLcTUakoYc3z3W/uvve78/t+83POvM8kN3fhvj8zz5lnnnPmnTmzY5ZbjhpjTq6bf2z9+8HlwrHf8t31v/AbP9eMMVfWP4uDZ2dBLQYhQAD8Pr2gdpdqKsgColw1xlwo9VDpz1kCQaxSkBTleiPI8pIx5ky5R8p80ugEgQFJjHp9b3iijEoQuFKX6/ULPnkDgWGJMiJBqBr9+Ht2NLdrNIJANbJmoh68z5ijnzfmjiN7vero+ne/Ptb/zbsfGHPtA2N2/2XMlb9m1wcB/FPZdwm9YRSCIBA/n0IOkOHJb+4R4eS3hFpFULUsSa6+bcyF3yVXDC7X8fU0cfJNEi8chSBJynH6CWPOPCHRDDrqBLJc+L0xZ19Oqi9IcmfSlYIvGoEgUXKQGGV7YAZR1Ltb2gkSDcgv/9QYxBks5RE483KSmqgO3DUTJDiVi1jj/I9IjvK0OPhEqMnxZ/YC+kBBPIKv8OqKZoK8v142cgh0kOPyC3uzUyz1EUggidp4RCtBsMgQs1bOQreqPik23wCS3Pl48L2Y+lW3hksrQbzqQXK0J4d9I6aBn/qJ9/0qVUQjQbyBOb5rIO5g6YcACBL4XqJuVksjQbzq8f4r9eKOSBDar0fOfHOt+CziaqlTEW0E8cYetdQjIQCd2UX73lZzIiOiIqpmtLQRBIG53QV4oIddv1SnwyHwHE09LFIgCVS3dImoiCo3SxtBnO5VLfWIBJ2l+1WX59Wa1Dj+Q+9CR1VuliaCeD8MIjCvsfAQK1lh6JFLLewig4saN0sTQbzxR63gfNT4Y0r4Wq5pxM1S801EE0Gc07tYZwU3oVYZlSQtluIE3Cw167M0EcQZoNeKP1xfimuRsPVza03xbrYjQBA1gToJ0rp3Luh9geleLFxEHCK+aCKIcwaLez3k9rHAcng1M1kkiNz+pb5mgZksEqSCdZ07B6kgFZAu9MiAgtDFKoTx9DFOgrQK0iu0Z/hHBmIQBukVrN9lmnduO+BeIH1OiyI1QwtnsVpY/8Y7nASptZ5om6YFOsY2jw3eKxGHwDo2fgep0BO8S01qrSea04bIStY5j0y+R1I8Flmmwy/pyVZNvxDJ4TDVe6hI6hg91MMCUntVQbqpjIlkPEG+LHsOSc5jm1+raZoX4DgDdUnuRU8FkTRhEXCv1ATo6HDaCOLdbivFzUpIXlBtFKy1aDO3wqO4VxoJ4nWzJLkXIMnZX7XbaHXsPmNOIt+wkDRHETdTjXulkSBeN2v1B2ZRzB3si18/WmYTbS4WDOqdzZIUixTveUoeGFEPNRulLNwaCRJUEUmBqpI+XayaEXKoWV4yBUQrQbyxCBonadq3WO8T/qCERNbq1ENrDGK7SvDYA5KkHaMSkluomtodQUHQBqgISILfzkKS1CdJgnKoWdruQkuri2XbEnS1VhF95T3r9bugzDdgKhsfRRPOMFTpWmkP0qe9JpjpfSU163MJefxaGbIlqIZ9kWpyaI9BptaOnjRFomxPDsQaGR9A1azYDSGj3cXKJoklClyvY/fWSTi3fVeU8QR7FiGOhM444RaVH4IcIymI7VHBY9l83c4u0cDGIynLNXpRBKTARq8t8hGrd6tGmcXy9vfY7Favzjf4ezFbhX0eKs8i9NlmJBdr2kbMbiF4Pz14p5TSvGFcqk1ARyXIdBqYRKlHIxADHwFVbH6aA8PoBJkSBWriPFtkDnALvgdkeGl0Ylj7LoUgU6LA/XpyvSrY+xV+wQRwNd2SAvHFUDFGzM5LI8gmHiCI/cHfjsUAq/R3n7L1ODb52rqNIMX0p1LTZT926QSRYJ3QchlVu+8kgFm6DiRIaUTzn0eC5GPW7A4SpBnU3heRIP1t4K0BCdLfOCRIfxuQIIJtQIIINg4VpL9xSJD+NqCCCLYBCSLYOFSQ/sYhQfrbgAoi2AYkiGDjUEH6G4cE6W8DKohgG5Aggo1DBelvHBKkvw2oIIJtQIIINg4VpL9xSJD+NqCCCLYBCSLYOFSQ/sYhQfrbgAoi2AYkiGDjUEH6G4cE6W8DKohgG5Aggo1DBelvHBKkvw2oIIJtQIIINg4VpL9xSJD+NqCCCLYBCSLYOFSQ/sYhQfrbgAoi2AYkiGDjUEH6G4cE6W8DKohgG5Aggo2zdAXB2YZ3rPPz4nQqlhsIIC8vElVfXWdyXyQ2SyUIRu3z6wzvizR8ZqNBFhytNuw5ID48lkiQkEuT2W8WdfmQR6zFLLhEglymcsS6hffvIAkyzi+mLI0gOIcDrhXLfARwUGePc0vm13iLO5dGEJCDx7Bt0WHWgTvikUWUpRHk/fWM1aZxMVuDc/dYbiBgj6nbxGRRbtbSCHLdw4BFuQ2JowCmvRGvucpi+s1iGrq2so8gcBkWdThlAklIEGMMCbLXU0iQw4whQUiQ/V5BgpAgy/Yl6WIlOFUHL6GCUEGoIAHakCAkCAlCgoSVlUE6g3RfD6GCUEGoIFQQKsgUAX4HSY/VqSBUECoIFYQKQgVJV43plVQQKggVhApCBaGCUEHmIaBEQbBFFns4bHIF/Dd+JBQs/bY/19YLHnsverR4HVsDJAUvu59dGl7BfiT5OwgyjmBPghQypBISHQB7S1D/lgXvO93yhYXe1QuvpOpLJAiCQ+z800aMTcBbGV4rMVx4nZW2nVcaQUYx9tT4MHotNRkxAUVNvJJUY3qRJIKMaGyLdem8UqPn9RJDEikEWUIyhZJ7uUceTOyggswp2ArdtUggSOiD1D44tx4x5oETe9W99YiEau9V7Z9/u27+94Ex/3jbt4rlgH1LGD2JHIPg1V1Jeve0aJbDL967Yx77wU0GBpdcQJI33/jUXHw1SpRtdi9GB5OHHtsxDz1+k2SoVnUDXhdf/dS8+UYQr9KuaTYuvQkSdK1AjAe+0buKeZjC8C+e+mTVATxlG1fLqx4YQIAXBhRN5eIr0UGlhOrOhqQnmsHR8Pvn9BnbWgHkOHPyk5BR5qQZCmaF1IwX3NOfn/o0hNc2qjubHLixJ0G86qHFTQghHzE6vrbnZif0qodmclgMI0rSLRbpSRBnlkO4CmcufGYr1ku5GaOiJ3if42Y5nXW4oHCttBeo7qs/K4pXEUh6EsRpcI1xh88SEVcrx23wulcjqIfFDwE7SOIpOXgVIUdPF8trcKiH9BmrHPQRi3gC9hy3wbvC4MWLY6itndkKxG4kCEAayeBoT8DNypmdccZro7hX0wEnMKDMmdjIGcuc1/ZysZwj4kjxh0UbLoNnrj8nUF8MQQIDSo7ibk0M+wASpBiU7gcFCJKjIM4ZrIUpyKII4oxBRlSQQi6WU3HxURBB+kiFLtaeNb0fCUealUFDn37I+8EwZ0RchEvKWawbQ513DdZIbkNBgy9iQAm4o+g5ODy0+THUvWIQNNjpV8PNevrcGFO9AXchd4rdO6CM5JYG1DYnXivqcfYkiPdbyAi+dWTpxByDe5eajLA0JxCrocN3meLNHcWKMnO95xzLTZxFs9ErLb4Lbg3QjFfEteraT3sqCBoeXKGqUUkqL98ObpbSRpLI+is7cHZTj67MXLceoyKM7s1gYnfGfeHeHbF7HexmqTcv7e0ujJRtgs3oBjOLl+RNUxmby+Ys6ozhn/X33gqCykaNblsE4992ZEfMWi1LhsTttmhGifVEQdWdWl8iXhlYlcIrixCbF0sgSNTV2qqFcm7O+e4Rq/WI6ZE221xiMInhGP27FIKMTpKS5LBGHZkkIsghIQbZZHA0JolSXt4FNY2d7G7Jg8VZI8QcCMp75zfer5wkBbGVssmXNeaZnVq9hmq4ehXxqsh+iQTZJAqylGOphYZi8/HiQ2DrZRGWKJoSfrfKXzy770gmyLRRML4liU3rn9to3O+bTkaHnlNw5AEKDA23oDUpfHUugZeNC13vKIHX3GfMsdPse7QQZHYDJzf6sqjkbFwqUQ8tz+ARbJ3T/rTuKCRIHuIkCAmy6jFUEDdxSBAShAQJiAoJQoKQICRI2O9kkE4Xy9dDqCBUECoIFYQKYhHgLBZnsfIQoIJQQaggVBAqSPa4ubqBMQgVhApCBaGCUEGoIPMQoIJQQaggVBAqyLzxkzFIQwXB8mu7BPuOefba+i7fcne7VH3rFwz2gOmS+c2m9VyqfnWyvaA65C2+pEfP9q7eSr5gRASabLaqTZBgorMRrcY2NUeg6tbmmgQZLaFAc8vzhckIVCNJLYIkJ4NLhoAXEgE/AtWyodQiyMg5m9hRZSJQRUVqEcS3MBDQ9pwBkWnavSTerkKsDqPiw6rKztBaBMGxBq4MIl0zdQtlR8gd3SbRtdDmbl0tn3dSJdF1LYJc98BAghwGhgTJ40xo8qd4fy7+wHVbSZB0o5Mg6VjhShIkDy/1V5MgeSYkQfLwUn81CZJnQhIkDy/1V5MgeSYkQfLwUn81CZJnQhIkDy/1V5MgeSYkQfLwUn81CZJnQhIkDy/1V5MgeSYkQfLwUn81CZJnQhIkDy/1V5MgeSYkQfLwUn81CZJnQhIkDy/1V5MgeSYUTxC7md+u1nUlYQgtSXad44ez/vD/R0ugYBNFhLCamxxhRMxscg/7G9TZ7F9z8EKiB5Ts/pW6WLHlUcOWKC8p3TuC5dgwqm+QyBsv0662hkdH0LiHBJi1Os3YYoX+FT2PPUYQEAObn3odw9wkc0VaH4xeBYyAle8k3egDCl0AzLC7TgNReu88BUGAlZcoIYL0rvy0v8DoxwUds7zZlyVmb6myw64QiXsPvJt9C2qC/n6o+Agi0eASSSLJ0C77SsRMap40KC429B0oLoJIJIetdLXsFTNGRi2ZWySRRCo5rPkPqe4mQULJFg70oZtv+ay5+ZbbZvQr9y3/fu/d1GdJMXjSQAKcUEpiZYHKxAz723sWDCjALBqjlcbs44/+az7+6D+pbT+QHWVKkCi7UfGj93/N3HPi26kvy7oODdl96w/mnUu/jd3X27+ODiSfu+tu8+UTjxj8rlWs4Xff+qPBT6Q4XYjYTQX/Hh1Q7jnxiLn9rrurYAasPnzv3RVOCQPLfu6EKUF8mUhWGKHytYixaQQ05sovXoixHkF7dJquoIHto4IDCQaRrzx6soqRQ21JwKynexrMsgnMHvzeM1VU1oXZO5d+ExuE9zOkWIIEG4DK1xwJXY2AwdGQwMhYJc1LAqG8IyEwAla9CjD7y2vnQyNkL+X1Dr69MANWr597NmSqlYpYgngb0IMcttYJBu+hIs6MLa1HQZ9lE5SkNWbewReYPXzquV7jyWrw/fNr8JadZTUAgyDeBhy9/+vmq48emvlq2qAI01uPiF6sgBPwklAihq+SojPQbm+81nPwtfUFQQJeynEQxNuAh08938wvDHUsxCOewKq1m+V0r3q5CSEVCbharQcVp3ciYfAFfpEB+CwI4jS6lAagESAHSOIpLdNzOt2rlhMYqQoVCURjS4xSXxO7zvutSJLiBgbgKwDKyXBJRo+wvKVP7SSIFKWd9lYhg4p3xk8SZoHBZNdLEEkMh+F//ex3faNVq3y/Kow9neAIzNK0GlS8Mdt3nv9lTH2a/T0Qs60I4hwVpRHk9XM/9n0XIUEcXUmI6joJ0nv2ahOu0KSGChdLiIJ4/WkJszGbRo8QpFXc5lVdTQoifmYmMm3ZytiqCBLBrHuQLmlQCUz1roJ0J0EkyWBkRqYVQTBIix9MEuf3uxNE0ixpwH1ffUn3yqCUOCQQoLdegOf8ZtRr/VXoO0ggQG+NmegBOKK0T4EgXtdBwvKJiHq0CtBtX/QOJpJGxMC8PtrRagbLYiZ6pUZAPVD/HSu13gV4PV2tyFw+GtDSvcL7gnsaJHw7Slip2sq9sgQJbizriVlkIFkprQUr2IgeShKRPoDf2lWIjoi4oKfBE8jRWnEtZt7lTLX3GLnc0IRFsPuD73Q0CW4CatWQxMqv5K/Zl6SDL4ruQ28dkyRi1nrd2hS16PZkuKj4qb2tImEQOTD4TjtZ0pZIGP/2u75UvCHYEvnhe39P2e3Vw4/e5GLU4LihFlZ4tt1CuvvWn2Iby2zdW8cem5gF9xzZi2tgZrFK2KmKahwYSDZH4STDdxq57WtbL9f2NTfJ4J2xkkIOWw9JqaR8pjkwkLjcFMkk6RV3+MDUYPBecYc2zJxbkn1+fJK71Xh0lKIcm82OJrtojNP0db3dKi0k8e7XDwW6LfPxhvpQz2QDqX07GrinPqjQddgUBeVwJQov9IqtHyMFs+DAmzIThIacbpyM2QZL3pSQW5unzgN6G13DYOIK3p/skP8Z7jrIERxEUghiG2TTziML9zRNfYmuZiuJ3zZDueTRL9bmmljZd29i5swtG6uooL9bzEAWFNvHSlTRnhhgj0FIxur/eO5p/GvjyWUAAAAASUVORK5CYII=" parent="M2BAR0wibj0y26F96If3-76" vertex="1">
          <mxGeometry x="129" y="60" width="34.15539109353069" height="34.15539109353069" as="geometry" />
        </mxCell>
        <mxCell id="7gXZhZWd5zdu9qHWoEP5-154" value="" style="shape=image;verticalLabelPosition=bottom;verticalAlign=top;imageAspect=0;aspect=fixed;image=data:image/svg+xml,PHN2ZyB4bWxuczp4bGluaz0iaHR0cDovL3d3dy53My5vcmcvMTk5OS94bGluayIgeG1sbnM9Imh0dHA6Ly93d3cudzMub3JnLzIwMDAvc3ZnIiBoZWlnaHQ9IjY0IiB3aWR0aD0iNzEuMTI1IiB2ZXJzaW9uPSIxLjEiIHZpZXdCb3g9IjAgMCAxMTM4IDEwMjQiIGNsYXNzPSJpY29uIj48cGF0aCBmaWxsPSIjZDgxZTA2IiBkPSJNOTI3LjkzNzk1NyA1ODkuOTY0NTA0aC0xMDAuMDMyODEydjI4NC4zNjgwODRoMTA1LjgzNjI0MmMzOC4wMjc3NCAyLjc0ODk5MyA3NS40NDQ1OTQtMTAuMDc5NjQyIDEwNC4wMDM1NzktMzUuMjc4NzQ4IDI2LjQyMDg4LTI5Ljc4MDc2MSAzOS4wOTY3OTMtNjkuMDMwMjc2IDM1LjI3ODc0OC0xMDguNTg1MjM0IDIuOTAxNzE1LTM4Ljk0NDA3Mi0xMS42MDY4NjEtNzcuMTI0NTM0LTM5LjU1NDk1OS0xMDQuMTU2MzAyLTI4LjEwMDgyLTI3LjMzNzIxMS02Ni43Mzk0NDgtNDAuNjI0MDEyLTEwNS41MzA3OTgtMzYuMzQ3OHpNODk3Ljg1MTc1MiA2NTMuNjQ5NTE1aDI3Ljc5NTM3N2M1MC4wOTI3NjcgMCA3My4zMDY0ODggMjUuNjU3MjcxIDc0LjUyODI2MiA3Ny44ODgxNDMgMS4wNjkwNTMgNTIuMzgzNTk0LTIyLjc1NTU1NiA4MS4yNDgwMjQtNzMuOTE3Mzc1IDgxLjI0ODAyNGgtMjguNDA2MjY0VjY1My42NDk1MTV6TTQ0Mi44OTMzNjMgMzk2LjYxODY0M2wtMjMxLjk4NDQ4OSA1ODcuOTc5MTJIMzM1Ljk4ODA2OWw1Ni44MTI1MjgtMTQ5LjA1NjUyNWgyMjcuNDAyODMzbDU2LjgxMjUyOCAxNDkuMDU2NTI1aDEyNi43NTkxMzVsLTIzNy42MzUxOTctNTg3Ljk3OTEySDQ0Mi44OTMzNjN6IG02MS4zOTQxODQgMTMzLjYzMTYxOHYxMC44NDMyNTFzOS4xNjMzMTEgMjIuMTQ0NjY4IDc1LjU5NzMxNSAxOTQuNDE0OTE1SDQyNy4wMTAyOTFjNjIuMDA1MDcxLTE2MS41Nzk3MTcgNzMuOTE3Mzc1LTE5MS42NjU5MjEgNzYuMjA4MjAzLTE5Ni4yNDc1NzdsMS4wNjkwNTMtOS4wMTA1ODl6IG0tMjg0LjIxNTM2MiA2OC43MjQ4MzJjLTExMy43Nzc3NzgtNi4yNjE1OTYtMTc1LjE3MTk2MS03MS42MjY1NDctMTgxLjQzMzU1Ny0xOTQuNDE0OTE0IDQuNTgxNjU1LTEyOS4wNDk5NjMgNjUuOTc1ODM5LTE5My4zNDU4NjEgMTgwLjgyMjY3LTIwMC42NzY1MSA3My45MTczNzUtMi40NDM1NSAxNDAuMzUxMzggNDQuNzQ3NTAyIDE2Mi4wMzc4ODIgMTE1LjQ1NzcxOGw1LjY1MDcwOCAxNi40OTM5Ni04NS4zNzE1MTQgMjIuMTQ0NjY4LTQuNTgxNjU1LTE0LjgxNDAxOWMtNy43ODg4MTQtMzYuMzQ3OC00MC4xNjU4NDYtNjIuMDA1MDcxLTc3LjI3NzI1Ni02MS4zOTQxODQtMzUuODg5NjM1IDAtODYuNDQwNTY3IDE4LjE3MzktOTIuMDkxMjc1IDEyMS43MTkzMTQgMy45NzA3NjggMTAyLjMyMzYzOSA1Ni44MTI1MjggMTE4LjM1OTQzMyA5Mi43MDIxNjIgMTIxLjcxOTMxNCA0NC43NDc1MDIgMC45MTYzMzEgODEuODU4OTExLTM0LjM2MjQxNiA4My4wODA2ODctNzkuMTA5OTE4bDMuMzU5ODgtMTcuMTA0ODQ3IDg0LjE0OTczOSAyNC40MzU0OTYtMy4zNTk4OCAxNC4yMDMxMzJjLTExLjc1OTU4MiA4Mi4xNjQzNTUtODYuMjg3ODQ1IDE0MC4zNTEzOC0xNjguOTEwMzY2IDEzMS45NTE2NzhsMS4yMjE3NzUtMC42MTA4ODh6IG04MTMuNzAyMDEzLTIzMS4zNzM2MDJjLTMuMDU0NDM3LTUwLjU1MDkzMi0zNS44ODk2MzUtOTQuMzgyMTAzLTgzLjUzODg1MS0xMTEuNDg2OTUgMzkuMDk2NzkzLTIxLjM4MTA1OSA2Mi42MTU5NTgtNjMuMDc0MTI0IDYwLjc4MzI5Ni0xMDcuNTE2MTgyLTQuNTgxNjU1LTU0LjA2MzUzNS0zNy41Njk1NzUtMTE5LjQyODQ4Ni0xNzAuNTkwMzA2LTEyMy4zOTkyNTRINjMzLjQ5MDIzMXY0ODYuNzI0NTM0aDIyMi4zNjMwMTNjMTQ3LjIyMzg2MyAwLjE1MjcyMiAxNzcuOTIwOTU1LTc4LjM0NjMwOSAxNzcuOTIwOTU0LTE0NC4zMjIxNDh6IG0tMTA3LjUxNjE4Mi00LjU4MTY1NWMwIDMwLjY5NzA5Mi05LjE2MzMxMSA2Ni41ODY3MjYtODEuODU4OTExIDY2LjU4NjcyNmgtMTEwLjI2NTE3NXYtMTI0LjAxMDE0MUg4MzkuOTcwMTcyYzc0LjUyODI2MiAxLjY3OTk0IDg1LjM3MTUxNCAzNC4wNTY5NzIgODcuMDUxNDU0IDU3LjQyMzQxNWgtMC43NjM2MXogbS05NC45OTI5OS0xNDQuNDc0ODdoLTk3LjI4MzgxOFYxMTAuNTcwNjE5aDk3LjI4MzgxOGM2Ny42NTU3NzkgMCA3Ni44MTkwOSAyOS4wMTcxNTEgNzcuMjc3MjU2IDUwLjA5Mjc2NyAwLjc2MzYwOSAyMC45MjI4OTMtMTAuMDc5NjQyIDU3Ljg4MTU4MS03Ny4yNzcyNTYgNTcuODgxNTh6IG0wIDAiLz48L3N2Zz4=" vertex="1" parent="M2BAR0wibj0y26F96If3-76">
          <mxGeometry x="128.77" y="123" width="34.39" height="31" as="geometry" />
        </mxCell>
        <mxCell id="7gXZhZWd5zdu9qHWoEP5-160" value="" style="swimlane;startSize=0;strokeColor=#0F8B8D;fontColor=#143642;fillColor=#FAE5C7;dashed=1;movable=1;resizable=1;rotatable=1;deletable=1;editable=1;locked=0;connectable=1;container=0;" vertex="1" parent="M2BAR0wibj0y26F96If3-76">
          <mxGeometry x="106" y="30" width="75" height="144" as="geometry" />
        </mxCell>
        <mxCell id="7gXZhZWd5zdu9qHWoEP5-161" value="&lt;span style=&quot;font-size: 10px;&quot;&gt;Extractor&lt;/span&gt;" style="text;html=1;strokeColor=none;fillColor=none;align=center;verticalAlign=middle;whiteSpace=wrap;rounded=0;fontFamily=Times New Roman;labelBackgroundColor=none;fontColor=#143642;" vertex="1" parent="7gXZhZWd5zdu9qHWoEP5-160">
          <mxGeometry x="-6" y="-2" width="56.75" height="21" as="geometry" />
        </mxCell>
        <mxCell id="7gXZhZWd5zdu9qHWoEP5-168" value="&lt;font style=&quot;font-size: 10px;&quot;&gt;Call-graph&lt;/font&gt;" style="text;html=1;strokeColor=none;fillColor=none;align=center;verticalAlign=middle;whiteSpace=wrap;rounded=0;fontFamily=Times New Roman;labelBackgroundColor=none;fontColor=#143642;" vertex="1" parent="7gXZhZWd5zdu9qHWoEP5-160">
          <mxGeometry x="-6" y="57.81999999999999" width="90" height="25" as="geometry" />
        </mxCell>
        <mxCell id="7gXZhZWd5zdu9qHWoEP5-169" value="&lt;font style=&quot;font-size: 10px;&quot;&gt;Keyword extract&lt;/font&gt;" style="text;html=1;strokeColor=none;fillColor=none;align=center;verticalAlign=middle;whiteSpace=wrap;rounded=0;fontFamily=Times New Roman;labelBackgroundColor=none;fontColor=#143642;" vertex="1" parent="7gXZhZWd5zdu9qHWoEP5-160">
          <mxGeometry x="-6" y="119" width="90" height="25" as="geometry" />
        </mxCell>
        <mxCell id="7gXZhZWd5zdu9qHWoEP5-165" style="edgeStyle=orthogonalEdgeStyle;rounded=0;orthogonalLoop=1;jettySize=auto;html=1;exitX=1;exitY=0.5;exitDx=0;exitDy=0;entryX=0;entryY=0.5;entryDx=0;entryDy=0;strokeColor=#A8201A;fontColor=#143642;fillColor=#FAE5C7;" edge="1" parent="M2BAR0wibj0y26F96If3-76" source="7gXZhZWd5zdu9qHWoEP5-162" target="7gXZhZWd5zdu9qHWoEP5-160">
          <mxGeometry relative="1" as="geometry" />
        </mxCell>
        <mxCell id="7gXZhZWd5zdu9qHWoEP5-162" value="" style="swimlane;startSize=0;strokeColor=#0F8B8D;fontColor=#143642;fillColor=#FAE5C7;dashed=1;movable=1;resizable=1;rotatable=1;deletable=1;editable=1;locked=0;connectable=1;container=0;" vertex="1" parent="M2BAR0wibj0y26F96If3-76">
          <mxGeometry x="8" y="30" width="75" height="144" as="geometry" />
        </mxCell>
        <mxCell id="M2BAR0wibj0y26F96If3-52" value="&lt;span style=&quot;font-size: 10px;&quot;&gt;Application&lt;br&gt;&lt;br&gt;&lt;/span&gt;" style="text;html=1;strokeColor=none;fillColor=none;align=center;verticalAlign=middle;whiteSpace=wrap;rounded=0;fontFamily=Times New Roman;labelBackgroundColor=none;fontColor=#143642;" parent="7gXZhZWd5zdu9qHWoEP5-162" vertex="1">
          <mxGeometry x="-25.999999999999996" y="4.999999999999984" width="110" height="21.26" as="geometry" />
        </mxCell>
        <mxCell id="7gXZhZWd5zdu9qHWoEP5-158" value="" style="shape=image;verticalLabelPosition=bottom;verticalAlign=top;imageAspect=0;aspect=fixed;image=data:image/svg+xml,PHN2ZyB4bWxuczp4bGluaz0iaHR0cDovL3d3dy53My5vcmcvMTk5OS94bGluayIgeG1sbnM9Imh0dHA6Ly93d3cudzMub3JnLzIwMDAvc3ZnIiBoZWlnaHQ9IjIwMCIgd2lkdGg9IjIwMCIgdmVyc2lvbj0iMS4xIiB2aWV3Qm94PSIwIDAgMTAyNCAxMDI0IiBjbGFzcz0iaWNvbiI+PHBhdGggZmlsbD0iIzU0QzNGMSIgZD0iTTY0IDM1MkgwVjBoMTAyNHYzNTJoLTY0VjY0SDY0djI4OHpNMTAyNCAxMDI0SDB2LTIyNGg2NHYxNjBoODk2di0xNjBoNjR2MjI0eiIvPjxwYXRoIGZpbGw9IiM1NEMzRjEiIGQ9Ik0zMiAxMjhoOTYwdjY0SDMyek00ODAgNzM2aC02NHYtMjEwLjg4bC0zMi0zMi0zMiAzMlY3MzZIMjg4di0yMzcuMTJsOTYtOTYgOTYgOTZWNzM2eiIvPjxwYXRoIGZpbGw9IiM1NEMzRjEiIGQ9Ik0zMjAgNTc2aDEyOHY2NGgtMTI4ek05OTIgNzM2aC02NHYtMjEwLjg4bC0zMi0zMi0zMiAzMlY3MzZoLTY0di0yMzcuMTJsOTYtOTYgOTYgOTZWNzM2eiIvPjxwYXRoIGZpbGw9IiM1NEMzRjEiIGQ9Ik04MzIgNTc2aDEyOHY2NGgtMTI4ek0xNzMuMTIgNzM2SDgyLjg4TDMyIDY4NS4xMlY2MDhoNjR2NTAuODhsMTMuMTIgMTMuMTJoMzcuNzZsMTMuMTItMTMuMTJWNDE2aDY0djI2OS4xMkwxNzMuMTIgNzM2ek02NDAgNzQ5LjEybC05Ni05NlY0MTZoNjR2MjEwLjg4bDMyIDMyIDMyLTMyVjQxNmg2NHYyMzcuMTJsLTk2IDk2eiIvPjwvc3ZnPg==" vertex="1" parent="7gXZhZWd5zdu9qHWoEP5-162">
          <mxGeometry x="21.75" y="89.5" width="34.5" height="34.5" as="geometry" />
        </mxCell>
        <mxCell id="7gXZhZWd5zdu9qHWoEP5-157" value="" style="shape=image;verticalLabelPosition=bottom;verticalAlign=top;imageAspect=0;aspect=fixed;image=data:image/png,iVBORw0KGgoAAAANSUhEUgAAAMgAAADICAYAAACtWK6eAAAAAXNSR0IArs4c6QAADxFJREFUeF7tnT92HLkRh8FDrDPvo84gR3aw4g3WkZVRipw58sYS4818AVHZOrJvICrwRqsziLaz9SHoV6MB1dPTjfrTPc0B8PV7ehLFRgP4qn5AFRqDuUiH16uU0nVK6cXo//kRAq0TuE8p3aWUPqaUbnNnLwa9/oAwWvcB+mckIAK5SSndZ4EgDiM5buuGgIjktQhEwqp33XSbjkLATmAnEBGHiIQLAhA4JHAnAvmcUrqEDAQgcERgl4M8AAYCEJgmgEDwDAgUCCAQ3AMCCAQfgECMADNIjBulOiGAQDoxNN2MEUAgMW6U6oQAAunE0HQzRgCBxLhRqhMCCKQTQ9PNGAEEEuNGqU4IIJBODE03YwQQSIwbpTohgEA6MTTdjBFAIDFulOqEAALpxNB0M0YAgcS4UaoTAgikE0PTzRgBBBLjRqlOCCCQTgxNN2MEOLQhxo1SnRAQgXBoXCfGpptuArccHOdmRoGOCFzlo0c5PK4jq9NVEwE5yPpRIHJwnJyu+MZUlJsg0DaBnTiki8PT3eVnEcl3+1PeOW2xbSegd4cE5OsP5I98/cHb/KuxQIAGAQgMCCAQ3AECBQIIBPeAAALBByAQI8AMEuNGqU4IIJBODE03YwQQSIwbpTohgEA6MTTdjBHwCiS/cZeXifJvXibGuFNqOwLy8k+u/CLw/f770E0tsAiEbSgmlNxUEQERiwhFvuo5C2iy+ZpA5JU7+7MqsjxNdRHIQnncWjIuPScQmTVkh+8LV3XcDIE6CYhQZHPi0WwyJRARh3yIivyiTmPT6hiBSZGMBYI4YnAp1QaBI5GMBcLHb9swNL2IExCRPMvFhwIhIY9DpWRbBGR167V0aSiQh7b6SG8gECbwGGrxmfQwQwo2TmA3i2SBMHs0bm265yawy0U49sfNjQIdEdidarL0yJ/8NlJOgpA/XBB4SgLyqkJecMvf1wvf590sPVnxZngCxFNSoW4ITBBYuo/wbsnZvPJqnhkDv6yBgMwo8o7Pe91HT3d/XCf21sj9EHgiApH3fCGBHLxpfKLOUi0EvARC26giMwh5h9c03H8uBNyzSEQg8gpeQiwuCNRGwJ2LRAQiG7mKn8KqjRrt7YaAhFmfPb2NCET7FKKnfu6FwNYEXLtGTiKQh1/TL1v3mvogkC7Sny++SZ8UEmcjkOeYDAKbErhIv0MgmxKnsqoIIJCqzEVjtyaAQLYmTn1VEUAgVZmLxm5NAIFsTZz6qiKAQKoyF43dmgAC2Zo49VVFAIFUZS4auzUBBLI1ceqrigACqcpcNHZrAghka+LUVxUBBFKVuWjs1gQQyNbEqa8qAgikKnPR2K0JIJCtiVNfVQQQSFXmorFbE0AgWxOnvqoIIJCqzEVjtyaAQLYmTn1VEUAgVZmLxm5NAIFsTZz6qiKAQKoyF43dmgAC2Zo49VVFAIFUZS4auzUBBLI1ceqrigACqcpcNHZrAghka+LUVxUBBFKVuWjs1gQQyNbEqa8qAgikKnPR2K0JIJCtiVNfVQQQSFXmorFbE6hdIHf/Sun+v/PULn+b0os/rENVq+vVy23qkf5Iv4aXMJD2PdU11aZhWzR2nnbnvq9l12LdtQvk9V9Suv1pvosC8cM/PPjn7332vCxGqWcNo139sezsnz8dC0QYCIunurS+a32KtlvEcvntFx7Xf1qH/0FbahfI2x9TuvmxPIOIQ61xXfym/JQ3P6T09oflNWlCfPj1uI5eBTImkSOG1cRSu0Bk6pbRqXRpo5vFpS0OuNZsVRKiOMCU4C3ts/Qzeo/G+FQzSKm9EvLKoDUOR119rF0gEnvLiHtqgWihnNQ/57weg2iOLkZ/9zdmECtTsYmIJJwf1i4QAaWNTmuEPlrYkw2mjaSaYTWBiDimjK2V0+pd+nut35qNltZfKr/LT14Gw98WBKKN7muEPlr+kQ20VIxaXxBITEoikg//DIRbLQjk1Im6Z3ReKkZtpppawRKXsbRxjRW2OfcU4ZZifW0GkbZJYl26JJz+935JX/59/5/yquJUAu9esGlBIJZEfWrlxzoWaaP68DlL8xBtpprrh0UgSxhYWc3dpwlkLrfSBCO2//hzeal/+AwtFDyqrwWBnDpR14w7huo2wuABJYGUnKhHgQy5iw9cfa/PKO4ZvgWBnDpR10b1sUCieYjm5KXnamWlja3NIGPuloHSPcO3IhAtDHKPHHv6FscbG+pUdc0l6NYcpHWBCAdLuD2Xx02Gc60I5FSJ+txzRQRze5/co9TeMprIS4a1CLkHgVhmEVcI3IpAtJFjbaeV0fz93+dF4jLCXiDaClbJwRHI1/Ff41iaiZtM0qVTq48ce1Jz+YeM5uKUc/vAIgKJJuiEWIdurS2qdCkQS6LuddrSqCyjeWnW8uYhmsC1xJ8Z5KtIloSqzc4g0jEtD9GcbAxnzunycmvJqb0hnebg2qinle9hFSvbTwuxXLlYKzmIZQXDO6rPjUTD9xGlsMizWqKJW3sWAvk6vGnL8t0KRAtTvKP63Eg0HM1L8a4npNPCAs2oCOSLQDQO3igitTSDaAIRgNpInMehUn4xfEZp5PdsnyiFBZbnaI7RQ4ilrWR67P84H7UkkDUTdS1BtwjJM2MtWcGyjJytC8QyOFoGmqaT9DUT9bmQZ5zHaIbRQiNL7qQl6D0LRPiXltuzw3sGqwORtDaDaNOsNVGfC3nGo5AmEEseooVHlrBQe4YYfeqTiEcjpvE/vKfFaO8mtNE9n1yTt7jnre+lAzuGXbHYYbLrrQlEc1jrSDIX8kyN5iXjW5JCbQXLMgtZBGL0fdNtmkOPH6IJxFRp8KawOKS+3gRiicVLzjY1mpdWoCyCLJW3OiICOVaPRAvaB7lUzbUmkDUS9ZLDTo3mWlinzQBLV7CsOYjqDI4brMLNj9x6BrHM3KbutigQLWTR4FnzjwxYC+u0Kb60gmVJ0BHIsauvdj5WiwLRRnRNIHMOWypXmgVK5bS2WhJ0BFKeC7o/1WSMRxvRSytZpVi+NBOUQohofZZ8KfedHEQPmKwrmE0v80rnNIGUEmdv/mFx0Gh9HoNaBLLmqSbf/d53zpSWg+QzdjU3l2XebGPt3qnfu4//aTHEsiTqc6GLN/9YmoessYJlDbG0xYKIw1nLaALxJv35vUg+1cRzerxlZfGxX60KREvU58KlufzDYsBSsj2Xh5RyF2uC3qNApoQps2jpU57DMhZ77u5vVSBa8jvlsKUyFmeN5CFrbZe3hFgtzSBzM5dn64nppMVWBaLlIVMjiHWD4pxxSrPW1LSuidjj0Ajk0CpaBCF3m3K8VgWymx0L3+cxBcfyAalSzK2JcuzwJac2GW/QGARyaBmxhdiz9K1bplykZYGUQp4pONEEfWiakijHec9aCTo5yPSwZRk01PdMLQtEm2bHcDwbFOdmEs/GxZJALDnPsA0WZ/CEbNbVKet9a69iWerVZnR5hrbLodkkXTqvxfhDON4NipE8ZBw2lVaw1JFt1AAEMm0R7QAHbVdF0wLRRpAhnDkH8+YCJVGOw7pSOOYd7REIAvklpaR82doxJOu7iaUJeq5ZE2WeGTxCsoQTCASBhARifTdhOcHE4qhyj+Wkk5JDm19isYqlmkQ7AkjN9VpO0oWe9d1E6YhR77eklurMYV3pHtVoE27BDHIMxcJEZd26QLREXWL9pS8Ix6axHEm65goWy7zTE4m2cial1MWQ1gWi5QSyknX38/Qh1JFQR6BbjiRdcwULgRwLRBsYpYTJvq0LREBon9ib+447dfotRMBaHiK/n7u8K1gI5JCkRRxSwmTfHgRSclYZRea2SqvTb0EgWh4y97UJplGNHGSWvPZyeFjQZN8eBOKBNgQYGclzeesoNra0+uJqxjUsCemS/qjLRcoNWj4QHRhySLvb6v6T/iWeuZnqG/R8Yw8CiTjrEoNpeUjJl0zTfnAGWerkWvmSADWByAvZN3/Vavjy+913pO+/L13C49KGxKknul7+9iAQLVGfghh11OGzNKeYqtc07TcoEJs0lt/lEodU14NAdv0sbH1f01GHz4qEdtEwyBJiLXev8hOWzCCnbps83y2OngTiHc2jjjo0tDe0WxLWIZCyxKK5XTcziGc0X+KoQzN5Q7uwEQ1fHLPFCH2OM8ji40d7CbE8o/ka+Ud2SM/MtaReZpCvQ0A+KE4GOu82oaOBpBeBeEbzaKI8NUp7Zq4l9fYqkCyA65df6K8iiqEhexGI9Nm6HLjmAWu7Jcn9YWdamLOkXk89Wjuivy+138reUvfltyvMDJaKekrSrTy4DwIHBHqaQTA9BNwEEIgbGQV6IoBAerI2fXUTQCBuZBToiQAC6cna9NVNAIG4kVGgJwIIpCdr01c3AQTiRkaBngggkJ6sTV/dBBCIGxkFeiKAQHqyNn11E0AgbmQU6IkAAunJ2vTVTQCBuJFRoCcCCKQna9NXNwEE4kZGgZ4IIJCerE1f3QQQiBsZBXoigEB6sjZ9dRNAIG5kFOiJAALpydr01U0AgbiRUaAnAgikJ2vTVzcBBOJGRoGeCCCQnqxNX90EEIgbGQV6IoBAerI2fXUTQCBuZBToiUA1Avlfet6TXejr+RC4+CZ9Ulrz4GntRUrJVSCl9Ey+vNRTCfdC4IwIuPw9IpAr+fqOM+owTYGAlcCrlNI7681yX0QgNymlt55KuBcCZ0JA/PaNpy0RgUh4JWEWFwRqI/A5pXTpaXREIPL825TSa09F3AuBJyYgoZWEWK5LBOJW1b4GEYgIhQsC507gRUrpQ6CR9yIQKSgPiFzkIxFqlNmSgDvvGDTuTgSy5AHyLMlJZFXr4/5vloC3ND91jQlIjiF/ZNC/9uYco4fdikCi0w+mgUDrBK5EIKI2yUO4IACBQwIXIhC5Qhk+NCHQMIHdSm0WCLNIw5amayECuy1VWSDyBPdr+FC1FILA+RN4XJ0dCkRmEQm1oku+599tWggBnYCsyMp+w901FIj8LCKR9yKu1/F6ndwBgSoIHG2jGgsEkVRhRxp5AgIiDtkdcrBTfUogWSSEWyewAo88SwIHYdWwhXMCySKRxN21Pfgsu0+jIDBNQGaN96WPb5QEkh8p+QhCwcVaIqAKYy5JL0HIe1zy/pb8c0vg6Et7BPLeQPk77xc0fyL2/7wImUJ3aZ30AAAAAElFTkSuQmCC;fontFamily=Times New Roman;labelBackgroundColor=none;fillColor=#FAE5C7;strokeColor=#0F8B8D;fontColor=#143642;" vertex="1" parent="7gXZhZWd5zdu9qHWoEP5-162">
          <mxGeometry x="19.25" y="24" width="37" height="37" as="geometry" />
        </mxCell>
        <mxCell id="7gXZhZWd5zdu9qHWoEP5-166" value="&lt;font style=&quot;font-size: 10px;&quot;&gt;Front-end code&lt;/font&gt;" style="text;html=1;strokeColor=none;fillColor=none;align=center;verticalAlign=middle;whiteSpace=wrap;rounded=0;fontFamily=Times New Roman;labelBackgroundColor=none;fontColor=#143642;" vertex="1" parent="7gXZhZWd5zdu9qHWoEP5-162">
          <mxGeometry x="-8" y="56" width="90" height="25" as="geometry" />
        </mxCell>
        <mxCell id="7gXZhZWd5zdu9qHWoEP5-167" value="&lt;font style=&quot;font-size: 10px;&quot;&gt;Back-end code&lt;/font&gt;" style="text;html=1;strokeColor=none;fillColor=none;align=center;verticalAlign=middle;whiteSpace=wrap;rounded=0;fontFamily=Times New Roman;labelBackgroundColor=none;fontColor=#143642;" vertex="1" parent="7gXZhZWd5zdu9qHWoEP5-162">
          <mxGeometry x="-7.25" y="119" width="90" height="25" as="geometry" />
        </mxCell>
        <mxCell id="M2BAR0wibj0y26F96If3-77" value="&lt;font face=&quot;Times New Roman&quot;&gt;Generation Module&lt;br&gt;&lt;/font&gt;" style="swimlane;whiteSpace=wrap;html=1;strokeColor=#0F8B8D;fontColor=#143642;fillColor=#FAE5C7;movable=1;resizable=1;rotatable=1;deletable=1;editable=1;locked=0;connectable=1;container=0;" parent="1" vertex="1">
          <mxGeometry x="541" y="214.5" width="169.5" height="187" as="geometry">
            <mxRectangle x="532" y="215" width="72" height="26" as="alternateBounds" />
          </mxGeometry>
        </mxCell>
        <mxCell id="7gXZhZWd5zdu9qHWoEP5-95" style="edgeStyle=orthogonalEdgeStyle;rounded=0;orthogonalLoop=1;jettySize=auto;html=1;exitX=1;exitY=0.5;exitDx=0;exitDy=0;entryX=1;entryY=0.5;entryDx=0;entryDy=0;strokeColor=#A8201A;fontColor=#143642;fillColor=#FAE5C7;curved=1;" edge="1" parent="M2BAR0wibj0y26F96If3-77" source="7gXZhZWd5zdu9qHWoEP5-45" target="M2BAR0wibj0y26F96If3-9">
          <mxGeometry relative="1" as="geometry" />
        </mxCell>
        <mxCell id="7gXZhZWd5zdu9qHWoEP5-45" value="" style="shape=image;verticalLabelPosition=bottom;verticalAlign=top;imageAspect=0;aspect=fixed;image=data:image/png,iVBORw0KGgoAAAANSUhEUgAAANUAAADICAYAAAB/CKTGAAAAAXNSR0IArs4c6QAAF9NJREFUeF7tXemV3DYSbr6ZPDwbiaVIvIrEUiSWIrEUieU8mo/7igJ6OWySqOMrHCT6jw6CIFBVX10oAMOt/zoFOgWgFBigvfXOOgU6BW4dVF0IOgXAFOigAhO0d9cp0EHVZaBTAEyBDiowQXt3nQIdVDgZeHt5eflA3Q3D8DZN02+h67fVnz9vt9vPYRj+naaJ/qR/3+73+/z/uOH0nkpRoINKSfmXl5f/LsBDYIrgUfb4eO377Xb7No4j/dlBZqVmgfc7qPhEJ0v05+12QwIo9fXvwzD8uN/vXzvAUqSq53kHVYIXZJFut9sfAUwlOdcBVpL6gm93UG0Q6/X19cM0TQQkAlSNv6/jOH7p1qtG1tz64u+KLeTi/VWBVWJJyzAMX7pryCJV1kbdUgVyBzDVaplSQvGpJzZSJMr3/PKgCjETWafWf5Qp/DKOIyU1+q8gBS4LqhA3xWxeQRbAP/19HMdPPd6C05Xd4SVBFQD1N5tK7TX8OY7jxw6sMoy7HKheX18/T9NEFursvw6sQhy+EqiayuwB5YGSGD3OAhI01dUlQBXcPUpGoEqJjug6lxfF2r6thqG86ffFeFzH1VPvKRhgn18BVGSh/sGS7V1vZAV+WFLaBHpaGwsLzl4A6wkMRyFYdn12UHkBKha9wt0qZ4CRBf10v99p/P3nRIEzg4oARRk+pOb/OgzDt1xC6Zj2X7qocYsKidh6m8ry/2YgUoFvkMXvfbvKNirPCip0UqJorZ0juFC6Olq+vmWFFA+KqjX1EyzUvGHQ+KPKcKqvq8JdypxwsZAu0u2SGy9PByrQOlTVscei6Bfp2lpAdJgNDYrpMgA7FahAlRKUJaNqhKp/DVmtBx2vkto/E6jMmb7A9M9Vo+n94MxzLjDX0xf+ngZUxq0bVbt7W4Ifquup3KoFF3BrClXFq0jlcgpQGd2+pgDVQCZQKp9FM6vSwXLanwFUFheoKUAZrTFHHkq2Oc1Gy+ZBZcj2NQOoE22kTIH2FKVUrYNKbaWGYfhYy/rTnqSd0NVLgYqeNw+spkGltVINZPnQFSEcYa6pTdN7wVoGldZKVb0OpVUUBkRQPeN8BHWotKeuNk/GDZbzbbV1xS37OI7jf1rcvdwsqJTCR4JDjKrulzFFToChdDakMHjhohK4PADW3CbLZkH18vIySZFRo9uXMW5yT117VXnUyLcj2WsSVCexUlniphKlQR6KooXEUgRai6DSxlLVuBFKpSA1zMXni7ZcrcRYzYFKuQBaRSyVKW4iN4/O/avmB6yqbyIr2ASorBcGlPbJPdyhDcS4x0wWlKKsVmlecmhQLaiCVqcTh8z3QY3jWGyewA2Te/xsqjAV4frWDqxiwrYnIUBXIX6iyLoUQngSWrHZLRSBNnRVkToFX3N8VQuo4i2FHrduZA3Yc8RNtWtqjosEcAerja+KgsoaK3GYl8v163EThxtPbUwnXtWqXIqBKkOsMZfb5KigUGYkJVLYVNwkmRi5gJaj5Gp0A7ODCmD22Tzz1mQ54qYrHH5pkQlvHrOFbdEwK6gyWafH9LwIbhECAZOyxoKCcbk0tSQvarNWWUBl3O6uZiK6tCVH3OSlCNREzPii1vLXRjN3UGkJheAlMkmRYR7Nb85D8CxcJiFOtddkrVxBlSGAP+IjKknhXfjazLZ+BGgYfagSFzVZKzdQ5Y6fNpgFAZXzPC4VNzEANTfRegW1WCsXUDkLIpc35koKLXMZAyxe9LrcxUubFmu7wUPjBtZireCgcgQUleVIfG2z4GoYmwBU8fWmhKIoPr5IP6VCMytShkJMNoGCygFQj8prRd9WUGn3bW0RvXjcJBTSKpImGqVWgwsIAxU4KfGkMVsFVWmXxFKLWGLX8FIjCRVBfLV4nAoBlXLyIo2eG1SAtbWi2h64pla0Gl5hraweStK9SzUwgwogfPMYUxq9IVAVd/XAXkOUoSJKQjMX5PpkCkBbz82gUmiS9ThYQtgIqIq6HpmOh866w1gzp9JxlQlUALePna2pHFRZBW2tlYCunkQxZ7tQQKG4iyo3NagAbh8bUMTpSkHFsrISSRW29a72SA0nSwpewXuRbKUmKX2uBZU13SwOJhWEFX9jlXn6ME3T30cETcWBUmZI2gO8BMnnUm1d4y1lXFXsyGgVqIwMVQm7FFRWgWda4uxuhiVFnkIG4LmLG9xaXKUBlcVKqc3y1UFVKG7S4gwabzEV3Luxorf9SAghBpXBSpkKXC8MKlTc9LAiOc4GCZcgfEHdAaY4Oz+7FxGBJwWV1kqZAKVJVJzB/TMosKVi3U0mZLJ+kHhLkQFUhRkSi7TXVgQqTcAYFnbNtxZeyVKB4iZ2ZhL0vUN5tJY8nRVUWisF0RhXABXKcmittOWcCKaGV5c8nRJUSlfE7PZFZp0dVFovYCXMiOyb58Gmcbhil1DK/3B38Ecm2KHN2O6fQlMk6/kkM5ESVaut45iYGSdzMKxJF2/QDb4Ii7KaCR6zlYCU/y2ASuP6wazUGRMVIKFlx00SBbZsmyPeut1uyRT86UClcf2slmItBFKiWr/vaKkgKXLr/KQgyxFvHR0cKuV/9ZZKsUZwQ5ffS4lqFToPUGmU05arFy5127xBXgoWYfti8ZYi/IAkyIT0mZtzYiqx62cV6K2JtAwqBxeKHYtohCL1TqYTet/NUarYPWQwRRf24q9Gu3qUiLQIKlDctMfLmJ7+ThcxcBmObOegLNbDm+c4DMPPVHHz+sWqQSUVZq+bNqTjsBLV6P5B4iYmAOCZP+Z3H80cLuqTDuGpvYdi5w4q6f5Jza5XgNgKqDSWncusRDvx2g/ou3M3zlZZPNSaQVVFPEUUrR1UGVwhlmBZy4FYHzlolCneSg4TnShLfnDR4NBSaRYmvc4HqBVUwd//M1z4LaH9su0jPnp9fX2bpgnV31ftgKzvZUjBHw0RukYqpcUhqDSujJeGqBRU0lNzt3x/2h7xef0ApPGLuoThlkRSEB53Oe/KujWeloLoKUly1IECVG4aolJQWejPSouDND7rW5bJJOSIjib4S3hst3o4JeMpGnTK/aMzGj4IZqfe2Zv6xolApcnWoRZdk+VAKT5YnueKO728Je7cU6CauB3NCB2GTVdG0sde25OAylSAC8qwqbdfIPhIfTin4N28Je78O6h2KMVcp+LSGVoyA9L4ReMtkILYov+5QBWqjV0yTo1aKlfBBWn8ovEWSEG8A5dXBpqrQaGWqoPqQXb3LRkLBp8l3qJEBsXvkjvINuXcMwzhAKuDCu/+meImDtO22qBS8EEgqZ4w+w80h3ncJa0VFFSeqcwG3D9o3KSVaJA75eq2puYGOlqAYivaTp+92LglUP0jcQ2sLoAgUZHT1UvJ4+M5SDCLxVsIq2WVATaxVw1ToBIJsnNMJRqLlaBMUBXPNB0xXrF4v5lNo+0X4ziW2GJC8SKtlarjLKscaIDVQWWIqUowTMpkxS6DvU9oFq2lw91sr9j1WzQbmAKVtKLCLa6QEtYq8ExLVSQpIZFUKd0YfReJt4zurFulzxa9UqCiNKekGLKDiiGVOZs4gGoefoktJhZ3Nmc2EA0qN40gFY5uqX5BV0o3IeCzlzwZ5uMmm2uapUBFVoqsFfvnpRGkxOygYoMqppzVyQD0DR8JYbMkL7K466n9VMnbBJ9QOgzmywi2iNpBxdZr7xoyEhWzy95YyZMWWFnWrjhnVGRNZe+JTgeVL6hC76gDa9y3mBjiK3drxQGVNAPo4rtKKyput5spaXKi7F9q+84TnRALr6GSgda3XAqsDfGii3wuVV4SVBqN4BFXaVKqlnGcCFQpT2NX+dRe8sTk0ZOJt8gFx1/ggEoTV8E3K2oOoQlnEKrqv5gMc3clOEw8asNwm5MWHRRvudBKo2ytSawUT5KgUppZl4CQISB78xXXsHVQvSclYlOhkzBrkhYu8hkpxgWVdBGYFgfhWUCNK7pCGTuA7qDa1k/WeMvD9dJYK886VRaomAK25oJLQAgAFquGjTlnF5cm5V5InjOse9L92/qe9pQnD2ulDA1U8+bQngUqpQtIr7kIXY4AuoOKIz43jesFv2ZJKZ8uSp/GwgaV0kJ4+q6obeSb8VYHFQtU8Qx1WnZh/zxcQI18eoxDCipxFnD+gOOxZdS/1cdfSMK7eOtEoEqtM1rdIPF5+x7CzOTXGvgunhTbUgUTK05Y0HseRFxTB+USxjMamExyYQpb5TMaMoL47KDySGIpXUDr3Dc5IAJVOBtbsxPT0w18NzHQmko8+CR1Om8H1W2Oq2iBmf1zBFXKKmdJpklBFU8XleyxihMRrxWxufTcEBVvpYZQPagYsYZVW1cDKsZcn/jpcUS0GFQGa+UeX60pBoy39sBVPagu5v5VsVVJAypKDnwOdyilNPnTc+/ExdaAQPHWVtdnAJU1tVyTpRIn0zzifRWolEHhQyhLbMVeJFogp6CGydQOKo7AZweVhyAHfnDm+045esR3alBZrBXNqhSwEDVsC65Y4xGxpZe8wOTRmUBFMX9qq8uahHDFqAYVjYzJtCM5KHIyTxg75CKyEu4sE1hcrX02UKW2uqwtFXxHhQlUVjdwMTu4tmAKHmk2Cm7pCk3TGQ20Jb3EEcNb82SuscVXO6g2roflys9WOzOoLNnA1YByptyfaIFY3yrl0i4no/AeOqgqBBXCDYxykf3Iq5VAkkuIuhk+6zHJBovbQVUjqIBu4NIlKeZOgda3WFtMLG5GoLvVfT0bqESJCo+YGOH+zXKhcDuS8lTandLuGVpNzCUZY7BMa7p3UNVqqTxAFbhf1CUMMWN0CS3JDPau4yNtA14SoE+dCVTcjOeSxPAkWdWWKofGT5rL0AAkzCar5aS4rKASrw31xV+m1CnO5WP2/NSsdJbQGsPQhETaEQToPXqfBlSabfUeAIdZKsVKthZU9F5plzDGkH8Y1rdYVotREGuhI8L9q8ZSaSx5LVXqW0zU+LJWYYgCUSxLuIi3NFth4vy/DsPw7X6/k6KYLwsgy0Q3tWuLlmMsOgzDp2maaGPpUSx4Jksl3UTrchMmxFJpNAQCUYs+irqEoBR8tMCWZEgkycO9ZJymdCZQiUqUAEmaTTGGgCpjPJXCIiTDlvrI3nNgmls7hKcC3wuBSuwteaxREePOBqoaXMK4Oxq5xSQFst2F5quASuMteWz7QIJKtIpNZjdICbk6CHdnS+iKuoSgeCsFpp8UN93v90jPp/aZQCVyuzwybhpvySNJgQKV2OzGlDIwFjkSvqIuodccua7LhUAlVewuSYpioFqb3QyxSC0peKrMsP5EFvgKoFK6fvB9VJGx5phKuHdn/u6eL4vYfpGQWNbakFXq1++DlIaqQPcKoGLM8YmlXvEUxFJpVrGPJuRcPRCJK9L2WpCB5pKMm47GxxA4REq9ZEylCT/cXL9ioOIEql6xyEoAveItyN253LjpyqDSVJwg6HpEc7P7p7FUHFDFQYO2XxzRABpvafz7jcHBLGkmSyVKEkj4f8Q4TehB/Xll/WAxlTeoYur95eUFsf3iiEemeKtk3FSBpSoCKobC2CKNq+tXzP3TBomgGCUVIomsBHBMosr11CTic4bgIWKq7KAyeAQudF7yw+z+aUywFlQLQUFsv0jJZTLe0vjzO64eFQW7/E4KKk1ygujrbqUglipUDohufZDuJ9qTtlLxlsbl3ZiDyd3kIvCEoFLd3hjo5W6lUKCiWjdRShWcfclxw8e8RjRNE5VU0R6q1BU7h4mRVGkRFzCcdgzeNOX+acqRAp2yWKlioLrdbvDjkjOl4DlyvNsGrExYYzkTqAyA2i04YBFR2MgcU9H3FJN10xqgLJyQjMnmouRHsjdBA8aO7CYslTF+Nc9RQHLM1g9NJga1VrE32QwlTxw6q0qLOB0z23ACerPAMYD7brhS3iuUtul7TNrueyTWDuj9EhlAzriB6W7O5961sWY4xR9cvSBQdFZQcYCrFnIroEq43BD3L7iAomSFR1y1J4g5460STFzOW+H+1goqRKmXdW4q3YYElfTQjSy31hsFTkLULCnyhOLQnANvEjyNl5Jy/wRW9og/bnF7SiiQoBLft1rIRYopeNR2d1MVeYpBnOclg3gwqBDWaSZZIdn69W0O07htpAFrThdwPQdQvJVlMXGP/qBFaNPyhmYMW5YKZJ0iqYryBQ0qaVyV3QXcAVfqbLz1ayZB5CopB1fvqUtrDKgBw9KKaECZoF9R3nhYKnFcZWWqVUDj+8wAPx58uXvQCmo8O/3A3KPYv5X+WlCF6hTrDZZrMpniQxTvoJZK41/TRFKBK2qynH4CuOJxzlSWNF/eNo7jl5LXj2qElzNf694ir3Fxxr5qUwWg4JaKOmSUxcBdEAUDmnnFeTnA7CoZkyQoPlQDKBdQaTVXTdYKxWljP3BXbzUeSMrZujhrpBFl+dxORdKODer+LeITccIiuFgfS7pYWiKi38ug/c0WasHrv41V+xbyFc3y7Q3cBVRaa1Wj1rFwXPouM1ki7XbZHr6mplhGsYz/8W7JdajUBFxApY2taktapIiHeg5aM0sNx0Ori+v+UoNkPC9aucIYH3bxd/lBrbW6GLC84yYiJ8zV2xCo3KDyUAwcnIjauFkqi7W6QnyVIW5y33ZiUZwiKf112XfJy/1Ew3UFlZHolJ06XeLCoYJgzXB43LQnUUb+cgTVXTFwBiFt4woqo7Wi108DrAxJCKJXVvdIsybJFNAmwRTn5g6qcNoSpV2191Bl07xMhouaZUpCeMZNe/P1iKeaBlNOUMWb3K3XyGTVwiLkbDfOkYQoJoRA14/KwL6N4ziXgwHoXryLHJZqniSCCWEd62vtxEfMNSEZxa230fU7HZCW/MoGKkB8FcddXKD2BD5H3FTJArnW9StmWXOar6ygAsRXS9oUO/ZrzaCMcVPRSvk4b+VyAKTWMCc4tN/KDSqIG7iabPLMcy1xUu8ttolYTqxNfaY27a6yUjWXFaUYIH2eHVSo+GpjotksVyYwZU+Rc4RHY6UqcVk504O0KQIqR2BR13F3LmWSYNmkAKTfQ0W2dnmAxbRahfAMm1BZDDA2KgaqBbDiLlvjVDZfj66TCmA5gRRGX3U5jjLjd5lYKkpgUVAFYH2Ypkl68IoWgPPZEsMw/NjqYJqm33JYoo1v1xY3PQ3RsEzQ2vqiVrYe7xUHVQFgmYkG7qB6odO6fbkuWQPzw9xdFaAKs7Bc5mUmRIEOSpQWiadpAFSVW93FBFC8UBOo5uGXPvNAQUPpK9W7eosJqdLni/iQdhlc7lcdqE7sDlZbCbIj9RZAVXXsXG5UVwmqSIQMd/pmoXetKfK9yVuPRWttvmghqBpUi1iLKtzpAoTWftkWpFGEscRQYQyXS6Gvad8CqOYxW7UnSugE/dDa2JeWtjQY0uYPslypHGlPFpoB1cIlpHWteAa3a2WDAEBHTauPpVAFwVd3+6IQNAeqpfQuhIHAVTvAqnQFEdbp6tm+Zt2/lNVoBGDVuITgvV+Xj6OW8tm0pUpkr96GYXibpomKYKMVq8WaFdv5CgYTsaADaiWIpwTVgVV7e319JaBFwD2q2IdhmP9+v9+Xle2PvzsII30uC7iCFafCZXgGtScmnqXtaqBKeZGp556lVKaK+vXAF0BC3W28/kT1CZgUM72ed1ApKKvcAiH5EgGMKum/Lyzn0d4wAvuH4O7mqLTvgDrgZgeVRNQXbTU7YJWferIQi/8oESOe5oBTED+euumgMlAWmI42jCLrq1XdWJh15oKPdVAJiLXV9Cz1iSky9IXdFIX+/7yDik+r3ZYNllBJZt3jJwm1aGe5sH1vfkCBE1qt7u4pJL6DSkG0o1dOYrW6dTLIRQeVgXhHrzotFjuN9l231Z+ZkYMIlm90UFmox3i3FXD1RASDmcwmHVRMQlmbVQquWCZFN6n0H4gCHVQgQnK7oZiLzhacpsnzENHUcKrchpIadCvPO6gKcmoBsFhJ71UhQZboR0u7kAuyxfzpDiozCXEdbICMOpcCbb6RcBiGf6dpopKi7trhWMTqqYOKRabijeYtKzSKsG3lXXEts+i2+CSuMoAOqqtwus8zGwU6qLKRun/oKhTooLoKp/s8s1GggyobqfuHrkKBDqqrcLrPMxsF/gc013bXnk867wAAAABJRU5ErkJggg==;fontFamily=Times New Roman;labelBackgroundColor=none;fillColor=#FAE5C7;strokeColor=#0F8B8D;fontColor=#143642;" vertex="1" parent="M2BAR0wibj0y26F96If3-77">
          <mxGeometry x="92.75" y="78.5" width="39.94" height="37.5" as="geometry" />
        </mxCell>
        <mxCell id="7gXZhZWd5zdu9qHWoEP5-48" value="&lt;span style=&quot;font-size: 10px;&quot;&gt;LLM&lt;/span&gt;" style="text;html=1;strokeColor=none;fillColor=none;align=center;verticalAlign=middle;whiteSpace=wrap;rounded=0;fontFamily=Times New Roman;labelBackgroundColor=none;fontColor=#143642;" vertex="1" parent="M2BAR0wibj0y26F96If3-77">
          <mxGeometry x="80.99000000000002" y="104" width="60" height="30" as="geometry" />
        </mxCell>
        <mxCell id="M2BAR0wibj0y26F96If3-9" value="" style="shape=image;verticalLabelPosition=bottom;verticalAlign=top;imageAspect=0;aspect=fixed;image=data:image/png,iVBORw0KGgoAAAANSUhEUgAAAMgAAADICAYAAACtWK6eAAAAAXNSR0IArs4c6QAAFn5JREFUeF7tnX9wXNV1x89dGexJsFZ2WwvbWllSMykm1DCAhP2HHdPARG3cmDhtSUwysWdKiCdje9/yw7QxDgHS8Mu7kilDsNNgpoaStqSYIYM6OAkhM62RqJsAgTBN5bXe8kM0Y2vlpsE/tLdzVlp5f7zdd+/7ee++82Y8EdG59937veej8+67953LgK66CnSt7O+KFWBT0YDDMg7QBQBrNZYsO9P2LAPIFgB+gv+dHRnar3GffG0687V2TSvv6eu/k3P4uOYwyKifZQweL8Rgf/bwUAkimfJNa0uAlA3tDBhfb9rRFutYlnPYnH1l6EUx8+a2IkAAoOvK/rWMwWP4Y3MPt3DvihFldHjoTuESTWoYeUAoajT07Cxvgauj/NgVaUC6e/t/HKF5htO/8ZGOJpEFRBSOjsXt8Nl118BVl68oOtjKK6b/V8cr9+54sdm5d8YBfx4+8hr883MviHQlsvOSSALSvebzr8JvT/xhI89AMO7fldIaCBHPR1Cefu4FePq5Q0Vo6l5z5r7Pz5y6PmqTd18BwXUEOKvGxJfNnX9e4ZIN69nYv21mv/6vD9VzhKiAUd3/EiiD+56oD8mHfudMYfmfPhp77eln+amTZ0QA9NMmCFh9AUTXie+frbu2GDWifB3+j1dh45Ydukjg+/zIc0BmXpni5Feri+A4N1wYTdasn95AoMPFOVztVzTxHBAdowfBUYuBTpGEMfiGX2s23gPS2/8Yh5n9Sxr8+cG3Uk8+cp8GLQ2+iYP7DkDDOUnwTbK8IwPYPzoytNmP5kQekJcO7gecmNNVqwA+at12Vxowmqh8NQ0gl18WzhrCkZ9ZDzA9Wtm7faNHrcUXtgP+C+p6971xwH/VV1MAgnA8nA7+UeYHQy/APfenLceQooeYa+NbLasoEvSYfjW1A6z+2BEgYuNoaYVwICTVFz5WISB02StQby6C0eP7TwanIQFiP1bSFhs2brIMy/R4JS5lo9e+CEhQj1kEiPiYCVuu+qM/FrYlQ3kF8LE5qLklASI/Pg1L4IQOIwhd/ilAgEhq21NnHSToCR02u9EEXbJbZF5HgZ23peBT/dcGog9FEI9lxjceKCpd/ilAgEhqq1IEoUcsycFzYE6TdEnRVAIEm/6dxw/A3z3eYAu3ZP/I/JwCQUYPvCs9YgFA61zvXfDtd8dh5D/V3i7hfa/9rfG6P/Fu3nGmAPBbga9LCBAAaL/A34Gl2tVTAOGYPGXfLgKEALH3kia0IEAAiotJInuxKII0IQE2XSJACJDoeb1EjwkQAkTCXaJnSoAQINHzeokeEyAEiIS7RM+UACFAouf1Ej0mQAgQCXeJnikB4iMg+DEP5pq1unTOoxslTAgQHwHBrBtWCZgpnY8+iBEgBIg+3hpCS90CwluX/Cj7w+9+wo+mB5YXy6+VdIogfrhFsHW6BqR79WlYvfXS7NbWX3rdcgLEa0WpPmkFXAPSsxamrtpy2EzFV0nf3KaA54B0rbvlLTb++ker70sRxOuha576PAFk5RbgwPfmjLabvFTGU0A6MxNfjh3+9qNstPaAVALEy2Frrrq8AgRVYcBvGjPa9nqlkGeAdAwcX8F4y89bDj8CQQJSL29sx5L2QHLuCh5h5tV42daDCfGC6rttYwQNvAQEb8nZ1KW55EJPvpDzDJBEJj8MAL1BAyI4Bp6b4frLxq/saHxsmed3Fa8QDwLC5Hg6XF4DAgAjphHv86LvngCSyOTvAoA7sEFRAaTe2zMvBsWLOnRKreoDICjh3aYR3+VWS9eAJNKTq4Hxl0oNiQogPX3qZ2zUJTm3T4Dgs9YaM9X6UzeQuAckkx8BgCsJEDfD4E9ZPBhIh+02vgEC8IppxHvdqOsKkEQmj49V+Hg1e1EEcTMc3pYlQIp67jKN+N1OlXUMSGf65Mc4K7xefWMCxOlQeF+OAJnWlPHYJWOp+b9worBjQBLp/DPAYH3YgIS1m7feHGTDFfOgr+d8J2PhuMxDh34Db5+YqilPgMxKctA04tc5EdgRIJ3pib/gjH3P6oZBR5Cw9mLVA+TeP28FhCTI64t7J+Dl0dMESCPRGf+cmWyz9NmGxZwMZCKTfwMAlhMgtQoQIPIe5eMkvawx7E3TaL1YtnXSEaQjPXErY+z+ejeiCKJOBNl+4w2wVLETfK1W+oMBBN/6sttyydYHZCCRAqTn3uPxM3NbsgDQRoBYr4OoFEFkHCFIW3z1jCv9peO3gwIEAPItUOjKGgsmRPsrBUgiM/k3APyvGlVOEUSdCCLqBGHYYXTbfuMXircOEBCMIvfmkq0NfbhcD2FAlmV+s7gAZ9+xE5MAIUDsfAR/X/5JdJCAFNt2+vRSc8fv2foymgoDkkhPPAiM3WzX+aABCWs3rw5vsezGKszfhwoI47vNZNstIv0XAqR7YLz9LJ/3nkiFQQMi0iY/bAgQd6qGCggAzGEtFx5NXmCdDqf83ZdINxOZ/D0A8DURWwJEnUcsdMLSRFhk7PywwQiPi7nVV9iAAMA3TSO+067PthHkI3v43FNTkx/YVVT6PQGiDiAqrKSLLOQGPgeZcda5La3zfrWNNTy6xxaQzsH8dl6AAQKkUgEdHrEIkMZey6BgjBkLGvq2PSCZ/C85wB8QIASIqA+U26kcQRjAW2NG/KJG/WoISGJg8tPA+UEZYaL+iHVVwBsVcWys9mHh/08RRMBzGVtvJlufrWfZGJBM/hmA2h27jW4bdUAEhiQwEwJESOqGO33rArLsgYnuwhw2KnSLMqOgAcGsIt//waGaZuLbG9zO4Nelwye3BIjY6MfO8p5jt7YdtbKuC0hiIL8TOEh/iRU0ICLPuGIyyVmtWb9J2YwmpZ6MDj8v1ykfrEXGJ6y3WLPdZXCHmYzjUkbNVReQjkx+nAEsktUsKoBQVhMxz9ABEA7wfs6ItwsDkkgfXw2sZTZTiZgU01ZRAQQXv3Dw6211kdHMa9vq3bJe1y9Tnw6AFPvDp9aYqYU1GVAsI0hHOj/IGGyTEaJkGxVASv1t9MmvE/3cllEtq6IugHAOe3Kp+PZq/S0BSWQmTADW4WSwogaIE42iVEYXQADANI14py0gHZkTaxnEfux0EIMGBN9iDR95raa5Sxcvmv3ewGlfqJx7BTQCBDiPrc2l5v+kvNc1EUR0W3s96YIGxP0QUg1+KqATIMD5bjNVuQ2+FpAGCRlEhCRARFSKjo1WgAC8aRrxisQOFYAsy/x6eQHOw4wlji8CxLF0TVlQM0CgZQ5bXn6UWwUgHZn8Vgawx81IESBu1Gu+sroBwgG25Yz4Q6WRqACkXrZEmWEjQGTUan5b3QABYM+YRutnrAHJ5LnbIYsSILgGsmffE8ptOcF9aNtuvCH0rwnRl/QDBMA04rOBY/aHxEC+FzjgKVGurqgAgnDgfiyVLxXOB9EREGDQZybjeKzHuawmnZkTSQ6xjNsBjwogg/sOwOC+J9zK5Wt5FY5h0xEQxiE5looPVgCSyEw8BcCudztiBIhbBb0rj2cU+rnlX6SlOgICDJ4yk/HPVwNyFIB1iXS6kU1UAFF9Ny+OEQHi1Jt51jTaumcB+f1HTi46/UHBNkeQyO0IEBGVgrEhQJzrfP68WPt/b5n/fnGSnhjIfxI4DDmv7lzJqAOC36QvXRDzQkrhOl4ePWN5gA4BIixhrSGDfjMZ/9ciIHZHGsjcJuqAqJTdnQCR8dxKW875bblU2wPTESST3w8AX3JeHUWQkgIESKUXaTlJn+7C46YR31QC5GUA6NMFEBW+4tvznScsvybUDRC/taynkwKpR+3cfdg04leVAHG9gl66m1+PWCp/4lqutA6AIBT4l90qZ66d13j1ew0AKa6oM5nM7SLi+AWIDq9VUR8dAFEhI4sOgMxhH1zIlu7Or4zF4N9FnF/Exi9AdMhDpQMgqmyR0QGQQgFWsUZHOosAUW1DgKiT3d3qLRYBIu7VjPPrWSIzmQLgu8WLNbYkQNQGBEdPhUessM4olPNzdjNz+w06RZBKBXSYg2AU2fiVHaFN0qsjW+iZFetRw/lu1pnO/z1nMH3cqAdX0BEExd7wqWs8aLlcFZgPGDOqVF86AFJqc9A5vTBnF17Vp16pCgjjcIAlBvLPA4d+Ofeobx00IGFt6a73Vk0nQLwac7f1qAoIMBhiiUzes0VCFIoAUX8O4tahvS6vLCAAw6xT8gQpO3GiDghtVrTzkNrfqwoInkCFEcSzVXSKIPLO4WcJFTYrivRPVUCw7QSIyAha2Oiwsk+AOBzcsmIEiEMNdQCkfK3BYTcDKUYRBAAuv2wFPJy+z1bw9gusTeptNQnrLRa+4kVIVL4IEPejQxHEoYZhL7bZNRvXGjDtjw4XRZAmjCDoeLhtHL93UO3y+wBTr/tLgDQpIF47SlTrI0AIkKj6vlC/CRACRMhRompEgBAgUfV9oX4rDQhtNREaQzLyUQFVASltNaHNij4OPlVtr4CqgABuVqTt7vYDSBb+KqAsILjdXfcPpsJaSS93Gb9zS8m4J36UVP1Bkkz5MGxVBWT6g6n0xIPA2M1eCROV7e4q5+nCjCH4h0MXUFQFBI+F1j5pQ1gRRPXNirTVxIs/+exm7dP+hAWIDnm6VDiCTcRNVY0gxbQ/uieOI0Dqu+CTj9wH+Lil+qUqIMXEcbqkHlVtu7sOEYQAcfenoZh6FKvw8rPbqEzSCRB3zldeWtUIUkxePQOIZ4uFUQdkwxXz4DNXzPPOewRq+ttD/wcvj56usaQIIiBefZOK4w+UP0BHl0cslfJiESCuADl3gI4OR7ARIPUH+4t7JyiCrNziiobqwpVHsGlwiGc9QPAtjd8LYksXL4LPrru24j712qNSBAlCG1mvtNJSyTlI+SGeOhwDrcKkuPyVsg6AyDpvkPblazQqAlJxDPT0RH3iKADrcitS0JN0t+2VKV9+6AsBIqNcrW15zi71AOFZ02jrxlYX32IVARnI/wNw+Jy7bgefm9dte2XLjw4/XyxCgMgqV2mv9glT/Hum0VZkYRaQznR+O2cw4K7b/gGiwqEv5fubCBB3nqIyIAwKxpixoMhCeQTpBQ7D7rrtHyCD+w7A4L5wU+yUvzYlQNx5isqAAIM+MxkfqQBkeh7iPpG1X3MQbB9mM8SDa4K+MHLgIT3l+5p0AAQzKy5dPH1oTVgXjpfV9zIqA4Ir6CW9Zn+YBmTyXwD4dW7E9BMQN+3yuqwOgKiwUFjvswBlAeFw0EzFZxmoAKQjk9/KAPa4cSYCRJ0DdAgQeU/mANtyRvwhywjS9dDkRVNn+Zvy1Z4rQYAQIOX+o1sEicGZi48ZvzvLQEUEmZmHvAEAy51CEnVAnOrmRzmKINKqvmka8YvLS9UC4vIbdQJEelB8K0CASErL+W4z1XZLQ0A60ic/zljhRcmqZ80JEKfKeV+OAJHTlEPh6pyxoML3ayLIzGPWGL7Ukqt+2joqgKiwcGk3PqVVfzs7P3+vzxyE50yjrcbnLQHpSOcHGYNtToSLCiAqLFw2Gh9VTpfSBRDOYU8uFd9eral1BEkfXw2s5SUCpLECOPi4CIY5slS6VIEDNdEFEOBTa8zUwp8KAYJGHZn8OANYJDvwUYkgsrpE1V4HQDjA+zkjbrnlwDKCFOchA/mdwOFu2YElQGQVa257HQABBneYyfg9ViNRF5BlD0x0F+awUdnhI0BkFWtuex0AiZ3lPcdubTsqBcjM26xnAGC9zBAGDUi9DYy6HWQpo7FOthoActA0zu29Ep6DTD9mTX4aOD8oMyBBAyIyADLtJ1tvFRAZn1C/KGRsvZlsfbZer+s+YpUKyJ5ARYB462C616YyIHiC1JgRv6iRxgKAnEhyiGVEB4oAEVUqGnZKAxKD5Nj2+KArQD6yh889NTX5gehwRg0QXANR6gCdmQ+kVElarTIgc1ta5/1qGzvlCpCZyTq+AvuaCCRRAmTjlh1KwVE+PuVZQ0TGzS8bhQH5pmnEd9r12/YRCyvoHvjf9rN86j27yvD3QQOCb7GGj7xW0zRMULb9xi+INNmRjepbTbBTYR0NUS6oqoBg5vajyXbbLRBCgEy/0Zp4ELj9UW1BA+LIuz0opAMgKkQRJQGx2Nbu+C1WqWDivv9ZAuef/7adb0UFENWPYMNxIkCsvTUGc5YcMz78rp0v4++FIwgadwxMfotxfnujigkQEdmDsSFArHRm3zKN1r8WHQEpQLoyJ9qmIJYFgHi9GxAgotL7b0eA1Gg8cd6pqa7R2xfmRdWXAmQmitzKOL+fAEkX83RVXypldydAKkendKSBKBzSj1iz85HM5BsA3DKxQ9QjCAFS6X4KTdJrEjKIgCIdQWbeaF0PnD1ldQMCRJ20PxRBznkoHuk8lmr7RxEoym0cAVKEJJO33OkbNCD1vujD3bx+ribX+8uoUwSxekSUdSA7eyVSj1ZlS7RrsyeAdKZPfoyzwuvVNwsaEJEQLiOIqK3OgCAY2P4wryBTjzIeu2QsNf8XTvrrOILMRJE7AOCu8hsTIOo/YqlwWleAgOwyjbj0l7Eln3YFyAwkmCb+ylKFBIjagODmSkxZFPYVECCvmEa8101f3QOSnlwNjM9mQCFA1AYEnUWFCBLIEWycrTFTrTWZSmSAcQ3ITBTBxyx83Ap8syLNQQDqHQNd7y2WCknvyrM++vRF4d2mEd8lA4OVrSeAzECCp1P1UgRRP4LgYxb+Ycm9Mx54Ti98tNr2lzdUvGH0AZAR04j3uYUDy3sGSMfA8RWMt/w8aEC8EMFJHTq/xXLSXz/LeA0IZ1OX5pILX/WizZ4Bgo3pzEx8OXb424+y0drc15dftgIeTt9n2+b2C2xNlDAgQLwbBi8BYcBvGjPa9nrVOk8BwUZ1rbvlLTb++kerGxgVQLZe82Ho6znPq/ERquf2fzoJb5+YqrFVYSVdpANeAcKB780ZbTeJ3FPUxnNAenr7H+MANe8RowKIqPBB2EUKkFVbDpvJ+CqvdSVAHCpKH0w5FM6imOsI0r36NF+17bJjxnxXxwf6+harVDlFEO8cx21NkYkgrUt+lP3hdz/hVi8CxEMFdYggKh2D0Eh6txGEAewfHRna7OHwzlal/SNWWLt5VdjwZ+cQLx3cD7irWfWLAAEAvybpYa2ko9NhZpOnnzsU+GKbiMOrcD6hSDvRhgBpUkBKDqBUZsUl7VpEjXJ4CJAmB0T0LyXZWStAgBAgxEYDBQgQAoQAIUCmFQh6HSTMSTp5vTcKUATxMYJ4M0RUS5gKECAESJj+p/y9CRACRHknDbOBBAgBEqb/KX9vAoQAUd5Jw2wgAUKAhOl/yt+bACFAlHfSMBtIgBAgYfqf8vcmQAgQ5Z00zAYSIARImP6n/L0JEAJEeScNs4EECAESpv8pf28CRAIQ5UeTGhiaAl9N7YAjP6tNmBipb9JDU59urLwCBIjyQ0QNDFMBAiRM9eneyitAgCg/RNTAMBUgQMJUn+6tvAIEiPJDRA0MUwECJEz16d7KK0CAKD9E1MAwFWhqQBZf2A74jy5SwKkCVouEWFdTLBQ6FYXKkQJ2ChAgdgrR7yOtAAES6eGnztspoBcgff13cg5ft+sU/Z4U8EoBDrA5OzK036v6yuvx/ACdrpX9XWwKjvrRWKqTFLBQIHt0ZKjbL2U8BwQb2tXbv4kBfAkA1vrVcKo38gpkGcCLhRb4RvbwUNYvNf4fUKBmVDu2V0EAAAAASUVORK5CYII=;fontFamily=Times New Roman;labelBackgroundColor=none;fillColor=#FAE5C7;strokeColor=#0F8B8D;fontColor=#143642;" parent="M2BAR0wibj0y26F96If3-77" vertex="1">
          <mxGeometry x="92.75" y="129.25" width="36.5" height="36.5" as="geometry" />
        </mxCell>
        <mxCell id="M2BAR0wibj0y26F96If3-55" value="&lt;span style=&quot;font-size: 10px;&quot;&gt;Usage Steps&lt;br&gt;&lt;/span&gt;" style="text;html=1;strokeColor=none;fillColor=none;align=center;verticalAlign=middle;whiteSpace=wrap;rounded=0;fontFamily=Times New Roman;labelBackgroundColor=none;fontColor=#143642;" parent="M2BAR0wibj0y26F96If3-77" vertex="1">
          <mxGeometry x="82.06" y="162.75" width="57.87" height="25.25" as="geometry" />
        </mxCell>
        <mxCell id="7gXZhZWd5zdu9qHWoEP5-71" value="" style="swimlane;startSize=0;strokeColor=#0F8B8D;fontColor=#143642;fillColor=#FAE5C7;dashed=1;movable=1;resizable=1;rotatable=1;deletable=1;editable=1;locked=0;connectable=1;container=0;" vertex="1" parent="M2BAR0wibj0y26F96If3-77">
          <mxGeometry x="5.25" y="32" width="56.75" height="144" as="geometry" />
        </mxCell>
        <mxCell id="M2BAR0wibj0y26F96If3-54" value="&lt;span style=&quot;font-size: 10px;&quot;&gt;JSON&lt;/span&gt;" style="text;html=1;strokeColor=none;fillColor=none;align=center;verticalAlign=middle;whiteSpace=wrap;rounded=0;fontFamily=Times New Roman;labelBackgroundColor=none;fontColor=#143642;" parent="7gXZhZWd5zdu9qHWoEP5-71" vertex="1">
          <mxGeometry x="-0.1299999999999999" y="98.5" width="56.75" height="21" as="geometry" />
        </mxCell>
        <mxCell id="7gXZhZWd5zdu9qHWoEP5-51" value="&lt;font style=&quot;font-size: 10px;&quot;&gt;Interaction Prompt&lt;/font&gt;" style="text;html=1;strokeColor=none;fillColor=none;align=center;verticalAlign=middle;whiteSpace=wrap;rounded=0;fontFamily=Times New Roman;labelBackgroundColor=none;fontColor=#143642;" vertex="1" parent="7gXZhZWd5zdu9qHWoEP5-71">
          <mxGeometry x="11.750000000000004" y="38.010000000000005" width="36.61" height="22" as="geometry" />
        </mxCell>
        <mxCell id="7gXZhZWd5zdu9qHWoEP5-50" value="" style="shape=image;verticalLabelPosition=bottom;verticalAlign=top;imageAspect=0;aspect=fixed;image=data:image/png,iVBORw0KGgoAAAANSUhEUgAAAMgAAADICAYAAACtWK6eAAAAAXNSR0IArs4c6QAAC41JREFUeF7tnUtzFccVgLvnggRKiY3whsfCsq0iK1ilim1UUF7Ef4hyYtlx8YecRQpK3lKVFaxCybGyMPbG0gYqSCBmOjWDrrgSuo/u6cfp6U9LaXrm9HfOd0/33HtHWvEDAQhMJaBhAwEITCeAIFQHBGYQQBDKAwIIQg1AwI0AHcSNG6MKIYAghSSaaboRQBA3bowqhACCFJJopulGAEHcuDGqEAIIUkiimaYbAQRx48aoQgggSCGJZppuBBDEjRujCiGAIIUkmmm6EUAQN26MKoQAghSSaKbpRgBB3LgxqhACCFJIopmmGwEEcePGqEIIIEghiWaabgQQxI0bowohgCCFJJppuhFAEDdujCqEAIIUkmim6UYgO0E++/7+zeqdWWuna6rR5cbUK6rSl92mz6ikBBpzUOnR6zYG3dQHzQW9f/Buef+3rR+630n4yUKQVgrdVDca3XRi8DNsApWp9psLR/tLSu0/f7C9n3K2ogX5YuvenXqkb6QExLXTEmhluXDhaCeVKCIFQYy0RSnx6q0or5uLz2Ivv0QJcuvh5trbenRXYoKISQiBUb1z+HblRSxRxAiy/nBzQ9WjDSFpIAzBBGJ2ExGCfP7dl3fZgAuuSImhNebg0Fx6ErqTJBcEOSRWXz4xHdbLP4aUJKkgbMbzKUSxkQbuJMkEYc8htuSyC2xUmxf/U5d2QnSSJIJwtyq7GpQf8Kje2X2wveM70OiCXNv6auXS6M2ffU+E80FAa/Xs568f/eKTRHRBWFr5TB/nOkUgwH4kqiB0Dwo6NAHfXSSqIHSP0OXB+ZXnLhJNELoHxRuNgMcNezRB6B7RyqP4C7UfRfnP3/75xAeIaILwjrmPdHGORQn4eoc9iiAsrxZNK8f5IuBrsx5FEN4Y9JV2zrMogfbd9Z+2Hj9d9Phpx0URhP1H3zQx3ppAYw52v3m8bT3uzIAogvChxL5pYrwLgd2/PvqHy7jJMVEEYYPeN02MdyHgY6MeRZD1b+9t8mgelxQzpg+BfAT5+/2/9JkoYyHgQmBpVD/p+zSUOB0EQVzyy5ieBHzc6kWQnklguFwCCCI3N0QmgACCCEgCIcglgCByc0NkAgggiIAkEIJcAggiNzdEJoAAgghIAiHIJYAgcnNDZAIIIIiAJBCCXAIIIjc3RCaAAIIISAIhyCWAIHJzQ2QCCCCIgCQQglwCCCI3N0QmgACCCEgCIcglgCByc0NkAgggiIAkEIJcAggiNzdEJoAAgghIAiHIJYAgcnNDZAIIIIiAJBCCXAIIIjc3RCaAAIIISAIhyCWAIHJzQ2QCCCCITRJ0tapNfUUZvdoYc6UdWlX6zfEpXipjXhmt92xO6f3YRi/rqrmqlF5SSl1pGrN8EqNRb5RuYxy9VKZ55f3aNiccx2n0qtJq+VScSr1naapXqjJjvjZn93YsgiyAUitzvWnU9QUOPRbG7Bmlf13keG/HHBecTZxGV7vRRWnj1ObT8QvMrPm/F9vsmabaSyUKgszKkEUyz56mTa5p9PMoidXVqqnrP7rIVlXq11gy27zQTM7lRJTYLzpKKQSZVlU9im58yk6SwK/S2pirjVHrLnKcilOpZ33OMW+sNurWIl1j2nlSSYIg52Wk0ctGNbfnJX2RvwftJB4knpDkd6PUfxeZk+0xfeU43U3idbz2ughyTrZ9JrQ9fSeJ71doj3J8kMR/8bkuq2Z1ktBdefLaCHImEz6WLOclt9Jq1+cdLt8Sn4jsed9kGvMn244z7/hK65dGq+fzjvPxdwQ5K4hSt9tbjj7gnt1oeusiAbpHiKWWVurTpjGf+GbZLX1Go3/HuAOHIBPZC9U9xpfwldSQhedzORiie5yIHKmLIMikIAFf8Y6XMF42wjpQl/MpcugXG58iz+pwCHJakCDLq4nlS//Nusc7bNM3wv0367435+fFqlX1LPT7TAiSmyAB9x8+72aFXAb67HTz9kcIMkEo5Jr5JKmV/te8pMz8exRBdO+lIIJ8yOJg/oln6LV9d/elGEEW//ya6wuGr5se7EEWzECI9xZO3er1ceeFPcgJUvYgE9W1HuH/pIfeWFZV/6VL14UyuIulIiwFe3fjBV442YNMQgqcVF/vpofudF4KL3Cn8/ViM88RBJkk1H2nwtwK8U66l/3Hh52+88fb5xWEz8ILuVGPsf/ocqbVs5+/fvTLPG4z9zF9Bi86NsYSqwPi4ePj583JV/c4caTnx8encfe6rg/URfgs1jnZiyWI6vElqWlFFyShAYovxJenQuzrYnUPOsi0iva41Ar5fRCf3S6IxMd8fS61YsqBILPWdx4kifKNQovvy0ftcB/v7a71/WSv72XqIst79iCBJIn1Ybou/B5333xuymcWnOVDJc6eK3bnONnrsUmf8zrS7UmaVaX19UXubqX67nS3d6qaq0N6qkmbmRD7okU6B4LYUGqP/SDKqjJq+eNnOZk9Mc+bei/06vi5WO8Lbfz8rrSP0TnBPuu5WOPndyV4islHnYsOYmsKx5dEgD1ISdlmrtYEEMQaGQNKIoAgJWWbuVoTQBBrZAwoiQCClJRt5mpNAEGskTGgJAIIUlK2mas1AQSxRsaAkgggSEnZZq7WBBDEGhkDSiKAICVlm7laE0AQa2QMKIkAgpSUbeZqTQBBrJExoCQCCFJStpmrNQEEsUbGgJIIIEhJ2Wau1gQQxBoZA0oigCAlZZu5WhNAEGtkDCiJAIKUlG3mak0AQayRMaAkAghSUraZqzUBBLFGxoCSCOQjyLf3NlWlL5eUHOYqgMCo3tl9sL3TJ5I4/+UWQfrkiLGuBHIR5PPvvrzb6GbNdZ6Mg4ATgVwE+WLr3p16pG84TZJBEHAlgCCu5BhXBIFcBPns+/s3jVG3i0gKk5RDIBdBWmLrbNTlFE4pkeQkCBv1UqpS0DxzEmT94eaGqkcbgvARytAJ5CTIta2vVi7pw7u8YTj0qhQ0v5wE6fYhdBFB1VNAKLkJQhcpoCglTTE3QegikqqngFhyFIRbvgUUppQp5ipI98ZhbTbYsEuppIHGkasgLLUGWpDSppWzIEgirZoGGE/ugrAfGWBRSprSEARpefJxeElVNaBYhiLIyXLrqLrJxn1ABZp6KkMSpGV56+Hm2tuj6g6SpK6sgVx/aIKM09ItubRaQ5SBFGqqaQxVkJZn+7GUP6jDDURJVV0DuO6QBRmnp/v81tLrG9W7i2uNqVfoKgMo3FhTKEGQsyy7fYpSa60w7d86adofnrsVq+zyuU6JguSTnbIj7b7akPquJIKUXYTSZ59cEgSRXiLEl1QSBKEAcyCQTBIEyaE8iDHZJyUQhOLLiUD0ToIgOZUHsUbvJAhC0eVIIFonQZAcy4OYo3USBKHYciYQvJMgSM7lQezBOwmCUGRDIBCskyDIEMqDOQTrJAhCcQ2JgPdOgiBDKg/m4ruTZPN/0kk9BGwI+Ookh/Xyj79t/fDa5tpnj43yf9L7BMjYMgn0lqQxB7vfPN7uSw9B+hJkfDACfSRZGtVPnj/Y3u8bHIL0Jcj4oARcJBnV5sVPW4+f+ggMQXxQ5BxBCVg9L83DnavJySBI0NRycl8E2qfbrFRHt6c+2aYxB0sXm6c+llUI4itrnCcJgfGTbdqL62Z0cPBueb/v3appE6GDJEkxF82FAILkkiniTEIAQZJg56K5EECQXDJFnEkIIEgS7Fw0FwIIkkumiDMJAQRJgp2L5kIAQXLJFHEmIYAgSbBz0VwIIEgumSLOJAQQJAl2LpoLAQTJJVPEmYQAgiTBzkVzIYAguWSKOJMQQJAk2LloLgQQJJdMEWcSAgiSBDsXzYUAguSSKeJMQgBBkmDnorkQQJBcMkWcSQggSBLsXDQXAgiSS6aIMwkBBEmCnYvmQgBBcskUcSYhgCBJsHPRXAggSC6ZIs4kBBAkCXYumgsBBMklU8SZhMD/AdUL/hQOusBYAAAAAElFTkSuQmCC;fontFamily=Times New Roman;labelBackgroundColor=none;fillColor=#FAE5C7;strokeColor=#0F8B8D;fontColor=#143642;" vertex="1" parent="7gXZhZWd5zdu9qHWoEP5-71">
          <mxGeometry x="4.859999999999999" width="43.5" height="43.5" as="geometry" />
        </mxCell>
        <mxCell id="7gXZhZWd5zdu9qHWoEP5-175" style="edgeStyle=none;rounded=0;orthogonalLoop=1;jettySize=auto;html=1;exitX=0.75;exitY=1;exitDx=0;exitDy=0;strokeColor=#A8201A;fontColor=#143642;fillColor=#FAE5C7;" edge="1" parent="7gXZhZWd5zdu9qHWoEP5-71" source="7gXZhZWd5zdu9qHWoEP5-50" target="7gXZhZWd5zdu9qHWoEP5-50">
          <mxGeometry relative="1" as="geometry" />
        </mxCell>
        <mxCell id="7gXZhZWd5zdu9qHWoEP5-86" value="&lt;span style=&quot;font-size: 10px;&quot;&gt;Prompt Engeening&lt;br&gt;&lt;/span&gt;" style="text;html=1;strokeColor=none;fillColor=none;align=center;verticalAlign=middle;whiteSpace=wrap;rounded=0;fontFamily=Times New Roman;labelBackgroundColor=none;fontColor=#143642;" vertex="1" parent="M2BAR0wibj0y26F96If3-77">
          <mxGeometry x="77.88" y="44" width="66.25" height="34.5" as="geometry" />
        </mxCell>
        <mxCell id="7gXZhZWd5zdu9qHWoEP5-103" value="" style="endArrow=classic;html=1;rounded=0;strokeColor=#A8201A;fontColor=#143642;fillColor=#FAE5C7;" edge="1" parent="M2BAR0wibj0y26F96If3-77">
          <mxGeometry width="50" height="50" relative="1" as="geometry">
            <mxPoint x="61" y="96.83000000000004" as="sourcePoint" />
            <mxPoint x="90" y="96.83000000000004" as="targetPoint" />
          </mxGeometry>
        </mxCell>
        <mxCell id="M2BAR0wibj0y26F96If3-25" value="" style="shape=image;verticalLabelPosition=bottom;verticalAlign=top;imageAspect=0;aspect=fixed;image=data:image/png,iVBORw0KGgoAAAANSUhEUgAAAMgAAADICAYAAACtWK6eAAAAAXNSR0IArs4c6QAADCtJREFUeF7tnUtSHTcXgKXmLiAhmQcPoCqrMF6JzRC8CJtFGA/hXwmwilTBwDfzhGQBcJVS39wY+HlI50inH/oYucqtPq3v6LunH2q1d/xBAALPEvCwgQAEnieAIIwOCLxAAEEYHhBAEMYABGQEqCAybrRqhACCNJJouikjgCAybrRqhACCNJJouikjgCAybrRqhACCNJJouikjgCAybrRqhACCNJJouikjgCAybrRqhACCNJJouikjgCAybrRqhACCNJJouikjgCAybrRqhACCNJJouikjgCAybrRqhACCNJJouikjgCAybrRqhMBoBfnpy9WH0Lm3Lrj9dS78TiM5oZsKAsG5Cx/cpXdh+efHvTPFrtajTruDku1//nq9fxfcJ+82UpTcO/tqjUCUJfjbg78Pf11K+z4KQX74+tuOD4tTxJCmkXYvEei8e/fH4e6FhNLggiCHJG20ySMQlit/905SSQYVJMrRhcW3vM6yNQQEBHw4uzncO8htOZggazm2zrn4zk0Z20sJrPztm9wqMpggP55cn3PNIU017SQEJNcigwjCqZUkvbTREvAhHOTe+h1EkO2Tq2+cWmnTTftsAsEd33zc/ZzTzlwQqkdOeti2KIEpCLL95fqz8+5T0Y6zMwikEJiEIJxepaSSbWoQmIYg16FG39knBF4lMHZBuP54NYVsUJMAgtSky74nT2DsgsTZuqvgzicPmg4ICYSlD+74rrsTTRxcuEX/ysPKhfcu+A/ZB9GcID6c+ZW7jKB858VTmrNBz7jBauX2g3dvvQs7JZ9Vxannfx3tviuFbn03NLzPOsZWBCkxz79Uoua6n7Jz5cLy5mjvTWlW2Y8MmhBEOCuzdHJa2V/2IHwKjGBgpvDNPmUXHIfpk/TsDv0fpTq/RCnJaHkb7dQgyRyoVN5ZxzZ3QSSzMVNBs93zBLQ/bDXzhiD/5Y3qMaTEWQPx0YEiSGLmNL9Epe+CJB4ym/1LQPP+Tt1TrIyZGbM+xRJ0jtFdjsD216tT0bOH/h687HXX144+e2aGYAxN5yJd0LnXAPP/6QRUgsSHe4LXXV87uuyqJhhDCPJaFvj/noBWkNLPrkS3nxGE0VyLgFaQzXHdX/lQcqzfV9sUrLSJIBLktEkhUEqQlFjVtkGQamib3zGCGAwBzW1eJ7DfoEvNhEAQg1QPKUhcLT52sT+Hbe1v5X/vOndx626XuQunbVAhiMGgGUKQdcxwmjUt2oDFECE0d5LmIIjkif6sb/OqhBxiBBvFlDyTmIMgN0e72eM9u4Emh6oBK7gG0cwf0vRz/G3zVzufuiDSqUqzFUQl4/hHuPoIc+dHTVsQ+UTX2QoietKqHnYT2kFmRZ6yIJJrj00m5yuIZnLdhMa5+FAbECSeVm15dyz9ulRkO1tB+o+Aen8qHkBzbzhTQfqpLD4s42IeuSu5P5Xy2QpSdtGB+dmSeydLc4qlOcUZmvxsBYlguQ55ZnhlVo+epeKUFUESNVfdWRIk9bskmesnJfZnkptJOSJI/XQPIUjsVR/3wYJo9fs6qgjeXbh/p5tIL1ipIAYZHUoQg67NPgSCGKQYQQwgVwqBIJXA3t8tghhArhQCQSqBRRADsAYhEMQAMhXEAHKlEAhSCSwVxACsQQgEMYBMBTGAXCkEglQCSwUxAGsQAkEMIFNBDCBXCoEglcBSQQzAGoRAEAPIVBADyJVCIEglsGOoIHHq+9Zqaz8u+ROCYMlKAza1Q/jgLlfd7dkQy/4wmzcxu0NUEF6cepic3HfRN62pIImDXLOZtSDI8Uy2BFPeEUQz8hPbWgqS/XGVxD7MZTPeKEzL5GzfKKR6vDwAck+1qCBpQqm2sqwgvG77SqoyP4uGIKqhn9bYVBDFK6JpvZn4VpnXIQhikG9LQTjF4hSrxJCe7TVIhMPavM8NkfylOKkgJXR7ZR+WFaQX5Mv1Z+fdJ4OuTSqE5MEdghik2FqQ2CW+D3I/sWHZeX8gWdkEQWYqSOxWfCaycIuduPSP68IvBl0dXQjtUpwIYpDSISqIQbeaCIEgBmlGEAPIlUIgSCWw93eLIAaQK4VAkEpgEcQArEEIBDGATAUxgFwpBIJUAksFMQBrEAJBDCBTQQwgVwqBIJXAUkEMwBqEQBADyFQQA8iVQiBIJbBUEAOwBiEQxAAyFcQAcqUQCFIJ7BgqSC+mC+9dcPsG3RxdiOD8Mn4auXP+f5KJirFDCGKQ1iEqiCaxBkjsQwR3LFkfS8NRMr3eHszTEef9whTvgzyd9czXbakgRrpaVhCW/Xk5qSz7kzboZ1tBeJvw5QHAsj8Iwuu2L40Blv1JMoQKkoRphhtlXodwkW4wBiyvQVSxDFgMHSL3zhKCGGRMNWgzf/H6Oy8nV9+ca/NzBy+nk2V/Uof7bE+xIoD1naytcyR5OBxyqwe3eVN1Um5nXUHi4bLsz/ekBecutrw7ljxN5xRLOfhTmg8hyOa4Yuz4737pn8b+vAvLu+7uQvp1KSqI0YAZUhCjLs42DBXEILUIYgC5UggEqQT2/m4RxABypRAIUgksghiANQiBIAaQqSAGkCuFQJBKYKkgBmANQiCIAWQqiAHkSiEQpBJYKogBWIMQCGIAmQpiALlSCASpBJYKYgDWIASCGECmghhArhQCQSqBpYIYgDUIgSAGkKkgBpArhUCQSmCpIAZgDUIgiAFkKogB5EohEKQSWCqIAViDEAhiAJkKYgC5UggEqQSWCmIA1iAEghhApoIYQK4UAkEqgaWCGIA1CIEgBpCpIAaQK4VAkEpgqSAGYA1CIIgBZCqIAeRKIRCkElgqiAFYgxAIYgCZCmIAuVIIBKkElgpiANYgBIIoIP/05epD6NzbfhevfklWs9p6WCoOs7mm8eu2fx3tvtN2/MeT63Pv5Eu2ShbL1h5zqfaq1d3jKdNdcJ808Ep1hP08QUDwyYinOGo/Z9ekIH3V8P6UgTleAqUGpvaDqKWOYwjSogqiBTZER1uMeXO0K8rvk1Xk5DpIGTYniOaCTQqZdvkEECSf2eMW2b8wVA89dKs9IIieNILoGY52DwiiT022INo7GvpDZg+pBBAkldTz2yGInuFo94Ag+tQgiJ7haPeAIPrUIIie4Wj3gCD61AwniA9n/eGv/O/6brCHpwjcfNz9XIrMNs9B0lBqLtI13+lOOzq2qkUAQRLJigUpNC8o8TDZrDABBEkEKhLEh7Obw72DxBBsNkICCJKYlHxBwvLmaO9N4u7ZbKQEECQxMdmCcGqVSHbcmyFIYn5yBZnyTM5EJE1shiCJac4VpOS9+MRDZLMKBBAkEWquICt/++bvw195VTaR7xg3087gnvJZRPUHhQgyxiGfd0wIksErt4L4EA7+/Li3fmrO3yQJ5Ob8cSepIC+kPT49D/72gNOsSbrRHzSrmmTkTvRrwq3eDMLj2lSU70ddoIIk5HTKkBK6N8tNVCth3iMy5dxXv0h/MHKCO151t2ecbo3fp5ILcyBIRr7jNUnc3Ad32XXrf/NnQyCsws4mku/8g1vvm//rV8jsV8fUrID5sD8IYpNfokyUAIJMNHEctg2BKc+msL0GsckHUUZGAEFGlhAOZ0wEpv26Q3YFYdHqMQ2+CRzLxJ+BZQuinZczgZRyiAUJTPkCvb/bKmGxfXL1reRtQMkx0GYKBKZ9eiUWpNQT1imkmGOUE5h69RALEhuWmKMjR0/LsROID4RLfP5t6H6KTrE2B72WJLzndGvoNI4t/vRPrTZEVYLEnXz/TmGcxlBuesLYUs7xpBOYw6lVMUEeY4t3udJROrdwi51VCKfIlUNtrNuGZef9wR+Hu7OZY6euICVSFaXyYXHK13JL0BxmH3O55nhMbxSCbA5qfXeMajLMEJdFnft6y6MS5IEoK7cfvHvr3WaKNtc3siFculVYOu8u/Mpd3nV3F3N/t2eUgpROKfuDgJQAgkjJ0a4JAgjSRJrppJQAgkjJ0a4JAgjSRJrppJQAgkjJ0a4JAgjSRJrppJQAgkjJ0a4JAgjSRJrppJQAgkjJ0a4JAgjSRJrppJQAgkjJ0a4JAgjSRJrppJQAgkjJ0a4JAgjSRJrppJQAgkjJ0a4JAgjSRJrppJQAgkjJ0a4JAgjSRJrppJQAgkjJ0a4JAgjSRJrppJQAgkjJ0a4JAv8A6VMOUHP2J6YAAAAASUVORK5CYII=;fontFamily=Times New Roman;labelBackgroundColor=none;fillColor=#FAE5C7;strokeColor=#0F8B8D;fontColor=#143642;" parent="M2BAR0wibj0y26F96If3-77" vertex="1">
          <mxGeometry x="15.5" y="96.5" width="37.5" height="37.5" as="geometry" />
        </mxCell>
        <mxCell id="7gXZhZWd5zdu9qHWoEP5-49" value="+" style="text;html=1;strokeColor=none;fillColor=none;align=center;verticalAlign=middle;whiteSpace=wrap;rounded=0;fontColor=#143642;fontStyle=1" vertex="1" parent="M2BAR0wibj0y26F96If3-77">
          <mxGeometry x="18.62" y="86" width="30" height="18" as="geometry" />
        </mxCell>
        <mxCell id="M2BAR0wibj0y26F96If3-107" value="&lt;font style=&quot;font-size: 10px;&quot;&gt;Sql file， Start method&lt;/font&gt;" style="text;html=1;strokeColor=none;fillColor=none;align=center;verticalAlign=middle;whiteSpace=wrap;rounded=0;fontFamily=Times New Roman;labelBackgroundColor=none;fontColor=#143642;" parent="1" vertex="1">
          <mxGeometry x="382" y="404" width="108" height="26" as="geometry" />
        </mxCell>
        <mxCell id="7gXZhZWd5zdu9qHWoEP5-8" value="" style="rounded=1;whiteSpace=wrap;html=1;fillColor=#E1D5E7;strokeColor=#E1D5E7;" vertex="1" parent="1">
          <mxGeometry x="645.5" y="525" width="111" height="217" as="geometry" />
        </mxCell>
        <mxCell id="7gXZhZWd5zdu9qHWoEP5-4" value="" style="rounded=1;whiteSpace=wrap;html=1;fillColor=#FFCCCC;strokeColor=#FFCCCC;" vertex="1" parent="1">
          <mxGeometry x="376" y="525" width="112" height="217" as="geometry" />
        </mxCell>
        <mxCell id="7gXZhZWd5zdu9qHWoEP5-2" value="" style="shape=image;verticalLabelPosition=bottom;verticalAlign=top;imageAspect=0;aspect=fixed;image=data:image/png,iVBORw0KGgoAAAANSUhEUgAAAMgAAADICAYAAACtWK6eAAAAAXNSR0IArs4c6QAADxFJREFUeF7tnT92HLkRh8FDrDPvo84gR3aw4g3WkZVRipw58sYS4818AVHZOrJvICrwRqsziLaz9SHoV6MB1dPTjfrTPc0B8PV7ehLFRgP4qn5AFRqDuUiH16uU0nVK6cXo//kRAq0TuE8p3aWUPqaUbnNnLwa9/oAwWvcB+mckIAK5SSndZ4EgDiM5buuGgIjktQhEwqp33XSbjkLATmAnEBGHiIQLAhA4JHAnAvmcUrqEDAQgcERgl4M8AAYCEJgmgEDwDAgUCCAQ3AMCCAQfgECMADNIjBulOiGAQDoxNN2MEUAgMW6U6oQAAunE0HQzRgCBxLhRqhMCCKQTQ9PNGAEEEuNGqU4IIJBODE03YwQQSIwbpTohgEA6MTTdjBFAIDFulOqEAALpxNB0M0YAgcS4UaoTAgikE0PTzRgBBBLjRqlOCCCQTgxNN2MEOLQhxo1SnRAQgXBoXCfGpptuArccHOdmRoGOCFzlo0c5PK4jq9NVEwE5yPpRIHJwnJyu+MZUlJsg0DaBnTiki8PT3eVnEcl3+1PeOW2xbSegd4cE5OsP5I98/cHb/KuxQIAGAQgMCCAQ3AECBQIIBPeAAALBByAQI8AMEuNGqU4IIJBODE03YwQQSIwbpTohgEA6MTTdjBHwCiS/cZeXifJvXibGuFNqOwLy8k+u/CLw/f770E0tsAiEbSgmlNxUEQERiwhFvuo5C2iy+ZpA5JU7+7MqsjxNdRHIQnncWjIuPScQmTVkh+8LV3XcDIE6CYhQZHPi0WwyJRARh3yIivyiTmPT6hiBSZGMBYI4YnAp1QaBI5GMBcLHb9swNL2IExCRPMvFhwIhIY9DpWRbBGR167V0aSiQh7b6SG8gECbwGGrxmfQwQwo2TmA3i2SBMHs0bm265yawy0U49sfNjQIdEdidarL0yJ/8NlJOgpA/XBB4SgLyqkJecMvf1wvf590sPVnxZngCxFNSoW4ITBBYuo/wbsnZvPJqnhkDv6yBgMwo8o7Pe91HT3d/XCf21sj9EHgiApH3fCGBHLxpfKLOUi0EvARC26giMwh5h9c03H8uBNyzSEQg8gpeQiwuCNRGwJ2LRAQiG7mKn8KqjRrt7YaAhFmfPb2NCET7FKKnfu6FwNYEXLtGTiKQh1/TL1v3mvogkC7Sny++SZ8UEmcjkOeYDAKbErhIv0MgmxKnsqoIIJCqzEVjtyaAQLYmTn1VEUAgVZmLxm5NAIFsTZz6qiKAQKoyF43dmgAC2Zo49VVFAIFUZS4auzUBBLI1ceqrigACqcpcNHZrAghka+LUVxUBBFKVuWjs1gQQyNbEqa8qAgikKnPR2K0JIJCtiVNfVQQQSFXmorFbE0AgWxOnvqoIIJCqzEVjtyaAQLYmTn1VEUAgVZmLxm5NAIFsTZz6qiKAQKoyF43dmgAC2Zo49VVFAIFUZS4auzUBBLI1ceqrigACqcpcNHZrAghka+LUVxUBBFKVuWjs1gQQyNbEqa8qAgikKnPR2K0JIJCtiVNfVQQQSFXmorFbE6hdIHf/Sun+v/PULn+b0os/rENVq+vVy23qkf5Iv4aXMJD2PdU11aZhWzR2nnbnvq9l12LdtQvk9V9Suv1pvosC8cM/PPjn7332vCxGqWcNo139sezsnz8dC0QYCIunurS+a32KtlvEcvntFx7Xf1qH/0FbahfI2x9TuvmxPIOIQ61xXfym/JQ3P6T09oflNWlCfPj1uI5eBTImkSOG1cRSu0Bk6pbRqXRpo5vFpS0OuNZsVRKiOMCU4C3ts/Qzeo/G+FQzSKm9EvLKoDUOR119rF0gEnvLiHtqgWihnNQ/57weg2iOLkZ/9zdmECtTsYmIJJwf1i4QAaWNTmuEPlrYkw2mjaSaYTWBiDimjK2V0+pd+nut35qNltZfKr/LT14Gw98WBKKN7muEPlr+kQ20VIxaXxBITEoikg//DIRbLQjk1Im6Z3ReKkZtpppawRKXsbRxjRW2OfcU4ZZifW0GkbZJYl26JJz+935JX/59/5/yquJUAu9esGlBIJZEfWrlxzoWaaP68DlL8xBtpprrh0UgSxhYWc3dpwlkLrfSBCO2//hzeal/+AwtFDyqrwWBnDpR14w7huo2wuABJYGUnKhHgQy5iw9cfa/PKO4ZvgWBnDpR10b1sUCieYjm5KXnamWlja3NIGPuloHSPcO3IhAtDHKPHHv6FscbG+pUdc0l6NYcpHWBCAdLuD2Xx02Gc60I5FSJ+txzRQRze5/co9TeMprIS4a1CLkHgVhmEVcI3IpAtJFjbaeV0fz93+dF4jLCXiDaClbJwRHI1/Ff41iaiZtM0qVTq48ce1Jz+YeM5uKUc/vAIgKJJuiEWIdurS2qdCkQS6LuddrSqCyjeWnW8uYhmsC1xJ8Z5KtIloSqzc4g0jEtD9GcbAxnzunycmvJqb0hnebg2qinle9hFSvbTwuxXLlYKzmIZQXDO6rPjUTD9xGlsMizWqKJW3sWAvk6vGnL8t0KRAtTvKP63Eg0HM1L8a4npNPCAs2oCOSLQDQO3igitTSDaAIRgNpInMehUn4xfEZp5PdsnyiFBZbnaI7RQ4ilrWR67P84H7UkkDUTdS1BtwjJM2MtWcGyjJytC8QyOFoGmqaT9DUT9bmQZ5zHaIbRQiNL7qQl6D0LRPiXltuzw3sGqwORtDaDaNOsNVGfC3nGo5AmEEseooVHlrBQe4YYfeqTiEcjpvE/vKfFaO8mtNE9n1yTt7jnre+lAzuGXbHYYbLrrQlEc1jrSDIX8kyN5iXjW5JCbQXLMgtZBGL0fdNtmkOPH6IJxFRp8KawOKS+3gRiicVLzjY1mpdWoCyCLJW3OiICOVaPRAvaB7lUzbUmkDUS9ZLDTo3mWlinzQBLV7CsOYjqDI4brMLNj9x6BrHM3KbutigQLWTR4FnzjwxYC+u0Kb60gmVJ0BHIsauvdj5WiwLRRnRNIHMOWypXmgVK5bS2WhJ0BFKeC7o/1WSMRxvRSytZpVi+NBOUQohofZZ8KfedHEQPmKwrmE0v80rnNIGUEmdv/mFx0Gh9HoNaBLLmqSbf/d53zpSWg+QzdjU3l2XebGPt3qnfu4//aTHEsiTqc6GLN/9YmoessYJlDbG0xYKIw1nLaALxJv35vUg+1cRzerxlZfGxX60KREvU58KlufzDYsBSsj2Xh5RyF2uC3qNApoQps2jpU57DMhZ77u5vVSBa8jvlsKUyFmeN5CFrbZe3hFgtzSBzM5dn64nppMVWBaLlIVMjiHWD4pxxSrPW1LSuidjj0Ajk0CpaBCF3m3K8VgWymx0L3+cxBcfyAalSzK2JcuzwJac2GW/QGARyaBmxhdiz9K1bplykZYGUQp4pONEEfWiakijHec9aCTo5yPSwZRk01PdMLQtEm2bHcDwbFOdmEs/GxZJALDnPsA0WZ/CEbNbVKet9a69iWerVZnR5hrbLodkkXTqvxfhDON4NipE8ZBw2lVaw1JFt1AAEMm0R7QAHbVdF0wLRRpAhnDkH8+YCJVGOw7pSOOYd7REIAvklpaR82doxJOu7iaUJeq5ZE2WeGTxCsoQTCASBhARifTdhOcHE4qhyj+Wkk5JDm19isYqlmkQ7AkjN9VpO0oWe9d1E6YhR77eklurMYV3pHtVoE27BDHIMxcJEZd26QLREXWL9pS8Ix6axHEm65goWy7zTE4m2cial1MWQ1gWi5QSyknX38/Qh1JFQR6BbjiRdcwULgRwLRBsYpYTJvq0LREBon9ib+447dfotRMBaHiK/n7u8K1gI5JCkRRxSwmTfHgRSclYZRea2SqvTb0EgWh4y97UJplGNHGSWvPZyeFjQZN8eBOKBNgQYGclzeesoNra0+uJqxjUsCemS/qjLRcoNWj4QHRhySLvb6v6T/iWeuZnqG/R8Yw8CiTjrEoNpeUjJl0zTfnAGWerkWvmSADWByAvZN3/Vavjy+913pO+/L13C49KGxKknul7+9iAQLVGfghh11OGzNKeYqtc07TcoEJs0lt/lEodU14NAdv0sbH1f01GHz4qEdtEwyBJiLXev8hOWzCCnbps83y2OngTiHc2jjjo0tDe0WxLWIZCyxKK5XTcziGc0X+KoQzN5Q7uwEQ1fHLPFCH2OM8ji40d7CbE8o/ka+Ud2SM/MtaReZpCvQ0A+KE4GOu82oaOBpBeBeEbzaKI8NUp7Zq4l9fYqkCyA65df6K8iiqEhexGI9Nm6HLjmAWu7Jcn9YWdamLOkXk89Wjuivy+138reUvfltyvMDJaKekrSrTy4DwIHBHqaQTA9BNwEEIgbGQV6IoBAerI2fXUTQCBuZBToiQAC6cna9NVNAIG4kVGgJwIIpCdr01c3AQTiRkaBngggkJ6sTV/dBBCIGxkFeiKAQHqyNn11E0AgbmQU6IkAAunJ2vTVTQCBuJFRoCcCCKQna9NXNwEE4kZGgZ4IIJCerE1f3QQQiBsZBXoigEB6sjZ9dRNAIG5kFOiJAALpydr01U0AgbiRUaAnAgikJ2vTVzcBBOJGRoGeCCCQnqxNX90EEIgbGQV6IoBAerI2fXUTQCBuZBToiUA1Avlfet6TXejr+RC4+CZ9Ulrz4GntRUrJVSCl9Ey+vNRTCfdC4IwIuPw9IpAr+fqOM+owTYGAlcCrlNI7681yX0QgNymlt55KuBcCZ0JA/PaNpy0RgUh4JWEWFwRqI/A5pXTpaXREIPL825TSa09F3AuBJyYgoZWEWK5LBOJW1b4GEYgIhQsC507gRUrpQ6CR9yIQKSgPiFzkIxFqlNmSgDvvGDTuTgSy5AHyLMlJZFXr4/5vloC3ND91jQlIjiF/ZNC/9uYco4fdikCi0w+mgUDrBK5EIKI2yUO4IACBQwIXIhC5Qhk+NCHQMIHdSm0WCLNIw5amayECuy1VWSDyBPdr+FC1FILA+RN4XJ0dCkRmEQm1oku+599tWggBnYCsyMp+w901FIj8LCKR9yKu1/F6ndwBgSoIHG2jGgsEkVRhRxp5AgIiDtkdcrBTfUogWSSEWyewAo88SwIHYdWwhXMCySKRxN21Pfgsu0+jIDBNQGaN96WPb5QEkh8p+QhCwcVaIqAKYy5JL0HIe1zy/pb8c0vg6Et7BPLeQPk77xc0fyL2/7wImUJ3aZ30AAAAAElFTkSuQmCC" vertex="1" parent="1">
          <mxGeometry x="415" y="694" width="37.5" height="37.5" as="geometry" />
        </mxCell>
        <mxCell id="7gXZhZWd5zdu9qHWoEP5-7" value="" style="rounded=1;whiteSpace=wrap;html=1;fillColor=#CCFFCC;strokeColor=#CCFFCC;" vertex="1" parent="1">
          <mxGeometry x="511" y="525" width="117" height="216" as="geometry" />
        </mxCell>
        <mxCell id="7gXZhZWd5zdu9qHWoEP5-3" value="" style="shape=image;verticalLabelPosition=bottom;verticalAlign=top;imageAspect=0;aspect=fixed;image=data:image/png,iVBORw0KGgoAAAANSUhEUgAAAMgAAADICAYAAACtWK6eAAAAAXNSR0IArs4c6QAAEdRJREFUeF7tnYGV5KgRhvsisTeS80ZiXwbKwHcZKAPvRuJzJHcbyfn9GmqG1oCogoJG0t/v7ZvZaVHAX3wCJCh+evBDBahAVoGfqA0VoAJ5BQgIWwcVOFCAgLB5UAECwjZABeoUYA9SpxtT3UQBAnITR7OadQoQkDrdmOomChCQmzia1axTgIDU6cZUBwosy/Kvx+PxzwaR/vd4PL6t6/pngw2XpATERUYaEQWWZfn18Xj820ERwPH11ZAQEAdP0sSbAsuy/P3xePzhrMcv67p+c7apNkdA1FLxwpICnQBBtr+t64qeafiHgAyX/LoZdgQEoqEX+b6u6+8jFSQgI9W+eF6dAfFUD5Bh6FZ8CEBAPGW/ua0TAQJP/b6u69eSywhISSF+r1bgZICgXl9KvQgBUbufF5YUOCEgeIx8OKchICWv83u1AgRELRUvvKMCBOSOXmed1QoQELVUvPCOCgRA/nOiuhcf9XIOciJvsqjjFbgUIOEOllIRa4Twyb4YKj3uG+8a5jiDAlMBsizLP4Io0qDx82+RUPi/fCd/3v/fQ1cBKQZKfv8RwfZ0HSHzkH4uG8MACY1fGvPPQYY9EHOpU1caQCP/ANP7/68OUOjBxad16o1Nhbfph8tN3AGJRIoh6HGXHyulX27yYgqbgvD7nyUn+WXd1xKfYiX0DbvHAAPuHKNB2NNfXHyWaSKpco+si0DzPawRqq2HmYDgP8+6emyWMtejMkGfN+kRFNha6fGJhyWwJ0OTeGL93mhG3nGjiX/ciOK5EOZI8f89GhuA6b7tdFkWPJL18qFHOxhtww+Q0FBwd6gVdBtORI1/u2uObOyj1A9aCTT4iR42fvBgKQp0wj4I1111JxwOWTTTXusDiHGfsYCwjbGvCIBW/dR1ETwYkgo4ml4HumJnncuGIQKyeacdkGVZ/hvmF7l2gTsbYWigJoIGkUBKczmXPdoJQNC7/9ZQDSQF6PeZgxyMUTcovLv9RudcJnl4JA5QAEyqdyne+UpiJABRbSA6snvCXqmoY/Yxb6ay6q2KJQfxe50CARZMpmNQEDPqF52F9FUEpHGIFZ5UxQvP0GtgDDzsEWRLA7hS2oQv8O7kS0sdCYg/ILC4TRSv9HKrpZGNSJuAA9kSEB/xm4ZYeJybW7qMXmR7qUVYfDwVWwnDqqMJOwHxkb0bIPviyYstAlPhuGidmnZFAgGp0DmRZBggKWDkpSChCepEIMgq5dIj3VwzICAnByRX/Hih3tPykrNP/hNvz2WZfo8VywTkooCUqiXQbBPRsCxF0sTfyffbd61w7TZapZaEHO1L0bwFL9Xb+j0BsSqWvv5lQyyf4vtYST2WfkWj9qnNmxUC4qMmAfHRcTorBMTHJQTER8fprBAQH5cQEB8dp7NCQHxcQkB8dJzOCgHxcQkB8dFxOisExMclBMRHx+msTAkIVFqWBWcUnuIp4bquxaAlR8vdj9ZiTddiblagmQHxOuW2t0tVWwYISG839LE/LSChFwEkEvapjwJtVqGfaj8NAWkT+lWppwbkVaL0yJeA9FC1v00C0l/jLQcCMkho52wIiLOgOXMEpCw01nJ5PJXZ4lvFoZCijVHWWGMEpOw3lysISFrGp/330VL2ffAErROwlx8T1+QnE5jhyDYB0SrfeB0BeRYQvQXiTmWDs4UgerlwPCl3HMIhCQKEiEGm6a0ISGPD1yYnIM9KFc/NxuWGSJOmhtzLbqox9Ihqom10Z7qOgHx4S3Wnj+74mjfGJpsBPo1dE3gEpB5JAvKmnbnBhXkDhkTZj2Ypwz6xItRrVXkT+WAoBxjl0xxZsb4ZzpuSgFQCEu72fx241gxdsKk5kqDKdlxWDrF0UBKQN51U63ISd+HScEg1p9k1XAKia7tDriIgbzJXDS+WZTnqQWC3uJyaQ6wh7bw6EwISpLPOF5SRzE2TdKVNzkGqm7s9IQH50Mw0HDI8klXbVU7QCYi9nVenICAf0uElIYZExej1hjv91pg1do3nBXKSXt3kbQkJyLNeiFyPCXsWEuMb79g69h98OpIuPC7GqUyW88UJiK2dV19NQD5Llz0LMHMUgUV8iQ6JI+sQmvRSsXktQpzlWgKS91QcO7hHfN2WNsIepEU9Q1oCYhBroksJyCBnEJBBQjtnQ0CcBc2ZIyCDhHbOhoA4C0pABgk6KBsCMkho9iCDhHbOhoA4C8oeZJCgg7IhIIOEZg8ySGjnbAiIs6DsQQYJOigbAjJIaPYgg4R2zoaAOAvq0YNgnRLeLmPdkCbyxqAqXD4bhCBCPK14ey8BGeR2Sw/yvrchLLDD8gtL+JtBVbpENoAC67XeFzfuNmdND0hYt1bjjG2Jj2ZVdY1xa5oqQOJMAiz4k/Qs7F2sXng8AMSP0DDw+6fPWQBxWNApdS+urLbLbE9hAUS1rwFFiHoYrFgFMPLPXsJrpYCGWC28wZBa/p6BA731KYZYzgfoQCsE8ivu0enVTCyAoAwoKMj+tK9BU8Cot5HVsXKGhPQ6Z+99BADIIRBUDxnC3Rga7WP3TjnEMm4k0zQZaXOqjWxag5brrIDEtrd9E97jxSgOLvLa9zzSI0k59kC1ABbfpeT3+G9o8OIw+bl973mHi6A42ityJ0DE1+YAGBYQcte2ALKHZZtUegPjUckAnWtD9ihXGI5K75DqKXLZ3BEQaIH2hXbW+sEIKBt/OTbuBUiqwFKZ941HnnfaVoVGpw+QxkPL2t2EW++1ruuXljr0CBzXaYjVUs2jtKqIMz0ByRVOyJU7gfzffbjSS9mU3TC/iudSPR9QEBAf5xYjzrwCEE3VpNeJx/ypOUBs6/BJh/ReMtxKFOJoPoPv0ODlE8+NWuY9Gi1S1xCQWuWe0xXnNbMC4lP961ohID6+JSA+Ok5nhYD4uISA+Og4nRUC4uMSAuKj43RWCIiPSwiIj47TWZkSEKh08BBkOhE1rx04SZ/ObaoCTQuIqvQnuoiAnMhZUVEJyCC/EZBBQjtnQ0CcBc2ZIyCDhHbOZkpATrbUBC7hJN25Yc5ijoD4eIKA+Og4pRXVatRCyeMzSeLlPS0Vtpxz0pKPR1oC4qEibVxWAQIykWs/7cYMK4AR+GK/Y3CiYl+6KASk0r0InIDdktsmq2iXI84wr1m9e7j3IIBSa7uyikzGSbq9DeAujyAB2fF9ON3WEu5ItTHHePbhFkDDXr2nFAA9DgSxBUhwttlornty9iBGiYsbaGDPcAS06WlTL7spDbijcFOFgBgAUd3pxZ4yvI3JZoDvD8UwzgQeAcm2AgKiBMTc4MK8IR6ipLJS9UhxwmVZYLP0qNRc3n3h2IOwB1GysV1W1eB20Q73+dXaxGS99FSryvYORMxB0FvJB5E+muY1fJNuaXLnuvbbuq7mCapimFXTg/wawrgeKUhAfNoXh1hKHavunoUeRDUJTAx9OMRSOs3hMgKiFNF8R1YOJ0yTdKXN6iEhh1ifWgMBUQKCy0zDIcMjWbVd5QSdgBicWriUgBi0tESv309wD+cL4Xn7YdyuZVk0k3PJx9zj8SlW0kUExAAILi2eSRGGQWjMpUex+6zxhv7T2R/hcTHOVrHYIyBGx2YuJyAVOmbPpHA4HEaWlCPsKiI11sbnJSAVjk0kISANOj7FDG5ozA1FyCYlID6qEhAfHaezQkB8XEJAfHSczgoB8XEJAfHRcTorUwIClRQvT6cRc13XbNASKSSjmkzjLlNBZgZEsxrZVNlOF6s0JCCd1O9sVuXcozL0WM0behDZiFWz87KzbE/mi8MrXE1ARrrEL69pAZEqzhyjVxOTl0Msv8b6CkvTA/IKUXrkyR6kh6r9bRKQ/hpvORCQQUI7Z0NAnAXNmbMAgnVKeLtsXTc0qCqXzWZbH7bb/UdABrnbBMi6rtjthmfdsoZIwt/M/sRikJxu2QCI73H4od37BQLiJvWxoSpA9iYDMIDm5xCRg8DoHYgFjOiZsYAROxuTy+IJiF5QzystgFj3SwASgQZljs8W96zDmWzJcvdDGBI3oP0+dfYgg7xuAUSKtIXltDxLloRRCE/8SfY/oNcRgOKfgyRwywa9gNz9f4Tft+XtNVqFoSyim2AYu98rQkDc3OY3xNpbiocFHqH43+3vQEr1PthLkYIpN7Tb/z01jIn/Fv+Oxo6P/O3pZ23jz7kl7DnBTeMo9A8BOQEgWWBa7pqD6j1FNtHDDgBh2TxFQAZ5sGaIpS2a9CrbeFvuwt53XG1hXnld6BHjIaUFhlTRCcggh/YEJFcF2XaKnzJ8edq9dzaIop5Ahn0yBGwFIavhuq5fWtpIr8WKLWWaMe0rANHqsD8SLJ4Ax3OC/e97+6n5hnauItft5zzy91c9zmYPom1FjdfNDEhj1S6dnIAMci8BGSS0czYExFnQnDkCMkho52wIiLOgBGSQoIOyISCDhGYPMkho52wIiLOg7EEGCTooGwIySGj2IIOEds6GgDgLyh5kkKCDsiEgg4RmDzJIaOdsCIizoOxBBgk6KBsCMkho9iCDhHbOhoA4C8oeZJCgg7IhIIOEZg8ySOiw4WqLDIPVytGmMOwYLJ2Lvi8lARnkNwKSFhrbit/3jYfl7LgSR6/VrOA9PO022LfYJiAEZJACz9lgaTzOEsxuIQ6n20q4I00hVUdBhx4FZ6RrACQgGuUdrmEP8iyi6shmwxHQpobcy26qnfTaMBXstgYXxA2qKjCIAxNPJgjIhxyqO71cviyL5hwMk03YVto1gTcYEMtx1qX2nDwZuJTI83sC8qamucGFeQOGREcfVY8UG1iWBTZLR0Kby7svZI8eJGHTo62abzIemYoNAlIJSLjb/3XgjKpGvCyL5g5cZXsHIuY66AXlg6drX1saVydAUKTi+fUt5T5KS0De1Pm2rusvVpEVw6GaHmQfRTFVrLsBAg0wL/keRcixuuv9ektQEALSBshRDwLLqmO+OMSqbuu1CTfY1nWVULBZOwSkcoilHE6Yxs9KmyjxHXuQWhhy6VQaEpAP+UzDIcMjWbVd5QSdgPihUuzhCciH2Nbo9fEE98hlKrvKybnko7r7HRXqRE+x/HD4bImAGNUtPi0JDQtPmkqPYvdZJ5/pV9ojIEbHZi4nIBU6YgKHxvwpImOIvA44aj8SLRLrvBCtsTY0KQGp9cBzOgLSoGMcfLulMTcUIZuUgPioSkB8dJzOypSAQKUwl5pOsEyBiuu9OEk/iyufyzktIOeUM19qAnJOjxKQQX4jIIOEds6GgDgLmjN3BAiesJRWqw4qJrPZKTAlIOGRtXX78CudizV4yWO3pVBZQMKES7Pn4ZUVvGvepiUsKZH4onBTpf4pVgBEs7L0ro30VfVu7j2Cb8+03L2X1m2ABCHRZWILpWavdK+K0O6bAs17NkRIw8LIK2vfDkiABPOR1n3GVxa6d90wTsawqrg8W1sQAuIwxNqLHbaZIqJH7RIJrf943ZsCW/ghTzBiYRUbvq7uB58eJDPJAySExb8JPcXk8jf/YTGsLcPIwPNzpqF4P0B2dyJZ2YqfP4f5ypmE8mwgFltY74Xh03uQOkvi2a494bBtDCAHPQy+AjRY7Adg5N9svu1dHgHhRwBiCz/aO9PR9gmIk+JRXFoBCD8BET7S8+x/OuXebEYa9v6nNH5ksC1rvyIER+oRkOa2VW8giC8GUsO31iHd/o7+/v+7NfRaLxGQWuWY7hYKEJBbuJmVrFWAgNQqx3S3UICA3MLNrGStAgSkVjmmu4UCBOQWbmYlaxUgILXKMd0tFCAgt3AzK1mrAAGpVY7pbqEAAbmFm1nJWgUISK1yTHcLBW4HyG790+NoTdL+2lu0CFYypYA26v0M6n2RQuTadjKqSbSRJl4AKEfzPp0hHsDQnu89gygsAxVIKZCMvp8DJHe02KegAcZzLegaKjCtAuu6fuIhB0guHtaneEyGk5amFYYFowK5Y+1ygMh+83iIhQ1An06CDUMshgViGzuzAtj7g0M9n6YPqNBhZMUz15hlpwIeChAQDxVp47IKEJDLupYV81CAgHioSBuXVYCAXNa1rJiHAgTEQ0XauKwCBOSyrmXFPBQgIB4q0sZlFSAgl3UtK+ahwP8BVT4EbrCDey0AAAAASUVORK5CYII=" vertex="1" parent="1">
          <mxGeometry x="795" y="586" width="68" height="68" as="geometry" />
        </mxCell>
        <mxCell id="7gXZhZWd5zdu9qHWoEP5-9" value="" style="shape=image;verticalLabelPosition=bottom;verticalAlign=top;imageAspect=0;aspect=fixed;image=data:image/svg+xml,PHN2ZyB4bWxuczp4bGluaz0iaHR0cDovL3d3dy53My5vcmcvMTk5OS94bGluayIgeG1sbnM9Imh0dHA6Ly93d3cudzMub3JnLzIwMDAvc3ZnIiBoZWlnaHQ9IjIwMCIgd2lkdGg9IjIwMCIgaWQ9Im14X25fMTcwNTI4OTk4MDEwOSIgdmVyc2lvbj0iMS4xIiB2aWV3Qm94PSIwIDAgMTAyNCAxMDI0IiBjbGFzcz0iaWNvbiI+PHBhdGggY2xhc3M9IiIgZGF0YS1zcG0tYW5jaG9yLWlkPSJhMzEzeC5zZWFyY2hfaW5kZXguMC5pNi42YjQ2M2E4MXVBNklxTyIgZmlsbD0iIzEyOTZkYiIgZD0iTTM4Mi40IDUxNC40YzAgNjkuNiA1Ny42IDEyNy4yIDEyNy4yIDEyNy4yUzYzNi44IDU4NCA2MzYuOCA1MTQuNHMtNTcuNi0xMjcuMi0xMjcuMi0xMjcuMi0xMjcuMiA1Ny42LTEyNy4yIDEyNy4yeiIvPjxwYXRoIGNsYXNzPSIiIGRhdGEtc3BtLWFuY2hvci1pZD0iYTMxM3guc2VhcmNoX2luZGV4LjAuaTUuNmI0NjNhODF1QTZJcU8iIGZpbGw9IiNkODFlMDYiIGQ9Ik01MDkuNiAzMjBoNDAwLjhDODM4LjQgMTcxLjIgNjg3LjIgNzAuNCA1MTIgNzAuNGMtMTI3LjIgMC0yNDIuNCA1Mi44LTMyMS42IDEzOS4ybDEzNi44IDI0MEMzNTMuNiAzNzUuMiA0MjUuNiAzMjAgNTA5LjYgMzIweiIvPjxwYXRoIGNsYXNzPSJzZWxlY3RlZCIgZGF0YS1zcG0tYW5jaG9yLWlkPSJhMzEzeC5zZWFyY2hfaW5kZXguMC5pMi42YjQ2M2E4MXVBNklxTyIgZmlsbD0iI2Y5ZWUxMSIgZD0iTTU0OCA3MDRjLTEyIDIuNC0yNi40IDQuOC0zOC40IDQuOC02OS42IDAtMTI5LjYtMzYtMTYzLjItODguOEwxNDQuOCAyNjcuMmMtNDggNjkuNi03NC40IDE1My42LTc0LjQgMjQ0LjggMCAyMTMuNiAxNTEuMiAzOTEuMiAzNTIuOCA0MzJsLTkuNi00LjhMNTQ4IDcwNHoiLz48cGF0aCBjbGFzcz0iIiBkYXRhLXNwbS1hbmNob3ItaWQ9ImEzMTN4LnNlYXJjaF9pbmRleC4wLmkzLjZiNDYzYTgxdUE2SXFPIiBmaWxsPSIjMzU4NjUyIiBkPSJNOTM0LjQgMzg3LjJINjU2YzI4LjggMzMuNiA0OCA3OS4yIDQ4IDEyNy4yIDAgMzguNC05LjYgNzItMjguOCAxMDMuMmwtMTk0LjQgMzM2YzkuNiAwIDIxLjYgMi40IDMxLjIgMi40IDI0NC44IDAgNDQxLjYtMTk2LjggNDQxLjYtNDQxLjYgMC00NS42LTcuMi04OC44LTE5LjItMTI3LjJ6Ii8+PC9zdmc+" vertex="1" parent="1">
          <mxGeometry x="274" y="595.5" width="66" height="66" as="geometry" />
        </mxCell>
        <mxCell id="7gXZhZWd5zdu9qHWoEP5-10" value="" style="shape=image;verticalLabelPosition=bottom;verticalAlign=top;imageAspect=0;aspect=fixed;image=data:image/png,iVBORw0KGgoAAAANSUhEUgAAAMgAAADICAYAAACtWK6eAAAAAXNSR0IArs4c6QAAElhJREFUeF7tnU9sF8cVx+dnUHoLRhVRQLVs3yqMwHa41Ads51ARqVBSxTQnBI0KUitVitpDFGgxFZZ6SBUpUiNBlNDk1GKUULhwwj/nAKpE/CfCudqWqyDBAYPUG/CrnvHQ/e1vZuf/7uzudy/8+e3Mvnn7PvvezLyZaTBc0AA0INVAA7qBBqABuQYACKwDGsjQAACBeUADAAQ2AA3YaQAexE5vKFUTDQCQmrxoNNNOA94B2f/WmTE7UVDKtwaebH2ysvCPv6z4rrdO9XkBZHji/eOMNc4yxvrqpLzY2/psy9N+AOL2lpwBGZo4PdNgDF7D7T0EKQ1A3NXqBAiFU88arRl3MVBDCA0AEHetOgEC7+H+AkLWAEDctesEyPDE6VZahBZjTXexUIMPDcxPT437qKfOdXgHZG56yqnOOr8MtD0+DTgZs8iDAJD4XjIkstcAALHXHUrWQAMApAYvGU201wAAsdcdStZAAwCkBi8ZTbTXQFSADL79Xl/X0y7Mytu/T68lu1pdK3eunK/1sH0UgBAYjadbLiFlxat9O1dGc1p1n0spHJDnXmPLsvPbRAXeNQBAGCsckOGJ05cYY8e9v11U6KwBAFIwIPAezjYctAIAEicgtMCn1h3DoFZvUnmjsTp3+fykSZGq3VtoiCVKl8dXq2omVu72AJByvz9IH1gDACSwglF9uTUAQMr9/iB9YA0AkMAKRvXl1gAAKff7g/SBNQBAAisY1ZdbAwCk3O8P0gfWAAAJrGBUX24NAJByvz9IH1gDACSwglF9uTVQKUCGj56ZZK1Wbwt7BJfbKh2lbzC28mzL03M+9iWuBCBYcOVoUdUsvsIajc9dky0rAQi2QK2mhXtoFXmScRdPUnpANo9eoEVXuKCBDg24ZodXABCsSAQXmRpYmZue6rfVUekBEYVXI6NjrKfXWie2ukS5CDTwzy86gwmX7XArCcgvj51gPX047CoCe81dhA/+TAedtV8AJHXCFQDJ3S6jeSAASb0KUYgFQKKx19wFASAAJHej8/FAUd9g5MD4i1A46/dbszNsbbX9sN6e3j42Mtp5PhAAASA+7DX3OkSGyz39o/V19slHH3bIxH+/ce0qu7sw3/b7nsEhdvDwkY4yAASA5G7cPh4IQDa1aDJi4GPbH/RBfJhv+DoACAAJb2UlfgIAASAlNt/woq+ttHey6Yl8ror6II/X1zuEyPr95e5utq27G30Q1atDiKXSUL1+RycdnfR6WbxhawGIBiDjP32DvfLqq4aqxe1V0ABysTQAqcKLRhv8acBkZDX91EomK/pTLWqqggYASCpZsQovFW3wpwEAAkD8WVMFawIgKUCG9v6YvfTSDyr4qtEklQb+fWex4xYAkgLkg8l32fjuH6p0id8rpoH7/22xN078EYAkNSCaKAQgFbN8zeYAEIGiAIim9dTgNgACQGpg5vZNBCAAxN56alASgACQGpi5fRMBCACxt54alAQgAKQGZm7fRAACQOytpwYlAQgAqYGZ2zcRgAAQe+upQUkAAkBqYOb2TQQgAMTeempQEoAAkBqYuX0TAQgAsbeeGpQEIACkBmZu30QAAkDsracGJQEIAKmBmds3EYAAkA4NfP/gIbvebD8aQMfEdu3oZq8N9LNdO7br3F6KewAIAGnTwDdLy+zkuU+tjZfgmPzNLzZAqcIFQABImwYO/favjDyIy7V/oJ9dOPuOSxXRlAUgAKRNA68dPeNsnAAkW4WV3FmxLps2AJB244YHgQdRepCR0THW0yvvU6Q3d4YHgQdxDkNirUDkQVRHYKePBwAgACRW+3aWC4AgxFIaUZ33xQIgAKQygNCcxcUrN9nOHdvZyYlx6wk6qufOd8vs4vRNoW5MQyyaC6F5kEOjQ07zIXzCkiYgD40NK99biBvQSS9pJ/16c45NfvzlC+lNJui44d17sM6oHtVlCkiyPltY0hOWVM+FyV9ZfwRUbZT9DkBKCEgaDt4EFSQcDJmnkBnJr3/3rvD0V34/jWKJTpxN18dhUXk72Wx+EZAAkJIBIoMjCxJbMKhOGuIdGR3P/ADTkcs3rn2lBQlVRIb+s7EhdmhsqMMjqFJd8oYEgJQIEBUcIkguTN+U9i1kVk9nhQ/sG2QD+4YyPUe6PIGytrrM/rO6ytZWlhn9O+tKg6KCI9m+vMItAFISQHThSBqRbk4VB4ImA3v6+mzD9Y5yBMjS4jxbWlzIhIWHXjr9obwhASAlACQLDjJuulRfa5HV8xlyn1DI6KI+ytK3C+zuglkaPcnW09vHbs02O6rOI9wCIJEDooLj4OE32cvd3UZ9AJ1+hTc3kqqIQL79dVMLFIKDRtDoujU7UwgkACRiQHTg4F9/nY5ykWCI+iuXv7gk9XxJOHjZIiABIJECYgIHbwJBIjI6CsPI0+QRSpl4Ht5HSYdPIjiKggSARAhI1miOytiTIQzvfKuGaU2MOsS9yc48jZ6p5M3yJNf/9nuvIgKQCAGhGXLRiI4KjmRTyOh4B96rxURS2Y1rV4X9mItn33FKb0k3D4BECIgsvDIBJBI7DiIGjYil16DwB9F6eJ95WwAkQkBo/uLcx1+yO0vLHdLVHZIsOEKsQwEgEQJCIgGSzheTBQfNifjuf5AEACRSQABJ+4spAg4AIomQY1owpfIklGkb4qJO/uPN3Kq11ZWNRyQzdvkAAE1Sbuvezn7U28v27BsKIcpGnZ989KFwziREWJVsBDxIxB6Ei5YFiWqthonF8uFWAkInfT1dN0FDwFBqiGqo1kQumfcIDQc8SAk8CBfx1LlPhZ121VoNXUOUzS3olhfBojOnoVM/gUseJH35HtIVyQIPUgIPIps4pC+2a4jlG4xQoIjmPeBBNrU9Nz2lvRnd/rfOjD1rtGaSL6rFWHN+eip71U+iQEx9EBJL5j1cwiud3C2dr7vuPQTz0WMnrCcvi/Ii8CCRexCZ98jKV1IZrSxnK12OL2jav/v5pnHJDan5WpN799fZ9dl5du/BQ2EImKzTFZK7i/Psxr+utokZ2osAkMgB8e09soZLuSpOTrwuXA6rAk9naa9LfpjM64XsiwCQiAGReY89g0Ps4OEjKnvt+F0Fhy0Y6QepQHHJBsjbiwCQiAGRJS3ajFzJYnhqvmo3FGMSNwsQKKcmPxMep2AbbuXtRQBIxICIzuqw9R6yrXlCpWhwtaogsRmFE3kR8n6nJl63ZVlaDoBECogso9fGe8jgCN3BTUJycXpGmMJvA7zIG4ZqCwCJFBDRdj02xiT62vKwKkRyn+xT7DsbIA19KE8IQCIFRBRe2awpl3mPkCM/WZBQu9KXzYSnaMAhRJsASKSAiHZZNw2vZN4jhCHpBv+ykTnTSc+8wiwAUhAgFHLQJJvoku20/oc/ndO1w437RN4jVKxuIphobsfGi+QRZgGQAgAx3SWRRDTtf8ToPbiqfXkRkzwyfna76ZalACRnQMhziOJw1Rf44M+PGK23KCq5T9UO/rvIi5j2sVQTnyJZTDvzACRnQGy8B4lo2v8QLTDyvaGBLgyi+0RexDTMypr8zJLNpA8GQEoAiGl4RU1KH6xJ/0fDujzUcDFuH2VlntS0sy7b/geASDQQe7q7yIPwlXiiJtmszhP1P2grHPIgMV2iMMsUkOQqSFnb0qsj4UEiXg8iAsQ09lYZuajzGioVQyVL1u+iyVDfunCdL0GIFUGI5dsoRGFHTP0PrnIAYvF5GZ443UoXq9KKwjw8SFkAEenCpr+VZWbwICntlLEP4tuDiCYITeJui++aVRHRSJbLSkmREAAEgHTYRVkAgQex+K4gxLJQWqoIQqz/KwQeBB6kgyiMYgEQ6We2jH0QflBlulEb23pu2258MlTe67ZtfZ5oSbFpSg09m8+FiOR4/OhRxzkiJv0xDPNGMMyrMjDTTrworDDNQVLJ5ON3Hyn9NvlYAKRkE4UqYzPNUaL6RKkmJoahksn1d1lOmmlKv2xT6yz5TPQAD5KzB8k6fzDrpZqmYIhGsmJKNxGFV6ZzILKUfhW8JjlpACRnQLLWZme9WNP5AVmYZboeQmVstr+LwivT/odNoqLpgjEAkjMg9DiChDzJ9w/EKwrvPVjv2AHENMySpYLH4EV87fclCq+or7XrlW4ht8O7+423BgIgBQCi89X1kekqGu4lAyrai4i8h+lAhKyf9c3l8zrq1b4HgEQKiI9tf2RexDTM0LYmjRtlew2bds7zSukHIJEC4mPFHTVN1pEtIv1dBD3JaOM9RIMQITKWAUikgJBYPsKsrKMO8oTE9yFAea2YBCARA+IjzKLmyUItfv5HiD1tk2rNWodvOnxN9Yr6VqEGHwBIxIDIwqyDh9/0kn7Cmx7Sk8hGrOjZpsO6XF6R9wgRXtHzAEjEgMjCLNM5Ed7ErH2kfB+BoJrvsW2DbO7DZPJPYyzhxS0AJHJAfG2yxkOtpcV5dmu2KbURClUOjQ61HbdmYlAEhmwnd16PLRyyvKuQHhCARA6IzIuYThzyZvLM1yxI6F4aCqaJNTqfMHk2oQgWfqLU3HfLynMKbUas+DNlG3H7nvtIthGAlAAQ2R5StjG8rKMr8xR8dnrnju0bt+zc0c0IBrruLD3/U+ey6ZDzeovwHuiDSN5qbMdA+/YiSW9y49pXLL1vlI6xm9zjciYhf44sazek9wAgJQIkhBfhzafJxNuzzY3hYJ+Xy4m2STlkk52hRq4QYimsIEYP4vvE27QKCI611WW2tLjg7FF8gcFllI2+mazrsAUffZAS9EGy1pC4xPUyo7GBhS8bHtg3xAgQn5es/+F7aFokMwCJHJAsOGyHS02Ml4ddj9fX2aNHDzeK0t97evs3/r6xbt4zECL5ZF4kNCQAJGJAiobDBKQ87i0CEgASKSCAQ4xc3pAAkAgByTqFKo+wKg9v4PKMPCEBIBECIst+tZ09dzHGvMpSX8ekLyPLyfK9GAyARAhI1tqJgX2DbGR0PNNuadSHJgB5J3rkwLhx9m+eYCQnK3VSUbKOXvOd9g5AIgSEQqxTk59tbO6QvlRzDLIhUR+z2T6hISO//XWzY9dDekYWJKpzCX3PjQCQCAEhkWwg0dllkPae+smBMaNwxjcYqoxiGSR5w0FyAJBIATGFRAcO3lTyJj19/bmDYnKuOcma3EiuCDiiBITSPNI2Oz89lR10JwrEvnm16ddYx5PQpB2lgttcHJaBvYPe+ynJAzZtEyK5x6NkRdnlO6xKPic6D2LzkpNlqgaIjieRJRnSLLOoHyPTMT9tl07WJehoSNn04lBQTpdu8iPJSWtOaPTO9AoJR5QexFRB6furCIgKEpHO+G7ufDHTxembxqolYI4eO6HVXzENn0iY9KYRsm2BZO2jbF7VYi7jRqcKwINE3AdJi5YVbiXvFR11YAuKztyL6SbSWbup6EASOv8KIZbisxJjujsXWQWJ6hwQG1BUGcO6RxDobjOUBUmecCDEkoASMyBZ4ZYKDpFHut6c31g+m7V01gUQvrbddO8tESRF7CuMEKtEIVZS1LQnMYVDBAvN4NOOJOmOvQ0gPlb7JSFxbZ9tXwSAlBQQ7knu3X++TNZXZ1W03alqcwhRiOVrnyoOKwFSxAVASgxICIOJDZAQbTSpE4AAkDYNAJB2gwAgAASAZLgUAAJAlICo1mmIZsx99UFMwqEQ91YOkMG33+vrerrlbJuyGo3VucvnJ3UVGPswr247bO6TnQBlWhcAkWusYarM2O4HIPrbicreHQABILFx7UUenVQP1YOKmrNQyWXze+VCLBslpMvU2YOozvVQ6TfvVBCVPK6/AxB00oU2ZJImn6ygqAk9VxBk5QEIAAllW5WoF4AAkEoYcqhGABAAEsq2KlEvAAEglTDkUI0AIAAklG1Vol4AAkAqYcihGgFAAEgo26pEvQAEgFTCkEM1AoAAkFC2VYl6AQgAqYQhh2oEAAEgoWyrEvUCEABSCUMO1QgAognIvr27Q70D1Bu5Bha//a5DwrnpKet1T9YFY9HT8NEzk6zVal+VGItwkCMGDfx9bnrqhK0gpQdkc9mu+7I6Ww2iXNQa6Go1xu9cOd+0FbL0gFDDhyfeP85Yw+7QDVvNoVz0Gmgx1jQ5r0bUoEoAQg0jT9J4uuVSg7Gx6N8cBAytgRXWaHxusvmHTKDKAMIbSKBsfbLV/DSZ0K8M9eeiAZdwqtIeJBft4yG100DlPEjt3iAaHFQDACSoelF52TUAQMr+BiF/UA0AkKDqReVl1wAAKfsbhPxBNQBAgqoXlZddA/8Dr0lzBEMgmGoAAAAASUVORK5CYII=" vertex="1" parent="1">
          <mxGeometry x="674.25" y="687.75" width="49" height="49" as="geometry" />
        </mxCell>
        <mxCell id="7gXZhZWd5zdu9qHWoEP5-11" value="" style="shape=image;verticalLabelPosition=bottom;verticalAlign=top;imageAspect=0;aspect=fixed;image=data:image/svg+xml,PHN2ZyB4bWxuczp4bGluaz0iaHR0cDovL3d3dy53My5vcmcvMTk5OS94bGluayIgeG1sbnM9Imh0dHA6Ly93d3cudzMub3JnLzIwMDAvc3ZnIiBoZWlnaHQ9IjIwMCIgd2lkdGg9IjIwMCIgdmVyc2lvbj0iMS4xIiB2aWV3Qm94PSIwIDAgMTAyNCAxMDI0IiBjbGFzcz0iaWNvbiI+PHBhdGggZmlsbD0iIzU0QzNGMSIgZD0iTTY0IDM1MkgwVjBoMTAyNHYzNTJoLTY0VjY0SDY0djI4OHpNMTAyNCAxMDI0SDB2LTIyNGg2NHYxNjBoODk2di0xNjBoNjR2MjI0eiIvPjxwYXRoIGZpbGw9IiM1NEMzRjEiIGQ9Ik0zMiAxMjhoOTYwdjY0SDMyek00ODAgNzM2aC02NHYtMjEwLjg4bC0zMi0zMi0zMiAzMlY3MzZIMjg4di0yMzcuMTJsOTYtOTYgOTYgOTZWNzM2eiIvPjxwYXRoIGZpbGw9IiM1NEMzRjEiIGQ9Ik0zMjAgNTc2aDEyOHY2NGgtMTI4ek05OTIgNzM2aC02NHYtMjEwLjg4bC0zMi0zMi0zMiAzMlY3MzZoLTY0di0yMzcuMTJsOTYtOTYgOTYgOTZWNzM2eiIvPjxwYXRoIGZpbGw9IiM1NEMzRjEiIGQ9Ik04MzIgNTc2aDEyOHY2NGgtMTI4ek0xNzMuMTIgNzM2SDgyLjg4TDMyIDY4NS4xMlY2MDhoNjR2NTAuODhsMTMuMTIgMTMuMTJoMzcuNzZsMTMuMTItMTMuMTJWNDE2aDY0djI2OS4xMkwxNzMuMTIgNzM2ek02NDAgNzQ5LjEybC05Ni05NlY0MTZoNjR2MjEwLjg4bDMyIDMyIDMyLTMyVjQxNmg2NHYyMzcuMTJsLTk2IDk2eiIvPjwvc3ZnPg==" vertex="1" parent="1">
          <mxGeometry x="555" y="697" width="34.5" height="34.5" as="geometry" />
        </mxCell>
        <mxCell id="7gXZhZWd5zdu9qHWoEP5-13" value="" style="endArrow=classic;html=1;rounded=0;" edge="1" parent="1">
          <mxGeometry width="50" height="50" relative="1" as="geometry">
            <mxPoint x="336" y="619" as="sourcePoint" />
            <mxPoint x="376" y="598" as="targetPoint" />
          </mxGeometry>
        </mxCell>
        <mxCell id="7gXZhZWd5zdu9qHWoEP5-15" value="" style="endArrow=classic;html=1;rounded=0;" edge="1" parent="1">
          <mxGeometry width="50" height="50" relative="1" as="geometry">
            <mxPoint x="377" y="657" as="sourcePoint" />
            <mxPoint x="334" y="637" as="targetPoint" />
          </mxGeometry>
        </mxCell>
        <mxCell id="7gXZhZWd5zdu9qHWoEP5-27" value="" style="endArrow=classic;html=1;rounded=0;" edge="1" parent="1">
          <mxGeometry width="50" height="50" relative="1" as="geometry">
            <mxPoint x="795.75" y="632" as="sourcePoint" />
            <mxPoint x="751.75" y="654" as="targetPoint" />
          </mxGeometry>
        </mxCell>
        <mxCell id="7gXZhZWd5zdu9qHWoEP5-28" value="" style="endArrow=classic;html=1;rounded=0;" edge="1" parent="1">
          <mxGeometry width="50" height="50" relative="1" as="geometry">
            <mxPoint x="749.75" y="594" as="sourcePoint" />
            <mxPoint x="792.75" y="611" as="targetPoint" />
          </mxGeometry>
        </mxCell>
        <mxCell id="7gXZhZWd5zdu9qHWoEP5-29" value="&lt;font style=&quot;font-size: 14px;&quot; face=&quot;Times New Roman&quot;&gt;Presentation Layer&lt;/font&gt;" style="text;html=1;strokeColor=none;fillColor=none;align=center;verticalAlign=middle;whiteSpace=wrap;rounded=0;" vertex="1" parent="1">
          <mxGeometry x="406" y="493" width="60" height="30" as="geometry" />
        </mxCell>
        <mxCell id="7gXZhZWd5zdu9qHWoEP5-30" value="&lt;font style=&quot;font-size: 14px;&quot; face=&quot;Times New Roman&quot;&gt;Business Logic Layer&lt;/font&gt;" style="text;html=1;strokeColor=none;fillColor=none;align=center;verticalAlign=middle;whiteSpace=wrap;rounded=0;" vertex="1" parent="1">
          <mxGeometry x="521.75" y="493" width="95" height="30" as="geometry" />
        </mxCell>
        <mxCell id="7gXZhZWd5zdu9qHWoEP5-31" value="&lt;font style=&quot;font-size: 14px;&quot; face=&quot;Times New Roman&quot;&gt;Data Access Layer&lt;/font&gt;" style="text;html=1;strokeColor=none;fillColor=none;align=center;verticalAlign=middle;whiteSpace=wrap;rounded=0;" vertex="1" parent="1">
          <mxGeometry x="660" y="495" width="77.5" height="26" as="geometry" />
        </mxCell>
        <mxCell id="7gXZhZWd5zdu9qHWoEP5-32" value="&lt;font style=&quot;font-size: 14px;&quot; face=&quot;Times New Roman&quot;&gt;&lt;b&gt;Setup Environment&lt;/b&gt;&lt;/font&gt;" style="text;html=1;strokeColor=none;fillColor=none;align=center;verticalAlign=middle;whiteSpace=wrap;rounded=0;" vertex="1" parent="1">
          <mxGeometry x="522" y="762" width="126" height="24" as="geometry" />
        </mxCell>
        <mxCell id="7gXZhZWd5zdu9qHWoEP5-34" value="" style="endArrow=none;dashed=1;html=1;rounded=0;" edge="1" parent="1">
          <mxGeometry width="50" height="50" relative="1" as="geometry">
            <mxPoint x="498" y="789" as="sourcePoint" />
            <mxPoint x="498" y="476.5" as="targetPoint" />
          </mxGeometry>
        </mxCell>
        <mxCell id="7gXZhZWd5zdu9qHWoEP5-35" value="&lt;font style=&quot;font-size: 14px;&quot; face=&quot;Times New Roman&quot;&gt;front-end framework&lt;/font&gt;" style="rounded=1;whiteSpace=wrap;html=1;strokeColor=#FFFFFF;" vertex="1" parent="1">
          <mxGeometry x="382" y="568" width="98" height="42" as="geometry" />
        </mxCell>
        <mxCell id="7gXZhZWd5zdu9qHWoEP5-38" value="&lt;font style=&quot;font-size: 14px;&quot; face=&quot;Times New Roman&quot;&gt;start method&lt;/font&gt;" style="rounded=1;whiteSpace=wrap;html=1;strokeColor=#FFFFFF;" vertex="1" parent="1">
          <mxGeometry x="520.5" y="626" width="94.5" height="39" as="geometry" />
        </mxCell>
        <mxCell id="7gXZhZWd5zdu9qHWoEP5-36" value="&lt;font style=&quot;font-size: 14px;&quot; face=&quot;Times New Roman&quot;&gt;front-end dependency&lt;/font&gt;" style="rounded=1;whiteSpace=wrap;html=1;strokeColor=#FFFFFF;" vertex="1" parent="1">
          <mxGeometry x="382" y="626" width="96" height="38" as="geometry" />
        </mxCell>
        <mxCell id="7gXZhZWd5zdu9qHWoEP5-37" value="&lt;font style=&quot;font-size: 14px;&quot; face=&quot;Times New Roman&quot;&gt;back-end framework&lt;/font&gt;" style="rounded=1;whiteSpace=wrap;html=1;shadow=0;strokeColor=#FFFFFF;" vertex="1" parent="1">
          <mxGeometry x="520.5" y="568" width="97.5" height="41" as="geometry" />
        </mxCell>
        <mxCell id="7gXZhZWd5zdu9qHWoEP5-39" value="&lt;font style=&quot;font-size: 14px;&quot; face=&quot;Times New Roman&quot;&gt;database config&lt;/font&gt;" style="rounded=1;whiteSpace=wrap;html=1;strokeColor=#FFFFFF;" vertex="1" parent="1">
          <mxGeometry x="656.5" y="595.5" width="93.25" height="38" as="geometry" />
        </mxCell>
        <mxCell id="7gXZhZWd5zdu9qHWoEP5-21" value="" style="endArrow=classic;html=1;rounded=0;" edge="1" parent="1">
          <mxGeometry width="50" height="50" relative="1" as="geometry">
            <mxPoint x="481" y="603" as="sourcePoint" />
            <mxPoint x="529" y="603" as="targetPoint" />
          </mxGeometry>
        </mxCell>
        <mxCell id="7gXZhZWd5zdu9qHWoEP5-22" value="" style="endArrow=classic;html=1;rounded=0;" edge="1" parent="1">
          <mxGeometry width="50" height="50" relative="1" as="geometry">
            <mxPoint x="613" y="603" as="sourcePoint" />
            <mxPoint x="661" y="603" as="targetPoint" />
          </mxGeometry>
        </mxCell>
        <mxCell id="7gXZhZWd5zdu9qHWoEP5-26" value="" style="endArrow=classic;html=1;rounded=0;" edge="1" parent="1">
          <mxGeometry width="50" height="50" relative="1" as="geometry">
            <mxPoint x="658" y="640.5" as="sourcePoint" />
            <mxPoint x="608" y="640" as="targetPoint" />
          </mxGeometry>
        </mxCell>
        <mxCell id="7gXZhZWd5zdu9qHWoEP5-24" value="" style="endArrow=classic;html=1;rounded=0;" edge="1" parent="1">
          <mxGeometry width="50" height="50" relative="1" as="geometry">
            <mxPoint x="529" y="637" as="sourcePoint" />
            <mxPoint x="479" y="636.5" as="targetPoint" />
          </mxGeometry>
        </mxCell>
        <mxCell id="7gXZhZWd5zdu9qHWoEP5-41" value="&lt;font face=&quot;Times New Roman&quot;&gt;&lt;b&gt;front-end&lt;/b&gt;&lt;/font&gt;" style="text;html=1;strokeColor=none;fillColor=none;align=center;verticalAlign=middle;whiteSpace=wrap;rounded=0;" vertex="1" parent="1">
          <mxGeometry x="433.75" y="736.75" width="60" height="30" as="geometry" />
        </mxCell>
        <mxCell id="7gXZhZWd5zdu9qHWoEP5-42" value="&lt;font face=&quot;Times New Roman&quot;&gt;&lt;b&gt;back-end&lt;/b&gt;&lt;/font&gt;" style="text;html=1;strokeColor=none;fillColor=none;align=center;verticalAlign=middle;whiteSpace=wrap;rounded=0;" vertex="1" parent="1">
          <mxGeometry x="502.75" y="736.75" width="60" height="30" as="geometry" />
        </mxCell>
        <mxCell id="7gXZhZWd5zdu9qHWoEP5-123" value="Interaction Prompt" style="swimlane;whiteSpace=wrap;html=1;strokeColor=#0F8B8D;fontColor=#143642;fillColor=#FAE5C7;" vertex="1" parent="1">
          <mxGeometry x="744" y="217.01" width="129" height="174.99" as="geometry" />
        </mxCell>
        <mxCell id="M2BAR0wibj0y26F96If3-23" value="" style="shape=image;verticalLabelPosition=bottom;verticalAlign=top;imageAspect=0;aspect=fixed;image=data:image/png,iVBORw0KGgoAAAANSUhEUgAAAMgAAADICAYAAACtWK6eAAAAAXNSR0IArs4c6QAAE8ZJREFUeF7tnU+IXdUdx0+aCAlFIREnYGuqRKGLRHRTL1SwEyokG2FWDp1CzWpWQegmq8FKFuJGkFm0WRmhU5yVqzZCxUl3ty4TXak0jSh1QpJGF2lrxPJ9864835z/9/y993tgeNF3zrnn/n7n836/3/m7RzBRApSAUgJ7KBtKgBJQS4CAsHdQAhoJEBB2D0qAgLAPUAJ+EqAF8ZMbS41EAgRkJIrma/pJgID4yY2lRiIBAjISRfM1/SRAQPzkxlIjkQABGYmi+Zp+EiAgfnJjqZFIYHCANE3zsBCi+4Ma8W+mcUjgqhBi8te2LT57p+oBaZrmBSHEb+ag6C0YVlC9BC4JIf4mhLjQB5YqAZlC8RKtQ/WdONULXBBCvOwDSjWANE3zCyEEoMAnEyXgI4HTbdsCFutUPCDTmAJgwJViogT6SgCW5He2lRQNSNM0bxAMW1Uyn4MErCEpEpCp1QAcvdypw4f2icOH7hFf3Px6Irsvbt51kOHurAsLCwJ/TOVJYHt7W+DPIVm5W8UBMo01thxeVDz71L3i+NED4vD9O0AADFkCIB0sGxdvTf7tAs3zzz8vTpw4QUhclJM47wcffCDwt7W1ZQPMI6bAvShAmqaBb4h4w5gef/SA+OXP7hWPP3ZACYSxEiHE5Y/viHff/0pc/uiOFSzHjh0TZ86cISQ2ws2YB9Zkc3NTvPfee7pWYAj4tC5DMYA0TQOrYXSpAMbKqYMCn6HTa3/atgKFkISWfLz63nrrrQkomqS1IkUAYmM54DatnDw0cadiJrhcG+/cFH/9+1faxyAWOXfuHC1JTGUEqtsAidaKZAfEJuaAtXj1zIOBxGVXDVyv1za2tW4XIbGTZQm5VldXdTGJ0opkBWQ6WvUPnQBXTh4Uvz51KIuMYU3Orn+mhQSB+/Lycpb28aH2EkDgvra2piqw2LYtlqbsStkAsYEDViNGrGEv1p2cZ9c/nwTzqkRIXCWaJ//S0pLqwcp5kZyAaIPyUuDoJGqC5Pz589njEYzc4Fey9NgIv+br6+vJ26lxs5RxSBZATHHHb3+1ED0Y9/kNe+HlfyrdrdxWBHCgAyCVHBvNujqp2wkoFcO+xQGCuEO6TwOjVACkxGSKSXJBMgtHJ7fUnc9GX7I4IGU7NaNZl9q2XSwiBtEN6eYYrbJR7GweDP9ivkSVUrtaMjhSQoLn2yy/0QXJqSCpBZBvVZ3rwks/6TUr7trZffMDENU8CWbZsRwlRdLB0T0fbUGbYqQullhcXDSO5CE2Qn5VSgFJ8YDorEfO4VzXzqNztTDLjiA5drKBI3ZbZjs9OrgOFLQXMUBOSGoARBl7XHz9aOw+FbT+P168KTbeuSWtM7abVQIcCHbR4ecTQIHFApzzKTckRQOim/eoyXrMKl01qhUzWC8BDshANzMNCyoDBOVyQlI6IMqVurVZjw4SVSwSy58uBQ7d2iabmCcXJKUDIp0YxCJEBOc1JsyuYwJRlkIH66XAgXfVzEgLW/cyByTFAjJE96qDQuVm2fyS2v4olASHZrJtMnrnMmKWGpKSAcGBC9hCuyvVMrSr6swqNyvUCFJJcJja8vbbb9sy/12+lJCUDIg0/qjZveo0rJo4RBwCd6NPMnVI1B0KRJt26uYy+gxMpIKkOkBKXlZi02GQRxeH+Pyids8tDQ7DcnHR511TjW6VDIj0+J5ah3fn4Tn14idSnmwDVtl8QbfwUAVqSsuBNuisR6gBidiWpGRApCNYQwFEFajr5gNUHb80y4F26qxHaFBjQlIyINIZ9FKXtdu6V6aRLNdf1hLhMFkPnx8Bk3xjQVIyINIFiqVtijIpTvW9ajOVCyClwqFaUhJ7gCAGJCUDMmgLogLEdmSnVDgAge+SEt8fm9lyoSEpGRBpDDJ0F8vW/TAtBQ/t59t23r5LSmyfo8tnC4nNkHrJgBQziqU6alR1XKmNklWjWLaA6JZu5IID7x1iSYmN/Ex5bCCxGWauDpDU8yCqWe8+7QBwGMWSJRulmdyrWAsfTZ0y5JIS07NM35tkhPI2si4ZEOlSk9RbbFV7OPq0QwWIy0y66XjM1JCYOqRNZzR1etvvTW1BPbZrwEoGBGfuSk9sT7kWS7ef3HfJvQo6F0BsXIiUkMRaUmILRZfPBg4XF7RKQFIG6rplIb6gqkawbH/VZjtD7i2ppklBF+hdYZjPHxoO1F8sIGhc0zTSod4+/r+PElSz3j6z+rr4w3aIN+awpo98UiwpMbUrBhw1AKK8Ts3XvTEJWva97oREVyui25fu66fndLdSLilR6S4WHDUAUnwc4mpFVNaoryuSCxKd9bAdsvb50YoVc8y3pWgXS+dm9RlF8lGI7ghR2+Uvod0rmQ+eMibJtaQkFRzFW5ApIMqDG1IG6zrXCO20cbVUrlpf65ErJsm9pCTF8v4aLAjO48Vw765zeTGT/eqZHyU7WVFnRdBJdZZENxrmE5zrrGAKdyvnkpKYMUd1LtbUiiivPXCNAXzcq66MyYogH9rz7FP3fQ9anWuFMr6bpHJCkmtJSUo4qnCxpoAgWMeIlvR0dxv3pg8Ys2VtIEF+DEXjRl1cMY1r2VSX6bhMWrm+QyxLkmtJSWo4qgHEFIukdrV0B1G7dOKQsYduCDRk4G7qpL5D1Sa5mZ6L8jF+bIqPQWYFp5o4RJ4aIQkde6SAJMeSklxwVGVBplZEGbCr/H/TL1Of7/tYkhi/drFjEtN9HTb7K1zlnROO6gAxuVr4HvMjv11ZSDayZXP183ynSOFayTpi35gk9ZKS3HBUCcgUEuWVCDncLTwTwfu773+lvf6567QpZpj7uFuyRZM5lpQY7imPEnPMy62qGKRr/PTcXuncyOwLYiLx8ccOJLEmsCQbF29pr35G21wOZXB1R2zz6yyJyvVDmc3NTemFlrGAxzNhtfA5n1K5qFUCYhOPdAKFy7Vy6mDUu9NtY5ES4OjkIoPEptPNl7MpYwuuyi2chyT2M2fbUS0gM9ZE627FBAVgXP7oTvFulY275drpsA4LFkV1M1QfKObLzloS13b2bUf1gEytiXJZ/LyAMBwMt6ubxHM9eAE7DBFrqCb+ZAqJ5YL0VT7Ko/Ohsy8vL4eoLlodnYvnclVCiMYMAhBXSGYFBxfs8P37xMLBfZP/DXiQvrhxd+fz5tdi+9Zda0sxr5SS4QjRgYZeR5WATIN0LD/BvAiumur+XaS+4BZgaPeBBx6YjLzg3zb3hBf5MiNrVDWANE2DU06eEULgs/oEUHAFcgdM9S800BcoHpApGC+pFioOQS+ABMtOaFnK02aRgExdKATecJ1Gk2hVylN1cYA0TaPcQVie+OK0CKBgtIZxShz5utRaDCBN02j3fLi81FDywu3Csg+Ckk+jRQDSNI1yx6BONNiUhOFZbEpC6oZoXec2Yoi/myfBcHGfoWLA0YESo52sUy+BrID4xBqA4vjRA5MdezUmgIPZd9uFjd07pto7UqNMY7Y5GyC2Cw7x8rAIWMKOSb0hJcAymZW3XK5CSNJrPwsg03hDejD1vAhSHu2TXvw7T7RdCYy8IeKSbh2V7/tidYApLhrKM5IDYgtHytNKfDtK6HK2oCBw7+ZNfNpgujrBVKfNKSwjeMaltm0XZbLaYxKg6vupW4XVt8o0VHfKRWY2J6f0cbdG0HmtxN0T9CiAaJempz5O1EqKmTLZ7FD0hYSA7Ci1KEBMQ7mEYzeJNvvdbZQ8XzMBKQwQ0+x46vs+MhkFr8fiVMaz658pN2X53CJFQAoCxBSU03KYuTFZEldXCwcwyPZ5m1uykwODBKY0lGdEH8UyHfaGY0OZzBIwBe4l7Xc3v009OaICorMeqU9CrEcl6pbqIEm9V3sI8rR5h9iAKEetbC+dsXmJMeXRXcFAKxK+J0QDRGc9GHf4K1J3zwitiL9cVSVjAqK0HimvKwgvsvw16s7hohUJq58ogEy3yWJH4K40xiUkYVWGk1bUQ7+0ImGlHQsQ5a5AWo8wCtQF7D6Th2FaNbxaYgHyLa1H3M6iu9aNblY42QcHRLcgcQxL18OpxlyTakSLbpZZdrY5YgCidK8uvn7Utl3MZyEBulkWQuqZJQYg0tErDu321JSkuG7Il25WGHkHBUTnXnH0KozC5mtRuVmyS3DitGDYtSYDhO5VnI6kmhNhHBJG3qEBwdlW0r3mBCSMwuZrwXUMgGQ+EZAw8g4NCA6W3jVBiIWJXLUbRmG2gOS6KDTOW+arNTQg0hEsBujxFGxam4V9GUxRJOC+J121c5A7BqMoaFKpDhBYkT4bo+K1ehA1ewEiPUKUI1hxO8SpFz+RPoCARJV7OEDQzBLOy3URV3feL8ocf3S/ePap+3q/w9n1zyfn9M6nlZOHeh2lqgLE5X2Z11kCYQFxfnyhBfrcva6as+i7BIeAZOksBEQndh9QCEiWjhzroQTEJFmMzuFQbVv3MTUgOO0E8yFM/hLY2tqaXJMtSQTERqwuh0+kBoRXUNtoUJ8n9DyI10U4/V8jbw22kBCQvHryeXoSQL4+flx8c+Qhn/ZlK/OD27fF3mufij23b0/agP/WJZvJUAKSTZ3eD04CyP+e/rn479NPezeyhIL7//wXsffaNS0optEoAlKCJt3aQEAc5AVAAIrKmpjWnBEQB2EXkpWAeCjih7//gxIS3aEUJQKCtVqq9VrLy8se0hlWEQLioU9YEEAiS7plNSUCgiHM9fX1Xa/C1cA7IiEgHoCgiMqK6IJ1AuIp7IzFCIin8BGL3HPlyq7SBMRToIUWIyCeigEcgGQ+6QJ1WhBPYWcstra2porRLrRte1rWNOUlnqpr1oYwzDsvCAKSsdcmfPTS0pLqaS+3bYsNgrsSARFi4l4NwYJgBGtzc1MapOPooDEnbDZbXV0lID6dYCiA+Lz7WMoY7nJcbNv2Ei2IojcQkGFjYrAeV9u2fUQlAbpYA3Kxht3N/d9OE5yjUmX8gS8JCAHx73kVlDTAIdq2VTJAQKYKpotVQU93bCIGLLCqwHASjNZ6EBAC4tjtys6OpTYA4vr166qdg7MvoI09uox0sSpxscrumlW2TjlyNfs2BISAVNm7ezbaCg66WBW5WD07BIvvSOCqEOK0as6D8yAVzIOo1nixh/eWACYCAQcgsU50sQpzsXRXsVlrlRm/F4y7Wg3GIHMdqKRhXjQNx5riIGumXhK4IIR408WdootVgYvVNbFUQC5/dEdc+fg/k3OJcX21IWEJuZNLY6pQ8/3kOa4ulOl5dLECu1hjOf0eAL+2sW2CBD4/fsmrTQQkMCBjuz/FEDMpj/SshRgCEhgQm0Pnaukctu00jLxVbUUISGBA0Kl0xwXZdrqa8iEWObv+mcrdUm5nreEdCUgEQEynMtbQMVzbqLrCWghRtZtFQCIAMrY4BDCprrDGKJZuQ5IriKnzE5AIgIzRzdJdQCqEeCT08GsqUAhIJEDGFqwjDkGwLkumTUmpOrvPcwhIJECgjLHMieBdNcO9dLF8yCypTMilJvPv9eqZBwWsydCTBhAG6bUrPyYgkM3QIdG5V6ZDEUrvO3SxIrpYs8ofsrtlWFxp3PddMiQEJBEg6ASuN+mW3HG6thmWmlQdf+AdCUhCQLpOhXmSlZOHrK+cLhUUi2X5VVsPAjLteSFjEFxWYzhq5rv+Doty/NH94vChe8Th+/dNPktOkyXuN+6KK5/cmUwMGhKWny+aMuX83mZuhhYksAXBIdEARHaIdM7OwGcrJaBdTElAIgBy4sSJyXVfW1tb1taEHTirBHh4tU78IV0sWBAAgtRdR6C6WDNrl+DDZyXAC3RyANI90/IYTHbZfBJQTmbSxYrkYsl0jaMxO7fLNpDP12dG9WQCktOCyJ49extUBwuhyQYlASkNEFl7CEhcQDCyCCsuSQSkBkDidg/WzmugPftArFEsz+awWCQJEBBPwRIQT8FVVoyAeCqMgHgKrrJiBMRTYQTEU3CVFSMgngojIJ6Cq6wYAfFUGAHxFFxlxQiIp8IIiKfgKitGQDwVRkA8BVdZMQLiqTAC4im4yooREE+FERBPwVVWjIB4KoyAeAouczHFuiplqz788EOuxfLRGQHxkVr+MktLS6EawcWKOkkSkFD9LG09BCSRvAlIIkEHfgwBCSxQVXUEJJGgAz8mICDK87u45TbhltvA/WP01QUERHl/CQEhINWCtrq6qmy7Znfm7L3tl4QQb7Zti09pIiAEpFpAVA1fW1ubHLkkSc5HoRIQAkJANBIgIASEgBAQfR/gKNawGKGLFVifBCSwQDNXR0ACK4CABBZo5uoISGAFEJDAAs1cHQEJrAACEligmasjIIEVQEACCzRzdQQksAIISGCBZq6OgARWAAEJLNDM1RGQwAogIIEFmrk6AhJYAQQksEAzV0dAAiuAgAQWaObqCEhgBRCQwALNXF1WQL45ckR8c+ShzCII+/i91z4Ve69dk1a6cvKg9P9vvHNL+v9nb7kN20rWZiuBrIDYNnKs+QhIfs0TkPw6ULaAgORXDgHJrwMCUrAOUgHyhhDihYLlUGTTzp8/LxYWFops21galQqQh4UQW0IIfDJZSODYsWPi3LlzFjmZJaYEkgCCF2iaBnDAijwT84Vqr/uJJ5748ZNPPnn3ueee+1ft7zKE9r/yyis/vXHjxn68y/Xr169++eWX/56+F04wueDyjso96S6VMC8lMFQJEJChapbvFUQCBCSIGFnJUCVAQIaqWb5XEAkQkCBiZCVDlQABGapm+V5BJPB/FDFc18EUxsgAAAAASUVORK5CYII=;fontFamily=Times New Roman;labelBackgroundColor=none;fillColor=#FAE5C7;strokeColor=#0F8B8D;fontColor=#143642;" parent="7gXZhZWd5zdu9qHWoEP5-123" vertex="1">
          <mxGeometry x="18.99521739130438" y="38.49540983606556" width="26.3768115942029" height="26.3768115942029" as="geometry" />
        </mxCell>
        <mxCell id="M2BAR0wibj0y26F96If3-50" value="&lt;font style=&quot;font-size: 10px;&quot;&gt;CoT&lt;/font&gt;" style="text;html=1;strokeColor=none;fillColor=none;align=center;verticalAlign=middle;whiteSpace=wrap;rounded=0;fontFamily=Times New Roman;labelBackgroundColor=none;fontColor=#143642;" parent="7gXZhZWd5zdu9qHWoEP5-123" vertex="1">
          <mxGeometry x="11.383478260869637" y="99.997131147541" width="44.637681159420296" height="29.889344262295083" as="geometry" />
        </mxCell>
        <mxCell id="M2BAR0wibj0y26F96If3-48" value="&lt;font style=&quot;font-size: 10px;&quot;&gt;Role&lt;/font&gt;" style="text;html=1;strokeColor=none;fillColor=none;align=center;verticalAlign=middle;whiteSpace=wrap;rounded=0;fontFamily=Times New Roman;labelBackgroundColor=none;fontColor=#143642;" parent="7gXZhZWd5zdu9qHWoEP5-123" vertex="1">
          <mxGeometry x="11.379275362318914" y="57.99795081967214" width="42.608695652173914" height="34.48770491803279" as="geometry" />
        </mxCell>
        <mxCell id="M2BAR0wibj0y26F96If3-22" value="" style="shape=image;verticalLabelPosition=bottom;verticalAlign=top;imageAspect=0;aspect=fixed;image=data:image/png,iVBORw0KGgoAAAANSUhEUgAAAMgAAADICAYAAACtWK6eAAAAAXNSR0IArs4c6QAAEapJREFUeF7tXQ3WJLUNHE4COQlwEshJICdJOAlwErInCa+W8RdvMz3tKsm27Na8t28Xpu2WSir92J7urx75SQQSgVMEvkpsEoFE4ByBJEh6RyLwBoEkSLpHIpAESR9IBDQEMoNouOWomyCQBLmJoVNNDYEkiIZbjroJAkmQmxg61dQQSIJouOWomyCQBLmJoVNNDYEkiIZbjroJAkmQmxg61dQQSIJouOWomyCQBLmJoVNNDYEkiIZbjroJAkmQmxg61dQQSIJouI0c9c3zZuXv/1Y3r/89Uqbb3CsJMtfUPz5v/+3j8QABCgnwv+t/X0lZiFL+/v3xePz2eDyO//9qnvz+gEASZIxL1ET4jnR+DwlBFPypiZPZpwHZJEgDSOIlIAUywwxCtIiMDJOEuUAqCdLiSm3XRCfElRYgzC+H0uxqzPbfJ0FsJkZ2+CFwllC1A1n+9SzLbl2KJUE0F0K2+GlCL6FJaxv1nyqz2GZacHQSpN1oyBYgBf6+4+eWJVgS5NrV706MI0IouVB+1cvI1yguekUS5NxwKKNKf7GoebuL/c/diZIE+bsPZcbgebUtUZIgXzrDrzfuMXhafDkCpVchinWuMOOTIH+ZAuXUv8NYZW1B0JuAKFssD9+dINHKKSypls+n5z+OhxOPhxdx2deHs1zMOa5edNyi7LozQZAxyhmpXk5yNi+IAALA+XusBpWDjwgAIM+s4y7LZ5M7EgTOA3KM3M8AIY4nbEeTEvebtfOPbFJnxxm6S/e8G0FG9hpwiHJcQzJO50EIFDVhOt/uc6Zcrje5E0FGrFCteiwDRClk6dm/oKT8fqUG/g4E6d2IlyMYS5YQL9LGiDIMmfXn3inLY/7dCQJjI3P0+JQTr/h7xw8ySTl71iOrgCQIKqGXg3cmSC9yrFpGWUhcFjW8iRK+L9mVIEjfiH6en90zRgtWwBXn0zyJEpokOxLEe39jyyMULWw4uaaUXp57SGGb990I4r1StUwzaXB4dShKWAQjr2wSkiQ7EcSTHFlOtdPGu+z6R6TGfReCeJIjs0Y7OcqVntkkVCbZgSBePUf2GjwxjiM8bRFiQ3F1gngdHUFJBYPkx46AV8kVIpOsTBAvcmRJZSfFcQavkmv6EvCqBPHaBETW2HUn3N/tuRmxuoXe0LrKNXXHfUWCAPA/OFu9vDrJ4QBiwxQeCyjTsvyKBLECvkozXv/IqX71QXkQdegzTAfieDTvUwLaagSxHiGJTg7mUUP1w6dXKBM9bDd8ZWslglj7DpADm1DRPh5HN1bZ2LSSZHjTvgpBrH1H1MxhdZgj2Yc7kBBtrDoP7UdWIYi175hSv75xnp6/i48aDGo4rPYcdhxlBYJYI040cnjtEVwF7+gPSsBKpLoEPGwTMTpBrKVVNHJY9bkixfH7oeUIKZx1n2SIbtEJYknFQwAkncKiD3mrj8uHlSOCgFaSdNctMkEsR0kinq2aQQ747LByRCAIhlhK6O52jkoQSykScTnXukQt+t7HsIjZtNbJQpKuukUliAWwaH0HHMHSkFrJUcZ3L0eMgqoYdc2QEQliyR5do4noABayl+f24rGlwAWvlS7P3WXF6V6OsAIdrrf0I93sHpEg6rmdiKUVfEDpPa42/NTH8ETPIpZg0kW3aASxZI+IpZWiT+v+hbKf0jq3MRmYhqulVpcsEo0gavboAo7JzH8NZiMiqwfb/Ecvs4CZQvxufVYkgijRtixjRjyEyJZXaonIkrBLKeIQTDxWtdgAcyl2JIKwhi7KuYNyiVr7BUz/YdHjf+0ifT7RvMJvSdRSy1W/KATZMXvAZxnHtfRQjDNZ7kPw0HxpiIAZhSAqGNGNzRDEYgumd1uhUS/sYohfM9Iti1iMYg4Rzwl2zR5sBrHYggkwKxGE0av2RzcdLUbxIsh0ELwUeTEPEwEtUY/pdaJn3SOMDIZlrNtqXQSCMMYtAKgrPh258HJqxriWqMeUcqsRRA2gloDzYczZBFHLK4szjSQJQ351FYvdC5ltcwV/JtC4rm7OBkuJDqtkDxiKaZ5xPUt8NsCshJ11X8RF19kEmRYZlDAmjGGjO3sylclQEF/NUoLq7kMUXzGXWTMJwka/gvhMmRWrK4a9yiTqm3tX6z9qvNlsjLF4nySwlD8znW338qoYRdETY+sHw5WdbxADR96V15+5lByyp9kHqr8wNWWRmQRhy4NVSwTL7xzsbvX/GVYur4oWSjZekiBKebVyBFSziBdBVsbOWmZdlatvMZ6VQdjmddXsUYOvRD8vgqzce9QYKH5j2jScRRAlopoigZenGeaZVWrtUFpZA41cZs0iiNJ/zJLVwIm/DVUCg+X+puhpuXHHscpqlpxBZzjd3fqP2lcU3S2+Zl7mtNy801hlNUvOojMIMlTBTkZSpx2dQSDn6qXpEeuhfcgMgihOIqdI1ZM7jBudPYoK7O58B9Xdp1QWPCRflwYZ1b1r/6HobYT6Y7hcYngJ4DyP0odIjfoMgrDs32ENXykLnH1qmd+it+itlOlSFTKDIMxvFwDWDo0mGxTKExWPT1Es7yL89Hg8fiDfr7FTFlECjtSLjSaIUoevblil52opB3rN2xLBI1wzJNCOJsgw5kew4DPCs+90ZwKCkplQauzwGaL7aIIoUU+qHYN4AKsv228ptbhUagTBsxaDXfRgsf18rxUIMlpGL18YVU4qjjL8feNeoFbzDFnJGu18ijGjPlb0yua9s0e5v3LGiynjrvSc9b2SPVt6uy/0iU6QVc8SKdnDUvqwZIQT0M4yiwkn902CPH9Vt2JTOSNTsk3r6llEWfCh+9nRGYQ14op7IEMM9yKq3i2LDME5CeJfN8wMAuy9Vz6npRCELmNHE4Td3IleBqDXqF8lMDuKK07zCuOjXv5hxD7jkD4vCdJuKDSFeKIInBAfGKh8yhGQ8l3rrD0CALv8CYJD/ld64Tv8wUtEy/GXKO8W2Y4gikI9HKjVeXEdMgJ75ql1fmnjqmFyZdm3YdqPS9AXwi4RiNK9IhmZQRSC0DUjY+k31yJb/EQeBmRv3ZP8SqmnyA+yzCTKVgRhlz5hsNEEAYnLK5ZZh2Gu75U9ahnYhp2Rv1w7s8lXAi4dlEZlEEWZ0QSxvF2VdS56PZ69gfCGXeEWH0NGB7LSA7IHQWk5RxGEbRwL8qN2e5XVH9WhRmSPItuILFLuRUdnFcDnOCXohiSIoggwGHXMRJXPYt8RxJ+h10iSKEGNztwjMojaMI5wIji50htZyIGxI2r3GXpBt1F224IgahQbVYao5LUSpGRIpPweq0Az9RpBfuCnHFYMl0FUQ9GKCB6rkle41ekQuiZuuHkEvUaUWopv0dmtZ4mlGmpU9vAoQSBrvaPe4L9fXNJDV8VxjnJb9RpRail60v5ODyA8QFFg1NKuSl4sHPxSHbsoy42YDxuL7FETb31VvUAIRP1ynKTWCycJlBf29M4ibICTglEvglgMNeIXhAp5Wwyu7MB7rtYperX8pEDZI/LU61VcZnfRJXl6EUQxlHc0fZfs2P0BpidSzkJ5NepsuddC+oKjohdd8xMVCksQRtcPMXoQJHr2YOVTIo8aIAj/MF86Qq8eixCl/GN30cMQRHUOSQHBTZjlQalufcrEZilBFdMQNbozpyJayjdFCcaGZX6mCuiaQdjUB2EsjsgCzBBYibJFHsaRWB2s11vwZpzTgt87HRkblnmkgOBdYimCQ4FR2QP3YmS0yMU4ktXh2fEWvZgd7F4EYVewgI/k69KgN9aInj0gOhPZpbT8xIftdVgnt1xvIQjuy9jZ28cUXOWM6Sk8E5lr41qNxToKQxBLk8lEWlYH6/WW3oBxUNkx3yio4Cr7mCdBlKa0B4BXzsOUPhZHUgPGlfwe31tKHwY/y33O9FRwlSsBL4IoQo/uPQrgrIHVA4VMpvJwenYOqWklezhLgDnTRwnEsp/LAw/SK0LPyB4Qm03RSnpm78E6t8f1il5MedUjALL3hwwmP/MgiOoMioE8HANzsIRmoy07v5de7DysXuzqkVzanCiiVComP/MgiOoMHvdmHaJcz5Y/rb9xUB76UOZWdanH4cAkc7AQ90YJWZ7r9U4GlhymyH0iiOJrJpJanVRJeT1SL+tcTB9Sz41odPaoG8uciIweH0s2j6wXsFF9zeTjpsGGn6uyqd3DeY5zKNGozFEiLqIknJI9JFjLYrWBp17Qp/yx6uVtY6W8Mmcxi3FURptqQkemKIA73v7zVD2wUDOZp2499GI2J4suZjksBGHr+CK0d2SxGNaSRSz3xVhzdHsjgGobq069bKyQ3gVflSBq9uixLm4xqvIbB8v96rGWXforGWbqZY7aL5RTApmLHCpB1AgVKXsUO8wotUYECuXXjVfEu/q+h15qMDatXhVFFYKoAvc4dnBlsNbvR5JkJA476MUuL7uWrwpBVNBdGN3q8cJ1PV91UK9+jX7n4sp6qcHYpbyC0ViCqALjXq+eCCL4cdchysMJWgVyM1rrDavrVtVreinPEkTNHrVNXz1iRrB5tyHKbvg7YRAYyiN1ugndMHF5NBGz0z5TLzUYu5awDEFUgc9Ajk4URF31WVd1xkTjGulT9II91Q3OnitwBSul98BY14UghiAe2ePMUcp5IK/H33g6JBwKf/B+wiunKg9eKw+X85TDey5GL9wbRB+ll+prLnsfNdCtBPHOHmfGfnfWydtB1PlqkuDf5WgG5otI8FY9jy/xnKWXxdfcF4JaCaIyutU4x+sivShS1SHHaQiovuaePSB+K0FwrbUmV+BKoiiorTvGkj269EUMQQrsSZR1HTC65Gpj3iV7sBnkCO4MoqAJVn8jHt057i6fuufhvnKlNOnvjOexbMg6RxKFRSz29cpp3aJR1w1YpcQ6gxpEwbskrD+0YUzZpe5kBMhrzQhY+o5upVXRypMgdY8yiihJELN/Tp9A7TsgeNfsYe1BrpAtRxt6ZpQkyJUVYn9vIUf37NGbIMU0PYmSBIlNgHfSWZryro25d5POmAigeGaUJAiDfpxrLU35kNKqZw/SYgavX7slQVrQjnWNlRyup3WvoOnRpF/ds/7eSpQkCIP2/GvV53YVyYf0HTNLrDMTqURJgsx3+lYJrOTAfdwPI14JPzuD1PIp6+FJkCsLx/jegxzdl3RfQZUEieFAO0th7TmAzdC+I2KJBZkyg+xHE+tSLhAZ3nckQfZzxIgaWTYB66Ycfce0H6JliRXRtdaWyfOhF8Ob8iP0SZC1nTGa9B7NeNFpOjkgSBIkmoutK49HSRWKHEmQdZ0xkuTeP5wLtXSfGSSSq60ni8cqVa11iLIqV7HWc8RoEnvsbRx1CkeOLLGiuV18ebzLqXA9R65ixXfCiBL2Igbzlt0puGQPMgX2ZW7aixgAIDw5ssRaxk+HC4oeozxXoMfNp52tYpXJDMIitu/1o55KM+VUrmq2JIiK3D7j1N/isAgsUVJlk86adb/rQQi8ysHz2QBXKC1TUiVBrky51/c4OFjebTKSEDWKS5VUSZA9CFDeDHX8G5kBn1lkqNGN8uo5k8VX70FMyufgbgiE3BVXtE2CKKjlmDME8D4XHDbc5pME2caUUxXZopx6hWASZKpfLX/zbYlRLJMEWd5HpyiwPTGSIFP8avmbjnwVdAiwMoOEMEN4IW77MtUkSHjfnCbg7bJFNunTfG2ZG4MUvz+fZDjtWVSR0MoMEska42UBCdBwgxQgR34OCCRB7uUSIANIkVmi0e5JkEagFrusEOHTkxDlvxdTY764kQgCNH6eD8kSEtT9Af5d/jv7BmfzRSOIs3o5XSJgQyAJYsMvR2+OQBJkcwOnejYEkiA2/HL05ggkQTY3cKpnQyAJYsMvR2+OQBJkcwOnejYEkiA2/HL05ggkQTY3cKpnQyAJYsMvR2+OQBJkcwOnejYEkiA2/HL05ggkQTY3cKpnQyAJYsMvR2+OQBJkcwOnejYEkiA2/HL05ggkQTY3cKpnQyAJYsMvR2+OQBJkcwOnejYEkiA2/HL05ggkQTY3cKpnQ+BPjjw2BR6o9dkAAAAASUVORK5CYII=;fontFamily=Times New Roman;labelBackgroundColor=none;fillColor=#FAE5C7;strokeColor=#0F8B8D;fontColor=#143642;" parent="7gXZhZWd5zdu9qHWoEP5-123" vertex="1">
          <mxGeometry x="16.503913043478335" y="86.99540983606556" width="26.3768115942029" height="26.3768115942029" as="geometry" />
        </mxCell>
        <mxCell id="7gXZhZWd5zdu9qHWoEP5-127" value="&lt;font face=&quot;Times New Roman&quot;&gt;You are a developer.&lt;/font&gt;" style="text;html=1;strokeColor=none;fillColor=none;align=center;verticalAlign=middle;whiteSpace=wrap;rounded=0;fontColor=#143642;" vertex="1" parent="7gXZhZWd5zdu9qHWoEP5-123">
          <mxGeometry x="40.5" y="38" width="79.5" height="30" as="geometry" />
        </mxCell>
        <mxCell id="7gXZhZWd5zdu9qHWoEP5-128" value="&lt;font face=&quot;Times New Roman&quot;&gt;Step1:&amp;nbsp;&lt;br&gt;Step2:&lt;br&gt;...&lt;/font&gt;" style="text;html=1;strokeColor=none;fillColor=none;align=center;verticalAlign=middle;whiteSpace=wrap;rounded=0;fontColor=#143642;" vertex="1" parent="7gXZhZWd5zdu9qHWoEP5-123">
          <mxGeometry x="33.74" y="92.49" width="76.26" height="36.51" as="geometry" />
        </mxCell>
        <mxCell id="7gXZhZWd5zdu9qHWoEP5-129" value="" style="shape=image;verticalLabelPosition=bottom;verticalAlign=top;imageAspect=0;aspect=fixed;image=data:image/svg+xml,PHN2ZyB4bWxuczp4bGluaz0iaHR0cDovL3d3dy53My5vcmcvMTk5OS94bGluayIgeG1sbnM9Imh0dHA6Ly93d3cudzMub3JnLzIwMDAvc3ZnIiBoZWlnaHQ9IjIwMCIgd2lkdGg9IjIwMCIgdmVyc2lvbj0iMS4xIiB2aWV3Qm94PSIwIDAgMTAyNCAxMDI0IiBjbGFzcz0iaWNvbiI+PHBhdGggZmlsbD0iIzNGOTJGRiIgZD0iTTY2Ny4wMDggMTkuMmE0NC44IDQ0LjggMCAwIDEgMzIgMTMuNDRsMjQ0Ljk5MiAyNTAuMzA0YTQ0LjggNDQuOCAwIDAgMSAxMi44IDMxLjM2djU0Ni4xNzZjMCA3OS41NTItNjMuNzQ0IDE0NC4zMi0xNDIuNzg0IDE0NC4zMkgyMjUuOTJDMTQ2Ljk0NCAxMDA0LjggODMuMiA5NDAuMDMyIDgzLjIgODYwLjQ4VjE2My42NDhDODMuMiA4NC4wOTYgMTQ3LjAwOCAxOS4zMjggMjI1Ljk4NCAxOS4zMjh6IG0tMTguODggODkuNTM2bC00MjIuMTQ0IDAuMTkyYTU0LjAxNiA1NC4wMTYgMCAwIDAtNTMuMTIgNTQuNzJMMTcyLjggODYwLjQ4YzAgMzAuMzM2IDI0IDU0LjcyIDUzLjE4NCA1NC43Mmg1ODguMDMyYzI5LjE4NCAwIDUzLjE4NC0yNC4zMiA1My4xODQtNTQuNzJWMzMyLjYwOEw2NDguMTI4IDEwOC43MzZ6IG03Ni41NDQgMjY1LjcyOGE0NC44IDQ0LjggMCAwIDEgNS4xMiA1Ny43MjhsLTQuNjA4IDUuNTY4LTI0Mi41NiAyNDYuNGE0NC44IDQ0LjggMCAwIDEtNTkuNzEyIDMuNzEybC01LjA1Ni00LjY3Mi0xMzAuNjg4LTE0MC43MzZhNDQuOCA0NC44IDAgMCAxIDYwLjI4OC02NS45Mmw1LjM3NiA0Ljk5MiA5OC44MTYgMTA2LjMwNCAyMDkuNjY0LTIxMi45MjhhNDQuOCA0NC44IDAgMCAxIDYzLjM2LTAuNDQ4eiIvPjwvc3ZnPg==" vertex="1" parent="7gXZhZWd5zdu9qHWoEP5-123">
          <mxGeometry x="18.37" y="128" width="24" height="24" as="geometry" />
        </mxCell>
        <mxCell id="7gXZhZWd5zdu9qHWoEP5-130" value="&lt;font style=&quot;font-size: 10px;&quot;&gt;Taskout&lt;/font&gt;" style="text;html=1;strokeColor=none;fillColor=none;align=center;verticalAlign=middle;whiteSpace=wrap;rounded=0;fontFamily=Times New Roman;labelBackgroundColor=none;fontColor=#143642;" vertex="1" parent="7gXZhZWd5zdu9qHWoEP5-123">
          <mxGeometry x="8.05347826086961" y="144.99713114754098" width="44.637681159420296" height="29.889344262295083" as="geometry" />
        </mxCell>
        <mxCell id="7gXZhZWd5zdu9qHWoEP5-131" value="&lt;font face=&quot;Times New Roman&quot;&gt;The answer is...&lt;/font&gt;" style="text;html=1;strokeColor=none;fillColor=none;align=center;verticalAlign=middle;whiteSpace=wrap;rounded=0;fontColor=#143642;" vertex="1" parent="7gXZhZWd5zdu9qHWoEP5-123">
          <mxGeometry x="45.37" y="134" width="79.75" height="30" as="geometry" />
        </mxCell>
        <mxCell id="7gXZhZWd5zdu9qHWoEP5-85" value="&lt;span style=&quot;font-size: 10px;&quot;&gt;Prompt Engeering&lt;br&gt;&lt;/span&gt;" style="text;html=1;strokeColor=none;fillColor=none;align=center;verticalAlign=middle;whiteSpace=wrap;rounded=0;fontFamily=Times New Roman;labelBackgroundColor=none;fontColor=#143642;" vertex="1" parent="1">
          <mxGeometry x="511" y="188" width="108" height="34.8" as="geometry" />
        </mxCell>
        <mxCell id="M2BAR0wibj0y26F96If3-3" value="" style="shape=image;verticalLabelPosition=bottom;verticalAlign=top;imageAspect=0;aspect=fixed;image=data:image/png,iVBORw0KGgoAAAANSUhEUgAAAMgAAADICAYAAACtWK6eAAAAAXNSR0IArs4c6QAAD4BJREFUeF7tncu17bYNhrd7cIpwenDcw80sDSSzNOBhGsgsbsCzuIf49hAXkRSRBXvDkXX0AEmA+EH9e629zr3nSCII4iMepKQvXvxQA9TAqQa+oG6oAWrgXAMEZL51/O7dpP78ciOC/u4/79/9d/M3/Z38avvv+T14UIsExH+wxci/el9Wfv5+B4RXiwKJfH96X1B+6u+82nj8dQjImAn8YQODgKAeYOyq42f/ewMNwRnQJwFpU54CgQSDtQcCjcAiXwXIeu5jjyMg10MvQGjIpKHSKsaiwPzInIZJeqtR//mdO6CETK3ytx4vsAgoGo61nr/s8fQg/x9a8RbyXc1TtBqvwPIDE/5f1PZ0QDSn+KbVih5y/L9er9fnJ+csTwVEwPgjUNUJnbfHhmBPA0SgkC8/fRp4HChPAUSSboZRfVAcnSULkv98QlK/OiAEww+KR4KyKiAMpWLBOLr6P96l4vktB7a4GiBSohWv8ZT1i0DT6Lq05CjfrbTwuAogAoQu7nWNLE9y1YCUh3UtxfXCsy+2AiAMp2Zbja09TeRlhb7spzIgDKdqmF3psKsqIPQaNeDYSlkyia8GCHONemBsJS6Xm1QCREKqb2vbB6V/V7j+VqXSVQUQLvitx1aJkAsdEIZU64FRKuRCBoQh1dpwaO+kHAwbcqECQjieAQc8JIiAyL0af3mWfbC3bw2IJ4F6oAQaIEzGyQpU8o4EiJRwn34/OPH4RQNyr4l80z8ogBCOdFOAEwACEgRACAecbcIIlA5JNiCEA8YWYQVJhSQTEMIBa5NwgqVBkgUIq1VwNggvUAokGYBwqzq8LcIKOL0EPBsQLgLC2l4Zwf46cyfwTEC4faSMDcILOg2SWYAQDnibKyXgtA2OMwCRLet/L6V+CltBA1PuTpwBCMu5Fcytpozhla1oQFixqml4laQOzUciAWFoVcnM6soamo9EASJwSGg16xGg+qTx/TDLa5jlK3LMkqWuqfVJLgaq93Bs3+u+fQV235XtZ4XlI1GAzMw7ZIDEzd599GWc+mJOAnOnseO/izHq23JF92ef2WteIflIBCCz845exfCdhHZAFIrWx4hK9XLmROSej3gDkpF3jN6mKWs0nxiGHdIiWztG3nw7e8+dez7iDcjM0EpH9E/2ifDySAHl64e9/vlIIZ4PnZ4dZkl/eiOKQ+PwBCRjtVySQ/Egnh/1KE+8/TdiM+DsMEtswS3U8gQkQxGus8WOsic9PT5Sj6XtwguQ2Ym52vJo/mHxPPpintZkU7ybVnmk/Hn0b23/rBq0b1P//+U7Z9Kf+vseGaPfCDU7D1GdunhDD0AyEnPv/OMOlCtvoiBIMiufkaT2To67v2tYaFn/cTGgO4Fer1dGHiJiuSTsHoBkJOazAdH2ZDaUj3qE1rKnwZ5CDhFwFBoxnM8TH9CWkZuqEodDx1FAMjtvXSAMsThe1KyBzAhjOGEfBSQjAdORiahgmUedBzZp4Pumo30PHvIiI4Bkeg9RoazuSoLJD74GMifSIS8yAkh2pwkIPhgqYbatdHuRXkCy40p6kDpwiKTZgHR7kV5AMitXahr0IHUgQQCky4v0AILgPehB6sCB4kG6vEgPIFkro3uTYBWrDiSZVaytlpq9SCsgKN5DOs11EALSo4GmjYytgGTtuTpThNdW9x5F8xybBpAmVZG4aYtNCyBoHe2KKW1jyqMcNZC9XjYUmrcAguY9pOMzdvM62sojL4VoN+YwqwUQhNLu3sKak65HmmhupxEBMduNFRDE8EqGnZWsXOO3tI5SwdrKat4KbwUEcRbQDpvdpWU0eYyrBlAnVnN4bgUEYSX0bOSYh7jatOvFkCdW004MCyDIswDXQlzt2f1is5+w2dqB2+jDAgjyLEDv0WoS84/PuuXW0tPbNRELIKjhlbkSYdEUjwnVAOokextm3QGCGl4xtAq155CLo060l7sx7gBBJf82dgwZYl50RAOo+cilLVUEhHnHiJnmnos44V7mIXeAoC3yMLTKNXCP1lFul9C+XOYhV4Ag5h/0Hh4mmnsNtM2Loo3TMOsKEDR3SO+Ra9ieraMl7EsAcluz9hxBXitUA2hrI6e2deVBkPIPeo9Qe025OJIXOd30egYIWv7BRcEUGw5tFM2LHK6HnAGClEjRe4TaaerFkbzIYR5yBghSgk7vkWrDoY0j2dlhhbQCICzthtpo6sWRIpXDRP0MEJTbaxlepdrvlMZRwqzDBcMzQFAqWLyldoqNpjaCsrJuBgSpgsX8I9V2pzSOUs06nIyPPAgSIMw/pthoaiNIeciHStYRIChEM/9ItdupjaPkISZAUEpvzD+m2mhqYyh5yIdK1pEHQQHk9nbI1CFl454aKAUIirBM0D1NEPtaKJOyyYMQEGxjWlE6lLz3w6R8FGKhLBJye/uKKBz3CaWSVQoQlngJyGwNfMh7kT0IAZltHnntoay9mQBBqUnz7VF5BpvRMsL2plKA8NlXGWaa1yYCIB/W3o5CLARBZZgISJ6xZrSMYHcEJGPk2eatBlByEAJyO1Q8IEMDpQBBSdJZxcow1Zw2CUiH3rlQ2KG0oqegLBSaQiwUD0JAilp7h9goW01MZV6UrSbczdthaUVPQdmsWAoQ3g9S1No7xIbdIIu81UT0zNX0DmsreApK1GLarIhCMxcLC1p6h8goFSwRvRwgLPV2WFyxU5AAMd0whVJROCS62OBT3HsNoCToIumHCfkoB0GpSYvATNTvDaz6ESj5x2HOiw4I85Dq5n8tP1J4ZQZEDkTYWamq5YLhupAghfOHz2E7ezYvymo6w6x14ZCeIVVMzY8eFcGRAGGYtSYkaOGV+eHVaGSzmrUmIEjVq1MbOwuxkGJDNQ/eYbgWKGhRStMbppBKvWoWfNLiOoCgeY/DCpb88uo10GiES5VBKJef/NTWAKJtSYTy4VMJEOYitaFQ6RG9x+mtFVeAIJXgtqbBXKQuKGiVq9vw/QoQxESdXqQuHCI5ovcQuU43xV4Bgpioq3lwdb0eKMj2dHrf0RUgMgRoyZSaBRP2WoBIaCWbEuUn2udyQ+wdIKh5iCiZkKCZ2rk8SDt291JeLh/cAYKah9wmV3VsZ3lJUfMOVfxl0ecOEOQwi5Dgs4Wcd2gUcrj+oaq1AILsHgkJLiTocJgqohZA0F0kK1t4kFSA47K82+JBqnRW+sTybz4sVezl8AapvfosHqRCHrLtFzc15kFSJdowhVdykBWQSh3Xzv/IjY1TSamQq24VYnqklBWQal5E5JUFoO8ISTgksvgn62USWlX5mMKrFg8ixyIvGl4NjIRc9CYxpou+TnbWa3MY3uJBqiqD3sQfjopeY6sF847wFkAqhll705B9/z8w7BoipmokoZ02h1etIZYcH5Wsi9DylZlpxoY2KQf/RFCaQKkcQXRXOVs9iOeuTJnNP7+T6f1IScL3aULix/zknhGZFAWOGRPXvTRjRzR5jx4P4pWsW5MkAUVcevTgXME6NiQ1zxa9f/16vb6pKf6p1Fa7+/UCrR5ETvRYKW0VdFbcK6VhqXg9NfwSTyHfSiVbK8PN3qPXg3h5EXMl4a0BGThx99HeRBUusAgoq5eIRa9fLegt9uC0Tso/n9/jQby8iFynde/UrJBrr1yFRT1L5UcPKRCiy1mTjXWWjzyu63V+vYBIR7xux20tvWZBsh08rboJMPIVgBA/oqsv3x7iaUB0V662J44A4pGLqCxicLItxGpos8OtK+M37elJomelCtSIClvD+aEkfSuod/LcUnaNWpNpGQhkOLQfCHpq0an3sV25hwox4kHkGp7rItvk2LrJMHPwK8DxdEi6KldeIVak8lt24mZssz59VKX39Od4Pa+c0VGk8EsNeQ+RbtSDaA8jlG99rE+EF7saueFZKdwsjhuYraekbv7arMs4eQESFepYZ4Co9o8GuVJotZd/pp6yAXEZJy9ARBkRXkSua+3ojMF3mZUSLecpXsTt9eGegEStT7R0NgpStenWhc1EFk6bnjGRZPbbdRLzBESUEqV8ax07coZ0VXymBQV6++Ru/dy8NSw3yeoNSFSo1TJzR0HiqnjT6MQd5L1+FSdp25Vbog3TlSMAiQi1WjseAUnXXh7TKMw/yHMXxHzpj1sM8fARgESFWtYwa6s+r60WIcpPtqzofG1291qiDLNsUYBEhFojIc4oKCHKN49SzIErhVmtEYZZo5GARIQ5PV5kqwzd3SqyyT0Q8tlu+dZduvJ73albeWv7lSGsco95qHePBCQi1BrxIuZZ4yEHrpKHWNfJuoY1GpAISEa9SJeiFj3p++L9CoVDdDMDEO98hF7Ez6orJ+pTNozOAsQ7HyEkPpBUBSQsKd+rdRYgmgx7vumUodY4JBm3CoxKHZqUZwIibXvfKktIxsytGiCtt2aPaWdiDrIVdHRNYt/pFdcohgfWeIFqgIQn5dkeRNv33tTYci+70XYecVglQKbDMbOKdWRt3pBI4iZPbrc+GeURBNx0sgogKXBkAxKxRiLXVFC2q+KE4VgDFQBJDaFnVrHOjNTbk2g7Kz0NMQpwdEBS4UDwIFE5yZFBKTDyt7OHU+/fUSJPJVz5QdbIgKSFVVvjQfAgMyHpmYlXXpREBQQCDiQPsoUE7WUtBKRnWuk/BwYOREA0cUeChID0G3vLmdMXAS3CIYVYW3kjbtu16OPoGALSqzn7eZBwoHoQVav3Bkf7cP32SALSqznbedM2HtrE+e1RqB5kK2X2raEEpMeybOfA67YCINl5Cfwg2mzx8KjMKhZUMn6mwyqAiPxZeQkBGSDw4NSWJ/f7ttxxtUqAaPdmh1wEpMOwTk4pp8uKgMz2JuUGtcGeZ4VYsFWqO11VBUT6JVWuTxNeX0xA7qzo+u+l9VcZEB0W77sU98NdeoBvbDvSg5T1GludrQDINjeJeNUxAWn3IMvobCVANDeRsEtA8fosM9gHCvH2IK3vvPcao7DrrAaIKsqzJExA7s1v2bs5VwXEMz8hIOeALAuGdnl1QDxAISAfAVkejKcBMhJ6rQxI66Kr5Bifn/RgjKd4kP0cKDmKJPOylrJ9/cFRMEFAXq/HgfFUD7IHQOCQdZSrG7RWBuTqHSESRv24+D35t+WHp3qQI8UceRXoexVuR9d2wP4B1suVam1qOD6KgBzrRWB50nO1dN2ID93b2QMBGZleeO7yGiAgyw8xOziiAQIyoj2eu7wGCMjyQ8wOjmiAgIxoj+curwECsvwQs4MjGiAgI9rjuctrgIAsP8Ts4IgGCMiI9nju8hogIMsPMTs4ooH/ASpSSvaba81lAAAAAElFTkSuQmCC;fontFamily=Times New Roman;labelBackgroundColor=none;fillColor=#FAE5C7;strokeColor=#0F8B8D;fontColor=#143642;" parent="1" vertex="1">
          <mxGeometry x="131" y="135" width="36" height="36" as="geometry" />
        </mxCell>
        <mxCell id="M2BAR0wibj0y26F96If3-1" value="" style="shape=image;verticalLabelPosition=bottom;verticalAlign=top;imageAspect=0;aspect=fixed;image=data:image/png,iVBORw0KGgoAAAANSUhEUgAAAgAAAAIACAYAAAD0eNT6AAAABHNCSVQICAgIfAhkiAAAAAlwSFlzAAAOxAAADsQBlSsOGwAAABl0RVh0U29mdHdhcmUAd3d3Lmlua3NjYXBlLm9yZ5vuPBoAAB1qSURBVHic7d17lJ1lYe/x38wkM5N7AlGIhCQQCTcVBLycakRjULlIayuiPfWC1mWVU+0pClhrj7W0iyjV0lpEj6W1ejyAxTtKKyAKxxYVEIsgQRDCNRoMuWcymZnzxxALkZDJft89e+95Pp+19lowmfd5n8Va5Pnu95oAAAAAAAAAAAAAAAAAAAAAAAAAAAAAAAAAAAAAAAAAAAAAAAAAAAAAAAAAQKfqavH+u5MsTHJwktlJZj766WnlpJhw1ibZnOSXSe5I8rMk21s6I4AWG+8AmJ9kWZKXJDkqowt/3zjPAQYzGgHfT/LtJNdkNAwAijEeAbA4yeuTvDajCz60o1VJLk7y2ST/2eK5AHSsniS/m+TaJMNJRnx8OujzoyRvjaNTAGPWm+T3M3o4tdV/ifv4VP3cn+SMJNMDwC4tS3JbWv+Xto9P3Z8Hkrwhrb9oFqCtzE9yWVr/l7SPT7M/VyU5JAATQNXb7U5OckVGr+iHie6AJG9JsjHJ9S2eC0BLTEpyblzg51Pu5zNxbQDQwRo5pzk7yVeSLK15LtBpbkpyQpKHWj0RgD21pwGwb5JvJDmyCXOBTvSzJK9IsrLVEwHYE3sSAAuTfCuj50GB/7I6ycuT3NzqiQCM1VgDYG5GH+rjCmh4YmuTHJfkhlZPBGAsusfwO1Mzes7f4g+7NifJN5Mc3eqJAIzF7gKgK8nnkvy3cZgLdLo5Gb0t9ohWTwRgd3Z3CuCPkny0qRPoShbt05sl83uz4KmTM3t6T7rHclwCxmjthqHct2YwK+/blrse2Jbhkabvck2S5XFNANDGniwAnpvR8/69de90xtTu/M7SmTnxeTPy4iOmZe6sqs8jgrF5ZONQrv3Pzfn69zbm0mvW5Zcbhpq1KxEAtLVdBUBfRv/iqvX1vU/frzdnnTo3r1s2K9P6fc2ntbZtH8ll31mfFZesyc13bm3GLkQA0LZ2FQDvS3JOXTuZO6sn5/7+PnnTy2enp9v7VGgvIyPJ57+zLmdcuDr3/WKw7uFFANCWnmg1PiDJLRm9+r+yU188Kxe8a172muEwP+1t45bhnHHhQ/nk5WvrHloEAG3niQLgc0leV3XgyZO6cv7p++btr9yr6lAwri7+1rq8+bwHsmVguM5hRQDQVnYOgMVJfpLRl/00bGpfdy79s/k58XkzqgwDLXP9bVty0p/ekzXrar1I0MOCgLax85V4703Fxb9vcle+es4Ciz8d7XmHTsmVH1pU9x0qnhMAtI3HHgHYN8k9qXDbX1dXcun798+rXzSz8sSgHdx859YsP/Puuo8EOB0AtNxjjwD8Xire83/WqXMt/kwoRyzuz1Ufrv1IwNyMvljLY4OBlnnsEYCbkzyr0YGec/CUfPdvD8ikHrf5MfE4EgBMNDuOAByRCot/T3dXPv6ueRZ/JqwjFvc345qAuUmujGsCgBbYEQAnVRnkTS+fnaOXTKlhOtC+RAAwkewIgGWNDtDT3ZWzXju3pulAe3NNADBRdCfpT4XX/Z78GzNy0H61vy8I2tazDmzKkQC3CALjqjvJMUkaPn7/xpfNrm820CGcDgA6XXeSwxrdeObU7pzw3Ok1Tgc6hwgAOll3kkMa3fjYI6Zl8iRX/lMu1wQAnao7yZJGN176zFpeGAgdzTUBQCfqTrKg0Y0PXdBX41SgczkdAHSa7iQNv7VnyXwBADuIAKCTdCdp+OH9Nf9FBx3PNQFAp+hO0vBl/NOn7Pw2YeBZBzYlAuYk+WZEAFCT7lR4A2CvOwDgCYkAoN35Cg9NIgKAdiYAoIlEANCuBAA0mQgA2pEAgHEgAoB2IwBgnIgAoJ0IABhHIgBoFwIAxpkIANqBAIAWEAFAqwkAaBERALSSAIAWauKrhEUA8KQEALRYk94iKAKAJyUAoA2IAGC8CQBoEyIAGE8CANqICADGiwCANiMCgPEgAKANiQCg2QQAtCkRADSTAIA2JgKAZhEA0OZEANAMAgA6gAgA6iYAoEOIAKBOXUlGGt145MrDa5wKMBY337k1y8+8O2vWDdU57JokH0kyXOegwK8MJVn/6GdtkpVJ7kkL/58TANCBmhQBwPjamtEQuDHJ1Y9+7h+vnQsA6FAiACaknyS5OMlnktzVzB25BgA6VJOuCQBa65AkH0jy0yTXJnldkqb8Ty4AoIOJAJiwupK8MMnnktyR5F1J+uvcgQCADicCYMI7IMnfJLklyfF1DSoAYALYEQF7zxQBMIEtTvL1JJ9PMr/qYAIAJogjFvfnqg87EgAFeHWSHyc5pcogAgAmEKcDoBgzk1yS5PwkvY0MIABggnE6AIrRleSdSf4tyaw93VgAwATkdAAU5dgk1yXZb082EgAwQTkSAEV5RkafG7BgrBsIAJjAHAmAohyQ5KokTx3LLwsAmOCOWNyfq89blIX7TG71VIDme3qSrySZtrtfFABQgGce0J/vX3Bg/uCVe6V3UlerpwM01/OSfHp3v+RlQFCYdZuGctVNm3LP6sGsXru91dOBzrW1Jxka2/fooeFk3ebtWfXwtqx8cGvuXjOQkYZX3zF7Z5K/29UfCgAAaNT63mTznp9e+8X67bnmtvW5/IeP5LLvr83GrU15q+dAkhckueGJ/lAAAEAVDUbADpsGhvO57z6cFV97IHeuHqhxYkmS25IcmWTbzn8gAACgipEkj/QnA9XuthkaHslF316T915ybx7eWOvpubOTrNj5hwIAAKoa6UoenpJsr36R7cMbt+ft/3h3Pn/9L2uYWJJkU5LDkqx67A/dBQAAVXWNJLO3jn6trmjv6ZNy6R8+PR9748JM6qnlrp1pSc7Z+YcCAADqMGk4mf5rp9obdvpx++Tr71mS6f21PMjrd5Mc9NgfCAAAqMu0wdEQqMlxz5iVL//xQemr/vyOniTveewPBAAA1GlmfUcBkmTZYTPzmbcvTlf1swFvSLLPjn8RAABQp96hpK/e+/pPed5eefcJ86oO05fkdTv+RQAAQN2mDtY+5F++Zn6OPmC3j/jfndfv+AcBAAB16xtKJtd3LUCSTO7pysdPW5TuaqcCjkpyeCIAAKA5ptR/FOA5B07LG5bOrTrMSYkAAIDmmLK9lucC7OxPf3O/qs8HWJYIAABojq4kk+t/yc/iffpy0pGzqwzxwiR9k2qaT2UjI8mNd2zJD1ZuzSMbm/JWJAAYX9t6koGezJ7Wk2MOmJajFk2r43a+vGHp3HzphrWNbj41ydFtEQBfuG593vup1Vl5X733TgJAOzl4Xn/Ofe3++a2j51Qa58QjZ2d6f0+V1wgf1tJTACMjyRkXPpTf+cC9Fn8AJrzbH9yaV330jrzn/95baZzeSV1ZevD0KkMc3NIAWHHJmnzkXx5u5RQAYNydd/mD+fDlD1Ya49hDZlbZvHUB8LOHtuUDn/55q3YPAC31Z/9yf+5ZM9Dw9oftN6XK7he0LAAu+MraDAyOtGr3ANBSWweHc8GVjX8RPmjf/iq7n9myALjiextatWsAaAtX/Ghdw9vOnVHpOv4ZLQuAu1fX/4QkAOgkd/288VMAM/p7quy6dQGwcUu9z0gGgE5T4Ta+9E2u9ECBPk8CBIACCQAAKJAAAIACCQAAKJAAAIACCQAAKFBbvA1wT732f57V6ikA0GE2DSUbmnQH+jUfW9GcgZuoIwPgrX9+bqunAECHeXBb8kCTnkHXiQHgFAAAFEgAAECBBAAAFEgAAECBBAAAFEgAAECBBAAAFEgAAECBBAAAFEgAAECBBAAAFEgAAECBBAAAFKgj3wZ48Ueb99al6bNmZ8lRx+SgI45KV1dX0/YzMjKSO26+MStv/EE2rnukafsBYNT6oWTDUKtn0T66kow0uvHIlYc3vuPlP2542/Gw/0EH561/fm5ecNJv1T72tV/5Qj71gffmvp+urH1sADrLm499Sl56+MwsO3xm9p01eY+27fq97zW8XwGwG69557vztnM+XMtYIyMjufB9786/fOwjtYwHwMTR1ZUcvt+U/PZz9sppL5qbRU/p2/02FQLANQC7cenfnpdLzq8nAC7+6AqLPwBPaGQkueW+LfngF+/P4j++OS879/Zc8h+/zOBQw9/Tn5QjAGMwqbc3//SD2zJv0YENj/HQqrvzpqMPyeDAQI0zA2CiWzi3L39y8ry85cVPSU/3469NcwSgybZv25avXvSJSmN8+ZN/b/EHYI/ds2Ygb7vo7hz5J7fkazfVd9G4ABij7195RUu3B6Bst9y3Ja/865V53d/fmTUbtlceryNvA2yFh+7+WaXtV6+6p6aZAFCyi//94Xzr1vW58M2LKo0jAMZoUndXls1ofPvuxi+1AIDHWb1uMK/66B2VxnAKYIwWLVrU0u0BoE4CYIyOP/74lm4PAHUSAGPQ39+fd7zjHZXGOP3009PXt/uHOgDAeBAAY3DOOedkwYIFlcZYuHBhPvjBD9Y0IwCoRgDsxnve856cccYZtYx15pln1jYWAFQhAHbh0EMPzZe//OV86EMfqnXc8847L1/60pdyyCGH1DouAOyJjnwU8FlnndXwtk+mv78/++23X4455pg8+9nPbso+HuvGG2/MDTfckPvvvz9bt25t+v6gE91yyy25/PLLm76fnu6uHDh/Zg5aMCvz95mWOTNds0NNBtdnaNv6rNs4lFU/H8zK+7bl7tXbMtLiu8M7MgBGWv1fDRgXN998c5YvX541a9Y0Zfy9ZvXl1JctzvEv2D9Lj5qX2TN6m7IfCrdlVbL53sf96BfrtueaH27O5ddvyGXXrs/GLcPjPi0BALSlZi7+Rx68d8467cj89rID0jvZmVCa7AkC4LE2bR3O565elxUXr8mdD2wbt2kJAKDtNGvx33/f6fnrP35+Xr38wHR17f73oRa7CYAdhoZHctEVj+S9n1qdh9cPNX1a0hdoK81a/N/26kNz2xdek1OOs/jTnnq6u/LWE+bk9n86KKccO7Pp+xMAQNtoxuI/tX9SLj73pbnwfUszbYrXn9D+9p7Zk0vfv38+9ofzMqmnebUqAIC20IzFf/aM3vzrBSfk1Jcvrm1MGC+n/+Ze+fpfLcj0Kc1ZqgUA0HLNWPznzu7PNZ96ZV747H1rGxPG23FHT8+XP7ggfZPrPxIgAICWatbif+UnTswRS/aubUxolWXPnpbPnD2/9mtXBADQMs1Y/OfM7MsVF5xg8WdCOeXYmXn3KXNrHVMAAC3RrG/+3/rfJ+XoQ+v9ixLawV+++ak5esmU2sYTAMC4880f9tzkSV35xB/NS093PecCBAAwrnzzh8YdvWRKXn/crFrGEgDAuPHNH6r70//+lFqeDyAAgHHhmz/UY/HTenPS86dXHkcAAE3nmz/U6w3Hza48hgAAmso3f6jfic+fUfkJgQIAaBrf/KE5eid1Zekzp1YaQwAATeGbPzTXsc+aVml7AQDUzjd/aL5DF/RV2t67MYFaebY/jI8l+/dW2t4RAKA2vvnD+Jk7s9p3eAEA1KJZi/83LzzROX94AjOmugsAaDGLP4y/vsnVngYoAIBKLP7QmQQA0DCLP3QuAQA0xOIPnU0AAHvM4g+dTwAAe8TiDxODAADGzOIPE4cAAMbE4g8TiwAAdsviDxOPAACelMUfJiYBAOySxR8mLgEAPCGLP0xsAgD4NRZ/mPgEAPA4Fn8ogwAAfsXiD+UQAEASiz+URgAAFn8okACAwln8oUwCAApm8YdyCQAolMUfyiYAoEAWf0AAQGEs/kCSTGr1BBqxYsWKVk8BOtLw8HA+8pGP1Lr4z53dnys/cWKOWLJ3bWMCzTeuAfDQL7fn6h9uylU3bqo0ztlnn13TjIAqLP7QuZoeAD97aFv+8YpH8oXr1ufHdw80e3fAOLH4Q2drSgAMbh/JZdeuzz98Y22uvmlThkeasRegVSz+0PlqDYDhkeSy76zP+y5anTvu31bn0ECbmDOzL1dccILFHzpcbQHwle9uyJ9ctNphfpjA9p7Vn6s+6Zs/TASVA2DthqGc/anV+eTla+uYD9Cm5szsy79+3Dd/mCgqBcAXr1uft5//YFav3V7XfIA25Js/TDxdSVyiB+ySh/xARVtWJZvvbcrQXct/3PC2ngQI7JLFHyYuAQA8IYs/TGwCAPg1Fn+Y+AQA8DgWfyiDAAB+ZeG86fn2p15p8YcCdOTbAIF69U7uzlt+65B88B3HZO7s/lZPBxgHLQ+Arq5k0dNmZMnCWVmw7/TMntGX7u6uVk8LirDPXlOycN70vPR5+2XW9N5WTwcYRy0JgBnTJud3XnpATly6IC8+5mm+cQDAOBvXAHj6/jNz1mlH5nWveHqmTWn5wQcAKNa4rMJzZ/fn3Hc9N286+eD0OLwPAC3X9AA49eWLc8F7X5i9ZvU1e1cAwBg1LQAmT+rO+Wf+Rt5+ymHN2gUA0KCmBMDU/km59EPLc+LSBc0YHgCoqPYA6OvtyVfPf0WWPfdpdQ8NANSk1icBdnUln/3Ll1j8AaDN1RoAZ73pyLx6+YF1DgkANEFtAfCcw5+Svzj9mLqGAwCaqJYA6O7uysfOfkEm9Xi3EAB0glpW7NNOPjjPfcZT6xgKABgHlQOgp7srZ512RB1zAQDGSeUAOPnFC3PQgll1zAUAGCeVA+BNJx9cxzwAgHFUKQBmTuvN8S/Yv665AADjpFIAHHvMvEye5Mp/AOg0lVbvpc/et655AADjqFIAHHbgnLrmAQCMo0oB4Op/AOhMlQJg7uz+uuYBAIyjSgEwferkuuYBAIyjSgHQO9kdAADQiazgAFAgAQAABRIAAFAgAQAABRIAAFAgAQAABRIAAFAgAQAABRIAAFAgAQAABRIAAFAgAQAABRIAAFAgAQAABRIAAFAgAQAABRIAAFAgAQAABRIAAFAgAQAABRIAAFAgAQAABRIAAFAgAQAABRIAAFAgAQAABRIAAFAgAQAABRIAAFAgAQAABRIAAFAgAQAABRIAAFAgAQAABRIAAFAgAQAABRIAAFAgAQAABRIAAFAgAQAABRIAAFAgAQAABRIAAFAgAQAABRIAAFAgAQAABRIAAFAgAQAABRIAAFAgAQAABRIAAFAgAQAABRIAAFAgAQAABRIAAFAgAQAABRIAAFAgAQAABRIAAFAgAQAABRIAAFAgAQAABRIAAFAgAQAABRIAAFAgAQAABRIAAFAgAQAABRIAAFAgAQAABRIAAFAgAQAABRIAAFAgAQAABRIAAFAgAQAABRIAAFAgAQAABRIAAFAgAQAABRIAAFAgAQAABRIAAFAgAQAABRIAAFAgAQAABRIAAFAgAQAABRIAAFAgAQAABRIAAFAgAQAABRIAAFAgAQAABRIAAFAgAQAABRIAAFAgAQAABRIAAFAgAQAABRIAAFAgAQAABRIAAFAgAQAABRIAAFAgAQAABRIAAFAgAQAABRIAAFAgAQAABRIAAFAgAQAABRIAAFAgAQAABRIAAFAgAQAABRIAAFAgAQAABRIAAFAgAQAABRIAAFAgAQAABRIAAFAgAQAABRIAAFAgAQAABRIAAFAgAQAABRIAAFAgAQAABRIAAFAgAQAABRIAAFAgAQAABRIAAFAgAQAABRIAAFAgAQAABRIAAFAgAQAABRIAAFAgAQAABRIAAFAgAQAABRIAAFAgAQAABRIAAFAgAQAABRIAAFAgAQAABRIAAFAgAQAABRIAAFAgAQAABRIAAFAgAQAABRIAAFAgAQAABRIAAFAgAQAABRIAAFAgAQAABRIAAFAgAQAABRIAAFAgAQAABRIAAFAgAQAABRIAAFAgAQAABRIAAFAgAQAABRIAAFAgAQAABRIAAFAgAQAABRIAAFAgAQAABRIAAFAgAQAABRIAAFAgAQAABRIAAFAgAQAABRIAAFAgAQAABRIAAFAgAQAABRIAAFAgAQAABRIAAFAgAQAABRIAAFAgAQAABRIAAFAgAQAABRIAAFAgAQAABRIAAFAgAQAABRIAAFAgAQAABRIAAFAgAQAABRIAAFAgAQAABRIAAFAgAQAABRIAAFAgAQAABRIAAFCg7iTbGt142+BwjVMBgAloZKQpww4MVhp3oDvJxka33rh5sMrOAWDiGxlqyrDrN1cad0N3kvWNbr3mka1Vdg4AE1+TAuDh9dUDYEOjW6+8Z12VnQPAxDfc8Jn2J7Xy3krjru9OsqrRrW+9a22VnQPAxDe0pSnD3rpqoMrmq7qT3N7o1tfe9GCVnQPABDecjDTnCMC3b95UZfOfVAqA79zwkDsBAGBXBjc25S6AgcGRXHfL5ipDrOxOcmujW6/ftC3f+H8Nn0EAgIlte3Oulfv69RuycUulL+C3dif5fpKGT1B8+qsrq0wAACauweYEwD9/85Eqm29K8oPuJANJvtvoKF+55h53AwDAzoYHk8GG77TfpZ/evy1f/feGH+GTJNcl2bbjUcBXNzrK0PBIzv3HH1aZCABMPNvWJKn//P9ffPYXGRquNO7VyX+9C+BrVUb69FdX5ge3/qLKEAAwsWxdXfuQ3/vJlnz2ykqH/5NH1/wdAfCjJDc3OtLw8Ej+4JxrM7jdHQEAkMFHkqFKt+n9+pDbR/L28x9ItS//uTGPXvzf85gfTkvyskZHfHDN5mzdNpTjnj+/0swAoONt+mkyXOlBPb/mzE+uzheua/jhvTusSHJ98vgA+FmSd+70sz3y7z9anUMPmJPDF8+pNj0A6FSD65It99Y65CXXrMu7P1H5lMJAkt/P6F0AvzoFkCQPJfnnKiOPjCRveP+3cvX3HqgyDAB0ppGRZNOdtQ551U2b8sYV99fxPKFPJ/lVRXTt9IeLk/wkyaQqe5jaPymXfmh5Tly6oMowANBZttyXbL6ntuG+9h8bcupf3JfNA5WvsRtKckiSn+74wc6H+9c++gvPrLKXwe3DufTf7sres/ry3Gc8tcpQANAZtm9MNt2Rum79+7sv/TJv/vADGRisZbzPJrnosT/Y+QhAkixK8uMkU+vY4ynHHZiPv++F2XtWfx3DAUD7GRlK1v0wGdpaeag164byB3/zQC67traHCG1KcmiSx12Y8EQX/D2S0Xx5aR17vfWutfmHL96eOTP7csSSvdLd/UTNAQCdaiTZeNvoEYAKtg+N5JOXr82r/te9ufGO6iHxGO9P8o2df7ir1bg3o88FOKTOGSyePzNnnXZkfvf4p2falEqXGQBAe9h4RzLw88Y33zKcz129LisuXpO7Hqz91cG3JjkyyeDOf/BkX8efk9HnBffWPZvpUyfnVS9ZlBOXLshLnvO0PHWvKXXvAgCab9OdydaH9niz1Wu351s/3JTLr9+YL163Ppu2NuVBegNJfiOjD//5Nbs7Hv+uJH9T94weN4GuZMG+07Nk4ewsnDc9s6b3ZvrUyZnS1/DjCACgyUaSgYfH9LS/LduGs3HLcNZtGs49qwez8r6BrPr5YB239e3O/0jy97v6w90FQFeSy5K8qs4ZAQBN9fkkr3myXxjLFXlTk3wzo4cRAID29r0ky/LoE/92ZayX5O+d5NqM3kYAALSnO5K8IMluX9HbvbtfeNTDSV6R5K4KkwIAmueuJMszhsU/GXsAJMmqjFbFTQ1MCgBonluSvCija/WY7EkAJKMvDHpJkmv2cDsAoDmuzugX9Pv3ZKNG7rUbSPJ/Mvq0wBdl7NcRAAD1GUnyd0nemGTznm5cdfF+ZZJ/SrJXxXEAgLFbl+QtGb1VvyFVn7azMqNHA+YnObziWADA7l2S5OSM3u7XsDoP3x+X5GNJltQ4JgAw6vaMPt3vyjoG29OLAJ/MN5M8I6PnIn5S47gAULK7krwtyTNT0+KfNO8Cvp4kr07yjiRLm7gfAJiIRjL6AL4LMvpY39rfFjQeC/OiJK9PcmpcJwAAT+aWjJ7j/2ySu5u5o/H+Zj4vo88nXpbkqCQHJ/EuYABKtCWj5/VvyOi9/Fdn9Hk746LVh+a7kizM6IWDsx/9zHj009/CeQFAXbYm2fDo55FHP7dn9Kl9zX8pMAAAAAAAAAAAAAAAAAAAAAAAAAAAAAAAAAAAAAAAAAAAAAAAAAAAAAAAAABMOP8fV4GxPyXiymsAAAAASUVORK5CYII=;fontFamily=Times New Roman;labelBackgroundColor=none;fillColor=#FAE5C7;strokeColor=#0F8B8D;fontColor=#143642;container=1;" parent="1" vertex="1">
          <mxGeometry x="151" y="151.26" width="26" height="26" as="geometry" />
        </mxCell>
        <mxCell id="7gXZhZWd5zdu9qHWoEP5-171" style="edgeStyle=none;rounded=0;orthogonalLoop=1;jettySize=auto;html=1;exitX=1;exitY=0.5;exitDx=0;exitDy=0;entryX=0;entryY=0.5;entryDx=0;entryDy=0;strokeColor=#A8201A;fontColor=#143642;fillColor=#FAE5C7;" edge="1" parent="1" source="7gXZhZWd5zdu9qHWoEP5-168" target="M2BAR0wibj0y26F96If3-6">
          <mxGeometry relative="1" as="geometry" />
        </mxCell>
        <mxCell id="7gXZhZWd5zdu9qHWoEP5-173" style="edgeStyle=none;rounded=0;orthogonalLoop=1;jettySize=auto;html=1;exitX=1;exitY=0.5;exitDx=0;exitDy=0;entryX=0;entryY=0.5;entryDx=0;entryDy=0;strokeColor=#A8201A;fontColor=#143642;fillColor=#FAE5C7;" edge="1" parent="1" source="7gXZhZWd5zdu9qHWoEP5-168" target="M2BAR0wibj0y26F96If3-7">
          <mxGeometry relative="1" as="geometry" />
        </mxCell>
        <mxCell id="7gXZhZWd5zdu9qHWoEP5-174" style="edgeStyle=none;rounded=0;orthogonalLoop=1;jettySize=auto;html=1;exitX=1;exitY=0.5;exitDx=0;exitDy=0;entryX=0;entryY=0.25;entryDx=0;entryDy=0;strokeColor=#A8201A;fontColor=#143642;fillColor=#FAE5C7;" edge="1" parent="1" source="M2BAR0wibj0y26F96If3-2" target="M2BAR0wibj0y26F96If3-25">
          <mxGeometry relative="1" as="geometry" />
        </mxCell>
      </root>
    </mxGraphModel>
  </diagram>
</mxfile>
